<?xml version="1.0" standalone="no"?>
<!DOCTYPE svg PUBLIC "-//W3C//DTD SVG 20010904//EN"
 "http://www.w3.org/TR/2001/REC-SVG-20010904/DTD/svg10.dtd">
<svg version="1.0" xmlns="http://www.w3.org/2000/svg"
 width="512.000000pt" height="512.000000pt" viewBox="0 0 512.000000 512.000000"
 preserveAspectRatio="xMidYMid meet">

<g transform="translate(0.000000,512.000000) scale(0.100000,-0.100000)"
fill="#000000" stroke="none">
<path d="M2460 4452 c-43 -22 -127 -100 -397 -373 -246 -248 -348 -359 -363
-390 -64 -141 39 -299 195 -299 81 0 118 26 290 199 l160 161 5 -953 5 -954
27 -39 c15 -21 44 -50 65 -64 31 -21 48 -25 113 -25 65 0 82 4 113 25 21 14
50 43 65 64 l27 39 5 954 5 953 160 -161 c172 -173 209 -199 290 -199 117 0
215 96 215 210 0 82 -6 89 -388 474 -243 244 -381 374 -407 387 -58 27 -120
24 -185 -9z"/>
<path d="M368 2978 c-21 -5 -58 -28 -82 -50 -79 -69 -76 -34 -76 -917 0 -489
4 -800 11 -840 41 -253 218 -448 465 -511 75 -20 118 -20 1874 -20 1756 0
1799 0 1874 20 247 63 424 258 465 511 15 92 15 1595 0 1654 -7 27 -28 63 -51
90 -98 112 -275 88 -342 -46 l-26 -53 0 -798 c0 -657 -2 -804 -14 -831 -17
-39 -71 -92 -109 -106 -20 -8 -574 -11 -1798 -11 -1483 0 -1775 2 -1802 14
-39 17 -92 71 -106 109 -8 19 -11 288 -11 827 l0 798 -28 53 c-46 89 -149 134
-244 107z"/>
</g>
</svg>
