<svg width="50" height="50" viewBox="0 0 50 50" fill="none" xmlns="http://www.w3.org/2000/svg">
<path d="M49 4.2376V8.3176C48.7012 8.8444 48.2452 9.0316 47.6488 9.0136C46.7512 8.986 45.8512 9.0076 44.9524 9.0076C44.3212 9.0076 43.6912 9.0076 43.0012 9.0076C43.0012 9.3292 43.0012 9.5644 43.0012 9.7996C43.0012 21.4456 43.0012 33.0916 43.0012 44.7376C43.0012 46.8268 41.9872 48.226 40.0216 48.8692C39.9304 48.8992 39.8476 48.9544 39.7612 48.9976H7C6.8128 48.9388 6.6292 48.8704 6.4396 48.8224C3.946 48.1888 2.2612 46.6576 1.3732 44.2504C1.2232 43.8424 1.1224 43.4164 1 42.9988C1 42.5584 1 42.1192 1 41.6788C1.3 41.1532 1.7536 40.966 2.3512 40.984C3.2896 41.0116 4.2292 40.99 5.1688 40.99C5.7592 40.99 6.3508 40.99 7 40.99C7 40.6672 7 40.432 7 40.1968C7 29.6476 6.994 19.0972 7.006 8.548C7.0096 5.7244 8.2324 3.5212 10.6444 2.0764C11.4976 1.5652 12.5296 1.3504 13.48 1C24.2404 1 34.9996 1 45.76 1C46.2748 1.2448 46.8172 1.444 47.2972 1.7428C48.22 2.3176 48.6532 3.256 49 4.24V4.2376ZM41.5 3.034C41.2072 3.0208 41.05 3.0064 40.8916 3.0064C32.1124 3.0064 23.3332 2.998 14.554 3.0088C11.344 3.0124 9.0124 5.3692 9.01 8.6056C9.0016 19.1644 9.0076 29.7244 9.01 40.2832C9.01 40.4968 9.028 40.7092 9.0412 40.9864C9.3256 40.9864 9.5596 40.9864 9.7948 40.9864C15.5548 40.9864 21.3136 40.9864 27.0736 40.9864C29.9128 40.9864 32.7532 40.9852 35.5924 40.984C36.6832 40.984 36.9976 41.2888 37.0012 42.3616C37.0048 43.2412 36.9832 44.122 37.0096 45.0016C37.0456 46.1788 37.918 47.008 39.052 46.9864C40.228 46.9624 40.9936 46.0768 40.9936 44.722C40.9936 32.0632 40.9888 19.4044 40.9912 6.7444C40.9912 5.5132 40.8376 4.2604 41.5012 3.0352L41.5 3.034ZM34.8832 43.036H3.1216C3.1876 43.2772 3.2272 43.4692 3.292 43.6516C4.03 45.7204 5.86 46.9876 8.1388 46.9876C17.0152 46.9924 25.8904 46.99 34.7668 46.99C34.9768 46.99 35.1868 46.99 35.2672 46.99C35.1364 45.6388 35.0116 44.362 34.8832 43.0348V43.036ZM46.9852 6.9664C46.9852 6.2272 47.0128 5.5492 46.9792 4.8736C46.9276 3.8488 46.1332 3.0724 45.1276 3.0148C44.1136 2.956 43.192 3.6136 43.06 4.624C42.9616 5.3824 43.0408 6.1636 43.0408 6.9664H46.9852Z" fill="white" stroke="white" stroke-width="0.5"/>
<path d="M28.9864 10.7872C29.0056 11.4832 28.6696 11.9356 28.0936 11.9896C27.4972 12.046 27.0976 11.6524 26.998 10.912C26.8408 9.73484 26.0692 9.00404 24.9892 9.01004C23.9776 9.01484 23.1544 9.74564 23.0224 10.756C22.8676 11.9512 23.7508 12.9328 25.0408 12.9952C26.8888 13.0852 28.3564 14.1964 28.8364 15.8668C29.4076 17.8552 28.4344 19.906 26.506 20.6836C26.0992 20.848 25.936 21.046 25.9888 21.4684C26.0152 21.6844 26.0044 21.91 25.9756 22.126C25.9048 22.6516 25.5052 22.9984 24.9892 22.9816C24.46 22.9648 23.998 22.6648 24.0544 22.1692C24.1696 21.1516 23.6572 20.7592 22.8472 20.326C21.688 19.7056 21.112 18.5932 21.0172 17.2684C20.9632 16.516 21.2944 16.0636 21.904 16.0072C22.5064 15.9508 22.9036 16.3396 22.9996 17.0788C23.1472 18.2176 23.9056 18.9628 24.9472 18.9916C25.9468 19.0192 26.8048 18.3028 26.9692 17.302C27.1624 16.1344 26.3188 15.088 25.0804 15.022C23.6764 14.9476 22.528 14.4328 21.7132 13.2556C20.2924 11.2024 21.0784 8.32484 23.3812 7.36244C23.9248 7.13564 24.0688 6.85484 24.0088 6.34484C23.9908 6.18764 23.998 6.02324 24.0196 5.86604C24.0916 5.35604 24.5068 4.99964 25.0084 5.00444C25.5112 5.00924 26.0236 5.38484 25.96 5.88164C25.8412 6.81644 26.2588 7.21364 27.0532 7.60244C28.252 8.18804 28.9492 9.50444 28.9852 10.786L28.9864 10.7872Z" fill="white" stroke="white" stroke-width="0.5"/>
<path d="M28.03 24.9977C31.1896 24.9977 34.3492 24.9977 37.5076 24.9977C37.708 24.9977 37.9096 24.9881 38.1064 25.0121C38.6188 25.0757 39.0076 25.4861 38.9944 25.9817C38.9812 26.5001 38.7148 26.8517 38.1928 26.9585C37.9804 27.0017 37.756 27.0017 37.5376 27.0017C31.1788 27.0041 24.82 27.0029 18.4612 27.0017C18.3616 27.0017 18.2608 27.0041 18.1612 27.0005C17.4436 26.9753 16.99 26.5757 16.9984 25.9781C17.0068 25.3793 17.4556 24.9965 18.1924 24.9965C21.472 24.9917 24.7516 24.9941 28.03 24.9953V24.9977Z" fill="white" stroke="white" stroke-width="0.5"/>
<path d="M27.9701 36.9976C24.7913 36.9976 21.6113 36.9976 18.4325 36.9976C18.2333 36.9976 18.0269 37.018 17.8337 36.9784C17.3489 36.88 17.0393 36.568 17.0105 36.076C16.9805 35.5648 17.2313 35.1892 17.7461 35.0476C17.9165 35.0008 18.1013 34.9924 18.2801 34.9924C24.7781 34.9912 31.2773 34.9924 37.7753 34.9936C37.9145 34.9936 38.0585 34.9924 38.1917 35.0248C38.7017 35.152 38.9921 35.4928 38.9885 36.0124C38.9849 36.5368 38.6765 36.8656 38.1641 36.9712C37.9709 37.0108 37.7657 36.9964 37.5665 36.9964C34.3673 36.9976 31.1681 36.9964 27.9689 36.9964L27.9701 36.9976Z" fill="white" stroke="white" stroke-width="0.5"/>
<path d="M28.0001 31.9949C24.8009 31.9949 21.6017 31.9949 18.4025 31.9949C18.2033 31.9949 17.9981 32.0045 17.8049 31.9637C17.2865 31.8533 16.9997 31.5041 17.0093 30.9845C17.0189 30.4685 17.3081 30.1241 17.8325 30.0281C18.0077 29.9957 18.1913 30.0017 18.3701 30.0017C24.8081 30.0017 31.2473 30.0017 37.6853 30.0017C37.8449 30.0017 38.0069 29.9981 38.1629 30.0257C38.6741 30.1157 39.0353 30.5429 38.9933 31.0421C38.9501 31.5593 38.6597 31.9025 38.1353 31.9709C37.8005 32.0153 37.4573 31.9937 37.1177 31.9937C34.0781 31.9949 31.0397 31.9937 28.0001 31.9937V31.9949Z" fill="white" stroke="white" stroke-width="0.5"/>
<path d="M12.9544 26.9812C12.5956 26.9812 12.232 27.0148 11.878 26.9728C11.3536 26.9104 10.9996 26.4868 11.002 25.996C11.0032 25.4776 11.3896 25.036 11.938 25.0132C12.6556 24.9832 13.3768 24.982 14.0932 25.0168C14.6116 25.042 14.9812 25.4704 14.998 25.9672C15.0148 26.4604 14.6716 26.9008 14.1496 26.9656C13.7572 27.0136 13.3528 26.9752 12.9544 26.9752C12.9544 26.9764 12.9544 26.9788 12.9544 26.98V26.9812Z" fill="white" stroke="white" stroke-width="0.5"/>
<path d="M13.0012 36.988C12.6424 36.988 12.28 37.0132 11.9236 36.982C11.3944 36.9364 11.026 36.5392 11.0032 36.0448C10.9804 35.5348 11.3548 35.0476 11.8912 35.0164C12.6268 34.9732 13.3696 34.9756 14.1052 35.0164C14.6176 35.044 14.9908 35.4976 14.9992 35.9824C15.0088 36.4984 14.6284 36.9328 14.0788 36.9832C13.7224 37.0156 13.3612 36.9892 13.0012 36.9892V36.988Z" fill="white" stroke="white" stroke-width="0.5"/>
<path d="M12.976 31.9887C12.6364 31.9887 12.2956 32.0091 11.9572 31.9839C11.4004 31.9431 11.0068 31.5291 11.0008 31.0191C10.9948 30.4947 11.3656 30.0471 11.9164 30.0183C12.6328 29.9811 13.3552 29.9811 14.0716 30.0171C14.6248 30.0447 14.9968 30.4827 14.998 31.0083C14.998 31.5195 14.6068 31.9419 14.0536 31.9839C13.696 32.0115 13.3348 31.9887 12.9748 31.9887H12.976Z" fill="white" stroke="white" stroke-width="0.5"/>
</svg>
