<?xml version="1.0" standalone="no"?>
<!DOCTYPE svg PUBLIC "-//W3C//DTD SVG 20010904//EN"
 "http://www.w3.org/TR/2001/REC-SVG-20010904/DTD/svg10.dtd">
<svg version="1.0" xmlns="http://www.w3.org/2000/svg"
 width="512.000000pt" height="512.000000pt" viewBox="0 0 512.000000 512.000000"
 preserveAspectRatio="xMidYMid meet">

<g transform="translate(0.000000,512.000000) scale(0.100000,-0.100000)"
fill="#000000" stroke="none">
<path d="M1325 4263 c-214 -28 -387 -177 -452 -388 -17 -57 -18 -128 -18
-1420 0 -1475 -3 -1398 56 -1520 59 -119 163 -212 299 -265 l65 -25 492 -3
c550 -3 540 -4 569 65 18 41 6 89 -27 119 -20 18 -50 19 -508 24 l-486 5 -57
27 c-75 35 -141 104 -167 174 -21 54 -21 66 -21 1397 0 1539 -9 1398 95 1502
97 98 81 95 623 95 515 0 515 0 546 65 20 41 20 49 0 90 -31 65 -32 65 -531
64 -246 -1 -461 -4 -478 -6z"/>
<path d="M2623 4255 c-55 -24 -65 -58 -61 -215 3 -130 4 -140 27 -164 48 -51
142 -40 170 20 6 15 11 82 11 162 0 154 -6 173 -66 198 -40 17 -41 17 -81 -1z"/>
<path d="M3054 4256 c-17 -8 -39 -24 -48 -37 -21 -30 -21 -88 0 -118 35 -50
50 -51 544 -51 430 0 463 -1 510 -19 78 -30 134 -81 172 -159 l33 -67 3 -1330
c2 -1325 2 -1330 -19 -1399 -17 -58 -30 -78 -77 -126 -97 -96 -81 -94 -627
-97 -258 -2 -480 -5 -493 -8 -29 -7 -62 -61 -62 -103 0 -25 9 -43 34 -68 l34
-34 473 0 c522 0 545 2 661 61 82 41 186 145 227 227 64 126 61 55 61 1524 0
932 -3 1353 -11 1390 -37 179 -171 331 -350 396 l-74 27 -480 2 c-393 2 -486
0 -511 -11z"/>
<path d="M2623 3615 c-55 -24 -65 -58 -61 -215 3 -130 4 -140 27 -164 48 -51
142 -40 170 20 6 15 11 82 11 162 0 154 -6 173 -66 198 -40 17 -41 17 -81 -1z"/>
<path d="M1774 2980 c-36 -14 -64 -59 -64 -103 0 -38 6 -47 137 -178 l136
-138 -272 -3 -273 -3 -24 -28 c-36 -42 -34 -109 5 -148 l29 -29 269 0 268 0
-127 -127 c-69 -71 -131 -138 -137 -150 -20 -39 -13 -80 18 -115 25 -28 36
-33 75 -33 l46 0 240 240 c157 156 241 248 245 266 3 15 0 42 -8 60 -19 43
-452 474 -490 489 -33 12 -44 12 -73 0z"/>
<path d="M2623 2975 c-55 -24 -65 -58 -61 -215 3 -130 4 -140 27 -164 48 -51
142 -40 170 20 6 15 11 82 11 162 0 154 -6 173 -66 198 -40 17 -41 17 -81 -1z"/>
<path d="M3480 2979 c-13 -6 -129 -114 -257 -242 l-233 -233 0 -49 0 -49 237
-238 c195 -196 244 -239 272 -244 76 -15 141 57 120 130 -6 19 -57 79 -134
156 -69 69 -125 129 -125 133 0 4 117 7 260 7 l260 0 32 29 c28 25 33 36 33
76 0 40 -5 51 -33 76 l-32 29 -262 0 -261 0 130 133 c93 94 132 142 137 164
10 44 -17 97 -59 117 -37 18 -50 19 -85 5z"/>
<path d="M2623 2335 c-55 -24 -65 -58 -61 -215 3 -130 4 -140 27 -164 48 -51
142 -40 170 20 6 15 11 82 11 162 0 154 -6 173 -66 198 -40 17 -41 17 -81 -1z"/>
<path d="M2623 1695 c-55 -24 -65 -58 -61 -215 3 -130 4 -140 27 -164 48 -51
142 -40 170 20 6 15 11 82 11 162 0 154 -6 173 -66 198 -40 17 -41 17 -81 -1z"/>
<path d="M2623 1055 c-55 -24 -65 -58 -61 -215 3 -130 4 -140 27 -164 48 -51
142 -40 170 20 6 15 11 82 11 162 0 154 -6 173 -66 198 -40 17 -41 17 -81 -1z"/>
</g>
</svg>
