<svg width="18" height="17" viewBox="0 0 18 17" fill="none" xmlns="http://www.w3.org/2000/svg">
<path d="M0.6429 12.9296H9.0578C8.9807 13.3546 8.9807 13.7902 9.0578 14.2153H0.6429C0.4724 14.2153 0.3088 14.1475 0.1883 14.027C0.0677001 13.9064 0 13.7429 0 13.5724C0 13.4019 0.0677001 13.2384 0.1883 13.1178C0.3088 12.9973 0.4724 12.9296 0.6429 12.9296Z" fill="currentColor"/>
<path d="M15.3373 12.9296H17.3571C17.5276 12.9296 17.6911 12.9973 17.8117 13.1178C17.9322 13.2384 18 13.4019 18 13.5724C18 13.7429 17.9322 13.9064 17.8117 14.027C17.6911 14.1475 17.5276 14.2153 17.3571 14.2153H15.3373C15.1808 14.8213 14.8087 15.3494 14.2907 15.7006C13.7727 16.0519 13.1444 16.2022 12.5235 16.1233C11.9026 16.0445 11.3318 15.7419 10.9181 15.2723C10.5043 14.8027 10.2761 14.1983 10.2761 13.5724C10.2761 12.9465 10.5043 12.3422 10.9181 11.8725C11.3318 11.4029 11.9026 11.1003 12.5235 11.0215C13.1444 10.9426 13.7727 11.0929 14.2907 11.4442C14.8087 11.7954 15.1808 12.3236 15.3373 12.9296Z" fill="currentColor"/>
<path d="M14.2623 8.3087C14.2682 8.2726 14.2709 8.236 14.2704 8.1994V1.9636L14.3337 2.0996C14.3966 2.2325 14.4822 2.3534 14.5866 2.4569L16.3353 4.2055C16.5552 4.4358 16.9088 4.4745 17.1733 4.2972C17.4551 4.0909 17.5163 3.6952 17.3099 3.4133C17.2932 3.3906 17.2751 3.3689 17.2555 3.3486L14.0934 0.186499C13.8465 -0.0607012 13.4461 -0.060901 13.199 0.185999C13.1991 0.185799 13.1988 0.186099 13.199 0.185999L10.0363 3.3486C9.7897 3.5959 9.7902 3.9963 10.0376 4.243C10.057 4.2624 10.0777 4.2805 10.0996 4.2972C10.364 4.4745 10.7177 4.4358 10.9375 4.2055L12.6894 2.46C12.7822 2.3673 12.8601 2.2606 12.9202 2.1438L13.0056 1.9541V8.1645C12.9936 8.4876 13.2193 8.7711 13.5368 8.8318C13.8816 8.8877 14.2064 8.6535 14.2623 8.3087Z" fill="currentColor"/>
<path d="M4.3092 0.531098C4.3033 0.567298 4.30059 0.603897 4.30109 0.640497V6.8763L4.23789 6.7403C4.17499 6.6074 4.08929 6.4865 3.98489 6.383L2.2362 4.6343C2.0164 4.404 1.6627 4.3653 1.3983 4.5426C1.1164 4.7489 1.05529 5.1447 1.26159 5.4265C1.27829 5.4493 1.29649 5.4709 1.31599 5.4912L4.4782 8.6534C4.725 8.9005 5.1255 8.9007 5.3726 8.6539C5.3724 8.654 5.3727 8.6537 5.3726 8.6539L8.5352 5.4912C8.7818 5.2439 8.7813 4.8435 8.534 4.5968C8.5145 4.5774 8.4938 4.5593 8.472 4.5426C8.2075 4.3653 7.8538 4.404 7.634 4.6343L5.8822 6.3798C5.7893 6.4726 5.7114 6.5793 5.6513 6.696L5.566 6.8857V0.675297C5.578 0.352197 5.3523 0.068797 5.0347 0.00809695C4.6899 -0.047803 4.3651 0.186298 4.3092 0.531098Z" fill="currentColor"/>
</svg>
