<svg width="376" height="512" viewBox="0 0 376 512" fill="none" xmlns="http://www.w3.org/2000/svg">
<path d="M330.2 33.6H294.2C294.6 35.9 294.8 38.3 294.8 40.7V72.1C294.8 94.5 276.6 112.7 254.2 112.7H121.7C99.3 112.7 81.1 94.5 81.1 72.1V40.7C81.1 38.3 81.3 35.9 81.7 33.6H45.7C20.9 33.6 0.700012 53.8 0.700012 78.6V467C0.700012 491.8 20.9 512 45.7 512H330.2C355 512 375.2 491.8 375.2 467V78.6C375.2 53.8 355 33.6 330.2 33.6ZM74.6 178C81.7 173.8 90.9 176.2 95.1 183.4L102.2 195.5L135.7 147C140.4 140.2 149.8 138.5 156.6 143.2C163.4 147.9 165.1 157.3 160.4 164.1L113.5 231.9C110.7 236 106.1 238.4 101.2 238.4C101 238.4 100.8 238.4 100.6 238.4C95.5 238.2 90.8 235.4 88.2 231L69.2 198.6C65 191.4 67.4 182.2 74.6 178ZM160.4 274.8L113.5 342.6C110.7 346.7 106.1 349.1 101.2 349.1C101 349.1 100.8 349.1 100.6 349.1C95.5 348.9 90.8 346.1 88.2 341.7L69.2 309.3C65 302.2 67.4 293 74.6 288.8C81.7 284.6 90.9 287 95.1 294.2L102.2 306.3L135.7 257.8C140.4 251 149.8 249.3 156.6 254C163.4 258.7 165.1 268 160.4 274.8ZM294.8 335.5H193.2C184.9 335.5 178.2 328.8 178.2 320.5C178.2 312.2 184.9 305.5 193.2 305.5H294.8C303.1 305.5 309.8 312.2 309.8 320.5C309.8 328.8 303.1 335.5 294.8 335.5ZM294.8 279.5H193.2C184.9 279.5 178.2 272.8 178.2 264.5C178.2 256.2 184.9 249.5 193.2 249.5H294.8C303.1 249.5 309.8 256.2 309.8 264.5C309.8 272.8 303.1 279.5 294.8 279.5ZM294.8 224.7H193.2C184.9 224.7 178.2 218 178.2 209.7C178.2 201.4 184.9 194.7 193.2 194.7H294.8C303.1 194.7 309.8 201.4 309.8 209.7C309.8 218 303.1 224.7 294.8 224.7Z" fill="currentColor"/>
<path d="M254.3 0H121.7C115.9 0 111.1 4.8 111.1 10.6V72.1C111.1 77.9 115.9 82.7 121.7 82.7H254.4C260.2 82.7 265 77.9 265 72.1V10.6C264.9 4.8 260.2 0 254.3 0Z" fill="currentColor"/>
</svg>
