<svg width="428" height="391" viewBox="0 0 428 391" fill="none" xmlns="http://www.w3.org/2000/svg">
<path d="M260.75 204.781C279.727 219.596 303.1 227.666 327.175 227.716C341.31 227.748 355.277 224.644 368.068 218.628V239.188C362.82 238.313 357.429 237.858 351.932 237.858C298.159 237.858 254.568 281.45 254.568 335.223C254.568 355.531 260.786 374.386 271.422 389.99H245.388C243.667 389.99 242.016 389.306 240.799 388.089C239.581 386.872 238.897 385.221 238.897 383.499V316.901C239.152 306.351 235.703 296.044 229.15 287.771C222.597 279.499 213.353 273.783 203.024 271.616C196.81 270.557 190.439 270.864 184.355 272.518C178.272 274.171 172.622 277.13 167.799 281.189C162.975 285.249 159.094 290.31 156.427 296.021C153.759 301.733 152.369 307.958 152.351 314.262V383.499C152.351 385.22 151.667 386.872 150.45 388.089C149.233 389.306 147.582 389.99 145.86 389.99H86.7917C77.9748 391.248 68.9858 390.436 60.5369 387.619C52.088 384.802 44.4106 380.056 38.113 373.759C31.8155 367.461 27.0698 359.784 24.2527 351.335C21.4356 342.886 20.6246 333.897 21.8826 325.08V218.628C34.7426 224.667 48.7846 227.772 62.9919 227.716C87.0667 227.666 110.439 219.596 129.416 204.781C148.082 219.631 171.23 227.715 195.083 227.715C218.935 227.715 242.084 219.631 260.75 204.781ZM292.34 0.53125C346.431 0.531252 354.718 18.2736 363.74 44.627L386.156 111.116C391.117 124.744 391.244 139.664 386.517 153.375C381.791 167.086 372.497 178.757 360.192 186.434C350.086 192.254 338.62 195.299 326.958 195.261C312.893 195.408 299.101 191.373 287.333 183.669C275.564 175.965 266.349 164.937 260.858 151.987C255.295 164.841 246.093 175.787 234.386 183.476C222.68 191.164 208.981 195.261 194.975 195.261C180.97 195.261 167.27 191.164 155.563 183.476C143.857 175.787 134.655 164.841 129.092 151.987C123.601 164.937 114.386 175.965 102.618 183.669C90.8495 191.373 77.0572 195.408 62.9919 195.261C51.3371 195.295 39.8799 192.25 29.78 186.434C17.4751 178.757 8.18055 167.086 3.45386 153.375C-1.2728 139.664 -1.1446 124.744 3.81616 111.116L26.3181 44.627C35.2324 18.2737 43.5189 0.5313 97.6101 0.53125H292.34Z" fill="#8A8B8C"/>
<path d="M289.271 328.205L340.069 379.004C341.519 380.454 343.452 381.25 345.513 381.25C347.576 381.25 349.507 380.453 350.957 379.004L355.569 374.391C357.018 372.943 357.816 371.009 357.816 368.947C357.816 366.887 357.018 364.888 355.569 363.44L325.934 333.74L420.086 333.74C424.331 333.74 427.685 330.416 427.685 326.17L427.685 319.648C427.685 315.402 424.331 311.744 420.086 311.744L325.598 311.744L355.568 281.878C357.017 280.428 357.815 278.547 357.815 276.485C357.815 274.425 357.017 272.517 355.568 271.068L350.956 266.469C349.506 265.019 347.574 264.229 345.511 264.229C343.451 264.229 341.518 265.029 340.068 266.48L289.27 317.278C287.816 318.732 287.017 320.674 287.023 322.738C287.018 324.809 287.816 326.752 289.271 328.205Z" fill="#8A8B8C"/>
</svg>
