<?xml version="1.0" encoding="UTF-8"?>
<svg id="Layer_1" data-name="Layer 1" xmlns="http://www.w3.org/2000/svg" viewBox="0 0 389.44 512">
  <g>
    <path d="M57.65,351.77s.97,48.65,1.08,56.93c.12,8.28-.73,27.56,17.48,27.3,18.21-.24,16.87-17.43,16.72-27.77-.14-10.32-1.08-56.93-1.08-56.93l-34.21.47Z" fill="currentColor"/>
    <path d="M116.12,227.41l-86.25,1.17.25,18.74,11.52-.16c.31,22.83,1.52,144.86,1.69,156.5l.02,2.15c.08,10.54.19,28.18,10.81,38.59,5.42,5.31,12.81,7.95,21.96,7.82,9.09-.12,16.34-2.68,21.55-7.61,10.5-9.94,10.17-26.78,9.95-39.07l-1.73-159.24,10.49-.14-.26-18.74ZM98.62,402.92l.05,2.78c.19,10.63.47,25.19-7.16,32.42-3.58,3.39-8.66,5.07-15.52,5.16-6.77.09-11.87-1.63-15.59-5.27-7.95-7.79-8.05-23.1-8.12-32.25v-2.2c-.18-11.65-1.39-133.71-1.7-156.5l46.35-.63,1.68,156.5Z" fill="currentColor"/>
  </g>
  <g>
    <path d="M172.84,351.77s.97,48.65,1.08,56.93c.12,8.28-.73,27.56,17.48,27.3,18.21-.24,16.87-17.43,16.72-27.77-.14-10.32-1.08-56.93-1.08-56.93l-34.21.47Z" fill="currentColor"/>
    <path d="M231.3,227.41l-86.25,1.17.25,18.74,11.52-.16c.31,22.83,1.52,144.86,1.69,156.5l.02,2.15c.08,10.54.19,28.18,10.81,38.59,5.42,5.31,12.81,7.95,21.96,7.82,9.09-.12,16.34-2.68,21.55-7.61,10.5-9.94,10.17-26.78,9.95-39.07l-1.73-159.24,10.49-.14-.26-18.74ZM213.81,402.92l.05,2.78c.19,10.63.47,25.19-7.16,32.42-3.58,3.39-8.66,5.07-15.52,5.16-6.77.09-11.87-1.63-15.59-5.27-7.95-7.79-8.05-23.1-8.12-32.25v-2.2c-.18-11.65-1.39-133.71-1.7-156.5l46.35-.63,1.68,156.5Z" fill="currentColor"/>
  </g>
  <g>
    <path d="M288.03,351.77s.97,48.65,1.08,56.93c.12,8.28-.73,27.56,17.48,27.3,18.21-.24,16.87-17.43,16.72-27.77-.14-10.32-1.08-56.93-1.08-56.93l-34.21.47Z" fill="currentColor"/>
    <path d="M346.49,227.41l-86.25,1.17.25,18.74,11.52-.16c.31,22.83,1.52,144.86,1.69,156.5l.02,2.15c.08,10.54.19,28.18,10.81,38.59,5.42,5.31,12.81,7.95,21.96,7.82,9.09-.12,16.34-2.68,21.55-7.61,10.5-9.94,10.17-26.78,9.95-39.07l-1.73-159.24,10.49-.14-.26-18.74ZM329,402.92l.05,2.78c.19,10.63.47,25.19-7.16,32.42-3.58,3.39-8.66,5.07-15.52,5.16-6.77.09-11.87-1.63-15.59-5.27-7.95-7.79-8.05-23.1-8.12-32.25v-2.2c-.18-11.65-1.39-133.71-1.7-156.5l46.35-.63,1.68,156.5Z" fill="currentColor"/>
  </g>
  <g>
    <g>
      <path d="M368.55,512c-4.2,0-7.61-3.41-7.61-7.61v-252.88c0-4.2,3.41-7.61,7.61-7.61s7.61,3.41,7.61,7.61v252.88c0,4.2-3.41,7.61-7.61,7.61Z" fill="currentColor"/>
      <path d="M20.89,512c-4.2,0-7.61-3.41-7.61-7.61v-252.88c0-4.2,3.41-7.61,7.61-7.61s7.61,3.41,7.61,7.61v252.88c0,4.2-3.41,7.61-7.61,7.61Z" fill="currentColor"/>
    </g>
    <path d="M0,457.96v24.4c0,3.17,2.57,5.73,5.74,5.73h377.98c3.17,0,5.73-2.57,5.73-5.73v-24.4c0-3.17-2.57-5.73-5.73-5.73H5.73c-3.17,0-5.73,2.57-5.73,5.73Z" fill="currentColor"/>
    <path d="M0,301.63v19.48c0,2.53,2.57,4.58,5.74,4.58h377.98c3.17,0,5.73-2.05,5.73-4.58v-19.48c0-2.53-2.57-4.58-5.73-4.58H5.73c-3.17,0-5.73,2.05-5.73,4.58Z" fill="currentColor"/>
    <path d="M366.69,31.12l-3.96-10.89c-5.81-15.95-23.44-24.17-39.39-18.37l-44.11,16.06c-6.85,2.49-12.52,7.46-15.89,13.93l-6.02,11.56c-2.58,4.95-6.9,8.78-12.13,10.75l-154.23,58.1c-4.25,1.6-6.42,6.32-4.87,10.59l2.73,7.5c1.55,4.27,6.25,6.49,10.54,4.99l155.49-54.63c5.27-1.85,11.04-1.7,16.2.44l12.04,4.98c6.74,2.79,14.28,2.95,21.13.46l44.11-16.06c15.95-5.81,24.17-23.44,18.37-39.39Z" fill="currentColor"/>
    <path d="M94,160.88c-1.91-3.82-7.35-3.82-9.26,0-4.8,9.57-11.62,24.18-11.62,29.99,0,8.98,7.28,16.25,16.25,16.25s16.25-7.28,16.25-16.25c0-5.81-6.82-20.42-11.62-29.99h0Z" fill="currentColor"/>
  </g>
</svg>