<svg width="50" height="50" viewBox="0 0 353 387" fill="none" xmlns="http://www.w3.org/2000/svg">
<path d="M235.5 48.1362V352.636C157.02 353.086 78.48 352.296 0 352.636V48.1362C78.48 48.4762 157.02 47.6862 235.5 48.1362ZM31.3 68.5662C25.75 69.4962 21.82 73.7962 21.06 79.3262C20.22 85.4962 20.28 102.966 20.99 109.266C21.74 115.906 25.98 120.146 32.62 120.886C41.91 121.936 62.92 121.756 72.4 120.916C78.68 120.366 83.31 116.396 84 110.016C84.76 102.946 84.76 86.3362 84 79.2662C83.37 73.3962 78.98 69.0162 73.12 68.3862C64.99 67.5162 38.95 67.2862 31.3 68.5662ZM97.68 76.0662C96.33 77.4162 96.26 81.3162 98.25 82.2662L224.66 82.6762C230.25 81.9362 228.92 74.3662 223.16 75.1062C183.81 77.6362 140.48 71.8662 101.59 75.1062C100.43 75.2062 98.51 75.2362 97.68 76.0662ZM98.63 90.8862C95.72 91.9062 96.57 98.3862 98.63 98.3862H226.13C228.58 98.3862 228.58 90.8862 226.13 90.8862H98.63ZM131.82 113.206C133.49 111.536 133.17 106.866 130.1 106.656C124.97 107.456 100.42 105.236 97.8 107.316C95.18 109.396 96.38 113.506 100.17 114.086C105.95 114.976 121.73 114.686 127.9 114.166C129.06 114.066 130.98 114.036 131.81 113.206H131.82ZM149.43 113.206C150.27 114.036 152.17 114.066 153.34 114.166C175.86 116.086 201.07 112.656 223.89 114.146C229.25 114.316 229.78 107.106 224.66 106.596L149.99 106.996C148.4 108.346 147.96 111.736 149.43 113.196V113.206ZM30.55 139.056C25.38 139.996 21.72 144.876 21.09 149.846C20.27 156.316 20.27 173.236 21 179.766C21.73 186.296 25.99 190.646 32.63 191.386C41.83 192.426 62.25 192.216 71.66 191.406C78.32 190.836 83.26 187.526 84.01 180.506C84.76 173.486 84.77 156.826 84.01 149.756C83.38 143.886 78.99 139.506 73.13 138.876C65.31 138.036 37.73 137.746 30.55 139.056ZM131.82 146.566C130.98 145.736 129.08 145.706 127.91 145.606C121.76 145.086 105.94 144.806 100.18 145.686C96.39 146.266 95.31 150.476 97.81 152.456C100.44 154.546 124.98 152.286 130.13 153.136C132.78 152.806 133.51 148.256 131.82 146.566ZM149.43 152.206C150.27 153.036 152.17 153.066 153.34 153.166C176.12 155.106 201.59 151.626 224.66 153.166C229.8 152.636 229.22 145.436 223.89 145.616C201.05 147.086 175.9 143.706 153.34 145.596C149.29 145.936 146.32 149.106 149.43 152.196V152.206ZM98.78 161.536C94.98 163.766 96.24 169.036 100.87 168.896L223.17 168.916C228.91 169.666 230.27 162.076 224.67 161.346L98.79 161.536H98.78ZM227.07 183.706C228.42 182.356 228.49 178.456 226.5 177.506L100.09 177.096C94.52 177.756 96.08 185.506 101.59 184.666C140.94 182.146 184.27 187.916 223.15 184.666C224.31 184.566 226.23 184.536 227.06 183.706H227.07ZM30.55 209.556C26.03 210.376 21.7 215.116 21.07 219.576C20.2 225.726 20.29 243.936 21 250.266C21.75 256.906 25.99 261.146 32.63 261.886C41.83 262.926 62.25 262.716 71.66 261.906C78.32 261.336 83.26 258.026 84.01 251.006C84.76 243.986 84.77 227.326 84.01 220.256C83.38 214.386 78.99 210.006 73.13 209.376C65.31 208.536 37.73 208.246 30.55 209.556ZM99.54 216.306C95.25 217.086 95.7 223.566 100.09 223.676H224.66C229.78 223.176 229.25 215.956 223.89 216.126L99.54 216.306ZM98.78 232.036C94.98 234.266 96.24 239.536 100.87 239.396L223.17 239.416C228.91 240.166 230.27 232.576 224.67 231.846L98.79 232.036H98.78ZM131.82 254.206C133.49 252.536 133.17 247.866 130.1 247.656C124.94 248.466 100.45 246.226 97.8 248.316C95.45 250.166 96.5 254.566 100.16 255.066C106.37 255.926 121.4 255.706 127.9 255.166C129.06 255.066 130.98 255.036 131.81 254.206H131.82ZM227.07 254.206C228.42 252.856 228.49 248.956 226.5 248.006L151.84 247.596C146.7 247.936 147.54 255.476 152.61 255.126C175.45 253.686 200.6 257.036 223.15 255.156C224.31 255.056 226.23 255.026 227.06 254.196L227.07 254.206ZM30.55 280.056C26.03 280.876 21.7 285.616 21.07 290.076C20.2 296.226 20.29 314.436 21 320.766C21.75 327.406 25.99 331.646 32.63 332.386C41.73 333.406 62.39 333.246 71.66 332.416C78.15 331.836 83.28 328.256 84.01 321.516C84.74 314.776 84.84 296.806 84.02 289.996C83.38 284.646 78.33 280.446 73.13 279.886C65.31 279.046 37.73 278.756 30.55 280.066V280.056ZM130.13 286.636C121.07 285.136 108.14 287.746 98.63 286.636C95.72 287.656 96.57 294.136 98.63 294.136H130.13C133.1 294.136 133.9 287.256 130.13 286.636ZM151.13 294.136H226.13C228.58 294.136 228.58 286.636 226.13 286.636H151.13C148.16 286.636 147.36 293.516 151.13 294.136ZM97.68 308.956C98.51 309.786 100.43 309.816 101.59 309.916C140.47 313.166 183.81 307.396 223.16 309.916C228.92 310.656 230.25 303.086 224.66 302.346L98.25 302.756C96.26 303.706 96.34 307.606 97.68 308.956ZM227.07 324.706C228.42 323.356 228.49 319.456 226.5 318.506L100.09 318.096C94.52 318.756 96.08 326.506 101.59 325.666C140.94 323.146 184.27 328.916 223.15 325.666C224.31 325.566 226.23 325.536 227.06 324.706H227.07Z" fill="#76859C"/>
<path d="M306 0.136431V304.636C289.76 304.736 273.49 304.556 257.25 304.636V43.2664C257.25 41.4964 253.81 40.3064 252.33 39.9364L97.5 0.146431C166.98 0.456431 236.52 -0.303569 306 0.146431V0.136431Z" fill="#175CC8"/>
<path d="M235.5 48.1362C240.24 48.1662 245.01 48.1162 249.75 48.1362V352.636C245.01 352.656 240.24 352.606 235.5 352.636V48.1362Z" fill="#76859C"/>
<path d="M306 0.13622C310.49 0.16622 315.01 0.11622 319.5 0.13622V304.636C315.01 304.656 310.49 304.606 306 304.636V0.13622Z" fill="#175CC8"/>
<path d="M69.75 1.63623L222 40.6362H69.75V1.63623Z" fill="#175CC8"/>
<path d="M98.6301 90.8862H226.13C228.58 90.8862 228.58 98.3862 226.13 98.3862H98.6301C96.5701 98.3862 95.7201 91.9062 98.6301 90.8862Z" fill="#175CC8"/>
<path d="M99.5396 216.306L223.89 216.126C229.25 215.956 229.78 223.166 224.66 223.676H100.09C95.6996 223.566 95.2496 217.096 99.5396 216.306Z" fill="#175CC8"/>
<path d="M98.7803 161.536L224.66 161.346C230.26 162.076 228.9 169.666 223.16 168.916L100.86 168.896C96.2303 169.026 94.9803 163.756 98.7703 161.536H98.7803Z" fill="#175CC8"/>
<path d="M98.7803 232.036L224.66 231.846C230.26 232.576 228.9 240.166 223.16 239.416L100.86 239.396C96.2303 239.526 94.9803 234.256 98.7703 232.036H98.7803Z" fill="#175CC8"/>
<path d="M97.6795 76.0661C98.5095 75.2361 100.43 75.2062 101.59 75.1062C140.47 71.8562 183.81 77.6262 223.16 75.1062C228.92 74.3662 230.25 81.9361 224.66 82.6761L98.2495 82.2661C96.2595 81.3161 96.3395 77.4161 97.6795 76.0661Z" fill="#175CC8"/>
<path d="M97.6796 308.996C96.3296 307.646 96.2596 303.746 98.2496 302.796L224.66 302.386C230.25 303.126 228.92 310.696 223.16 309.956C183.81 307.426 140.48 313.196 101.59 309.956C100.43 309.856 98.5096 309.826 97.6796 308.996Z" fill="#175CC8"/>
<path d="M227.07 183.706C226.24 184.536 224.32 184.566 223.16 184.666C184.28 187.916 140.95 182.146 101.6 184.666C96.0797 185.506 94.5297 177.756 100.1 177.096L226.51 177.506C228.5 178.456 228.42 182.356 227.08 183.706H227.07Z" fill="#175CC8"/>
<path d="M227.07 324.706C226.24 325.536 224.32 325.566 223.16 325.666C184.28 328.916 140.95 323.146 101.6 325.666C96.0797 326.506 94.5297 318.756 100.1 318.096L226.51 318.506C228.5 319.456 228.42 323.356 227.08 324.706H227.07Z" fill="#175CC8"/>
<path d="M227.07 254.206C226.24 255.036 224.32 255.066 223.16 255.166C200.6 257.046 175.45 253.696 152.62 255.136C147.55 255.476 146.71 247.946 151.85 247.606L226.51 248.016C228.5 248.966 228.42 252.866 227.08 254.216L227.07 254.206Z" fill="#175CC8"/>
<path d="M151.13 294.136C147.36 293.516 148.16 286.636 151.13 286.636H226.13C228.58 286.636 228.58 294.136 226.13 294.136H151.13Z" fill="#175CC8"/>
<path d="M149.43 113.206C147.96 111.736 148.4 108.356 149.99 107.006L224.66 106.606C229.78 107.106 229.25 114.326 223.89 114.156C201.08 112.666 175.87 116.096 153.34 114.176C152.17 114.076 150.27 114.056 149.43 113.216V113.206Z" fill="#175CC8"/>
<path d="M149.43 152.206C146.32 149.106 149.29 145.946 153.34 145.606C175.9 143.716 201.05 147.096 223.89 145.626C229.22 145.446 229.81 152.646 224.66 153.176C201.59 151.626 176.12 155.116 153.34 153.176C152.17 153.076 150.27 153.056 149.43 152.216V152.206Z" fill="#175CC8"/>
<path d="M131.82 113.206C130.99 114.036 129.07 114.066 127.91 114.166C121.74 114.686 105.95 114.966 100.18 114.086C96.3899 113.506 95.3099 109.296 97.8099 107.316C100.31 105.336 124.98 107.456 130.11 106.656C133.18 106.866 133.5 111.536 131.83 113.206H131.82Z" fill="#175CC8"/>
<path d="M131.82 146.566C133.51 148.256 132.78 152.806 130.13 153.136C124.98 152.286 100.44 154.546 97.8099 152.456C95.3099 150.476 96.3899 146.266 100.18 145.686C105.94 144.806 121.76 145.086 127.91 145.606C129.08 145.706 130.98 145.736 131.82 146.566Z" fill="#175CC8"/>
<path d="M131.82 254.206C130.99 255.036 129.07 255.066 127.91 255.166C121.41 255.706 106.38 255.926 100.17 255.066C96.5096 254.556 95.4596 250.166 97.8096 248.316C100.46 246.236 124.95 248.466 130.11 247.656C133.18 247.866 133.5 252.536 131.83 254.206H131.82Z" fill="#175CC8"/>
<path d="M130.13 286.636C133.9 287.256 133.1 294.136 130.13 294.136H98.6301C96.5701 294.136 95.7201 287.656 98.6301 286.636C108.14 287.746 121.07 285.136 130.13 286.636Z" fill="#175CC8"/>
<path d="M66.7504 75.886V113.386C57.5604 113.696 42.8404 114.426 34.1104 113.406C31.9704 113.156 29.9504 112.276 29.0704 110.196C28.0004 107.676 28.1104 86.236 28.4704 82.226C28.7604 78.956 29.8204 76.496 33.4204 75.926C41.3204 74.686 58.1004 75.586 66.7504 75.886Z" fill="#175CC8"/>
<path d="M66.75 113.386V75.8862C69.88 75.9962 74.9 74.9362 76.17 78.8462C77.15 81.8562 76.93 103.556 76.54 107.796C75.91 114.646 72.22 113.206 66.76 113.386H66.75Z" fill="#175CC8"/>
<path d="M66.7497 216.886V254.386C58.0997 254.676 41.3197 255.576 33.4197 254.346C29.8197 253.786 28.7597 251.326 28.4697 248.046C27.8997 241.716 27.8597 228.786 28.5097 222.516C28.8797 218.886 29.5797 217.316 33.3697 216.876C42.3197 215.836 57.3497 216.576 66.7597 216.886H66.7497Z" fill="#175CC8"/>
<path d="M66.75 254.386V216.886C69.88 216.996 74.9 215.936 76.17 219.846C77.15 222.856 76.93 244.556 76.54 248.796C75.91 255.646 72.22 254.206 66.76 254.386H66.75Z" fill="#175CC8"/>
<path d="M32.0301 146.546C44.5001 147.126 58.6301 145.236 70.9101 146.356C73.2401 146.566 75.3501 146.806 76.1701 149.346C77.0701 152.146 76.9801 175.106 76.5101 179.026C76.0401 182.946 74.5301 183.586 70.9101 183.926C62.6601 184.676 41.2401 184.976 33.3401 183.926C30.3201 183.526 28.8301 181.156 28.4901 178.276C27.8301 172.726 27.8301 157.546 28.4901 151.996C28.7701 149.586 29.8501 147.706 32.0401 146.546H32.0301Z" fill="#175CC8"/>
<path d="M66.7497 287.386V324.886C58.0997 325.176 41.3197 326.076 33.4197 324.846C29.8197 324.286 28.7597 321.826 28.4697 318.546C27.8997 312.216 27.8597 299.286 28.5097 293.016C28.8797 289.386 29.5797 287.816 33.3697 287.376C42.1797 286.356 57.5097 287.006 66.7597 287.386H66.7497Z" fill="#175CC8"/>
<path d="M66.75 324.886V287.386C71.48 287.576 75.94 286.176 76.54 292.216C77.46 301.406 76.04 312.556 76.17 321.926C74.9 325.836 69.88 324.776 66.75 324.886Z" fill="#175CC8"/>
<path d="M255 193.542C306.138 193.542 347.458 235.588 347.458 287.284C347.458 338.981 306.138 381.025 255 381.025C203.862 381.025 162.542 338.981 162.542 287.284C162.542 235.588 203.862 193.542 255 193.542Z" fill="#175CC8" stroke="white" stroke-width="10.9151"/>
<path d="M193 322.833C202.699 303.038 214.628 284.387 225.739 265.364L225.863 247.195C225.632 246.227 221.546 247.174 221.538 243.719C221.525 239.228 226.195 240.746 229.258 240.516L226.699 229H250.583L248.024 240.516H254.635C255.339 240.516 256.631 243.096 256.478 244.052C256.017 246.952 252.025 246.419 251.842 247.195L251.957 264.942C257.719 275.166 264.001 285.078 269.845 295.25C273.269 301.213 284.069 318.286 284.649 323.954C285.361 330.923 282.653 336.698 275.121 337.351H202.579C197.167 336.886 195.324 334.105 193 329.657V322.833ZM208.781 307.905H268.919L245.26 267.352C241.52 267.791 236.901 266.878 233.284 267.365C232.691 267.446 232.171 267.45 231.787 268L208.781 307.905Z" fill="#76859C"/>
<path d="M329.484 268.666V271.225C327.841 272.555 326.801 273.6 324.63 272.449C323.755 271.984 323.218 270.457 322.233 270.986L283.834 310.033L282.802 309.585L263.012 276.049L294.731 243.919C295.456 242.648 293.776 242.085 293.413 240.968C292.172 237.172 296.079 235.261 298.779 237.735L329.479 268.666H329.484ZM270.198 278.475H305.812C307.139 276.808 318.091 266.81 317.938 265.953C312.952 260.741 307.906 255.478 302.626 250.547C301.837 249.81 301.509 248.227 299.909 248.283L270.203 278.475H270.198Z" fill="#76859C"/>
<path d="M208.78 307.905L231.786 268C232.17 267.45 232.691 267.442 233.283 267.365C236.9 266.879 241.519 267.791 245.26 267.352L268.918 307.905H208.78ZM239.182 284.14C235.902 287.419 240.645 292.704 244.164 289.761C248.032 286.532 242.598 280.719 239.182 284.14ZM229.982 290.934C224.48 292.201 226.007 302.339 233.544 300.036C238.274 298.59 237.216 289.27 229.982 290.934ZM242.193 301.789C246.829 306.711 254.609 299.2 249.316 294.453C244.71 290.315 237.834 297.161 242.193 301.789Z" fill="#F9F9F9"/>
<path d="M270.199 278.476L299.905 248.283C301.505 248.223 301.837 249.81 302.622 250.548C307.902 255.478 312.948 260.741 317.934 265.953C318.087 266.815 307.135 276.808 305.808 278.476H270.194H270.199ZM299.513 258.076C295.474 258.912 296.6 265.309 301.023 264.311C304.499 263.526 303.88 257.171 299.513 258.076ZM290.547 267.902C285.864 268.982 286.342 277.081 291.737 277.23C299.287 277.443 298.276 266.12 290.547 267.902ZM301.01 268.342C298.771 270.577 302.758 274.249 304.776 271.472C306.648 268.896 302.942 266.414 301.01 268.342Z" fill="#F6F6F6"/>
<path d="M242.194 301.788C237.835 297.161 244.71 290.315 249.316 294.452C254.609 299.204 246.826 306.715 242.194 301.788Z" fill="#175CC8"/>
<path d="M229.982 290.934C237.216 289.271 238.269 298.59 233.544 300.036C226.011 302.339 224.48 292.201 229.982 290.934Z" fill="#175CC8"/>
<path d="M239.183 284.14C242.6 280.723 248.033 286.532 244.165 289.761C240.646 292.7 235.903 287.42 239.183 284.14Z" fill="#175CC8"/>
<path d="M290.548 267.902C298.277 266.12 299.287 277.443 291.738 277.23C286.343 277.081 285.865 268.981 290.548 267.902Z" fill="#175CC8"/>
<path d="M299.512 258.076C303.88 257.171 304.503 263.531 301.022 264.311C296.595 265.309 295.473 258.907 299.512 258.076Z" fill="#175CC8"/>
<path d="M301.01 268.342C302.942 266.409 306.648 268.896 304.776 271.472C302.754 274.253 298.771 270.581 301.01 268.342Z" fill="#175CC8"/>
</svg>
