<svg width="50" height="50" viewBox="0 0 459 462" fill="none" xmlns="http://www.w3.org/2000/svg">
<path d="M355.156 77.77C355.154 77.77 355.153 77.769 355.153 77.7678V54.27C355.153 51.77 359.363 50.02 361.633 49.75C372.043 48.51 395.953 48.83 406.693 49.73C412.263 50.2 412.723 50.66 413.193 56.23C414.425 70.8783 412.851 86.7799 412.873 102.069C412.884 109.658 417.104 116.495 423.536 120.524L452.545 138.695C454.234 139.753 455.619 141.235 456.56 142.993C457.448 144.652 457.914 146.505 457.916 148.387L458.193 452.32C457.858 455.984 457.382 459.184 454.308 460.682C452.996 461.322 451.489 461.355 450.029 461.364C301.783 462.322 153.547 462.005 5.39813 460.326C3.98266 460.31 2.66168 459.613 1.84938 458.453C1.34996 457.74 1.07336 456.896 1.05507 456.025C-1.08995 353.956 0.82027 251.445 0.113351 149.23C0.113351 146.07 0.513351 142.41 3.18335 140.3L216.214 7.8403C223.941 3.03598 233.72 3.01397 241.468 7.78346L355.157 77.7659C355.159 77.7671 355.158 77.77 355.156 77.77ZM367.153 60.77V89.27C367.153 92.68 360.473 95.47 357.423 92.99L241.575 20.9104C233.77 16.0537 223.876 16.0846 216.092 20.976C149.281 62.9603 82.0363 104.26 15.4634 146.62C13.7865 147.683 12.1534 149.329 12.1534 151.314V425.77C12.1534 439.025 22.8985 449.77 36.1534 449.77H422.153C435.408 449.77 446.153 439.025 446.153 425.77V151.315C446.153 149.33 444.513 147.695 442.843 146.62C431.593 139.46 415.293 130.94 405.393 123.02C404.463 122.27 402.153 120.29 402.153 119.26V78.26C402.153 68.595 394.318 60.76 384.653 60.76H367.163C367.158 60.76 367.153 60.7645 367.153 60.77Z" fill="white"/>
<path d="M367.153 60.7702H402.153V119.27C402.153 120.29 404.463 122.28 405.393 123.03C415.283 130.94 431.593 139.47 442.843 146.63C443.853 147.27 444.943 147.72 446.153 147.78V449.78H12.1533V147.77C13.3633 147.71 14.4533 147.27 15.4633 146.62C86.2633 101.57 157.823 57.7202 228.813 12.9702L357.433 92.9902C360.483 95.4702 367.163 92.6802 367.163 89.2702V60.7702H367.153ZM216.153 344.77V126.27C216.153 125.66 212.173 122.09 210.703 122.72C181.233 125.03 147.543 119.83 118.593 122.72C116.743 122.9 112.153 124.36 112.153 126.28V344.78H94.1533V297.28C94.1533 294.7 89.7633 289.51 87.6233 287.81C76.9233 279.27 65.1033 285 60.5833 296.71C62.1033 337.46 57.0833 381.98 60.1133 422.32C61.1233 435.83 73.0533 444.45 85.6833 437.8C88.3433 436.4 94.1533 429.8 94.1533 427.27V378.77H112.153V395.27C112.153 416.5 138.543 438.01 158.673 439.75C183.733 441.92 216.153 421.01 216.153 394.27V378.77H246.153V394.27C246.153 420.99 278.503 442.01 303.633 439.75C323.703 437.95 350.153 416.46 350.153 395.27V378.77H368.153V427.27C368.153 428.95 372.973 435.28 374.823 436.6C387.133 445.42 401.113 436.77 402.193 422.31C405.193 382.29 400.223 338.13 401.713 297.71C398.933 286.48 386.603 279.55 376.203 286.31C373.773 287.89 368.153 294.52 368.153 297.26V344.76H350.153V126.27C350.153 125.66 346.173 122.09 344.703 122.72C315.233 125.03 281.543 119.83 252.593 122.72C250.743 122.9 246.153 124.36 246.153 126.28V344.78H216.153V344.77Z" fill="#76859C"/>
<path d="M216.153 344.77H246.153V126.27C246.153 124.35 250.733 122.89 252.593 122.71C281.543 119.83 315.243 125.03 344.703 122.71C346.163 122.08 350.153 125.65 350.153 126.26V344.76H368.153V297.26C368.153 294.51 373.773 287.89 376.203 286.31C386.603 279.54 398.933 286.48 401.713 297.71C400.233 338.13 405.203 382.29 402.193 422.31C401.113 436.77 387.133 445.42 374.823 436.6C372.973 435.28 368.153 428.94 368.153 427.27V378.77H350.153V395.27C350.153 416.47 323.713 437.96 303.633 439.75C278.493 442 246.153 420.99 246.153 394.27V378.77H216.153V394.27C216.153 421.02 183.723 441.93 158.673 439.75C138.553 438 112.153 416.5 112.153 395.27V378.77H94.153V427.27C94.153 429.8 88.343 436.4 85.683 437.8C73.053 444.45 61.123 435.82 60.113 422.32C57.083 381.97 62.113 337.46 60.583 296.71C65.103 285 76.923 279.27 87.623 287.81C89.753 289.51 94.153 294.7 94.153 297.28V344.78H112.153V126.27C112.153 124.35 116.733 122.89 118.593 122.71C147.543 119.83 181.243 125.03 210.703 122.71C212.163 122.08 216.153 125.65 216.153 126.26V344.76V344.77ZM205.153 133.77H123.153V150.77H205.153V133.77ZM339.153 133.77H257.153V150.77H339.153V133.77ZM205.153 161.77H123.153V229.77C133.743 220.27 146.223 221.8 158.143 227.77C158.373 203.26 185.713 188.45 205.153 204.77V161.77ZM339.153 161.77H257.153V228.77C262.703 226.23 268.273 222.82 274.663 222.69C281.543 222.56 286.783 226.47 293.153 227.76C290.893 203.41 320.933 188.57 339.163 204.76V161.76L339.153 161.77ZM190.153 209.78C179.583 207.18 168.573 215.47 170.153 226.77C182.453 229.39 186.453 219.22 190.153 209.78ZM325.153 209.78C314.533 207.07 303.003 215.26 304.153 226.77C317.333 229.51 319.503 218.56 325.153 209.78ZM205.153 253.77V211.77C197.103 216.12 195.813 227.05 189.503 232.62C184.063 237.42 177.183 238.46 170.153 237.77V252.77C181.823 245.69 193.903 246.42 205.153 253.77ZM339.153 253.77V211.77C326.883 222.59 325.983 241.68 304.153 237.77V252.77C315.593 245.84 328.163 246.24 339.153 253.77ZM158.163 251.77C159.093 240.37 147.873 232.04 137.163 234.78C142.853 243.65 144.773 254.46 158.163 251.77ZM292.163 251.77C293.403 240.23 282.863 232.47 272.163 234.78C276.123 244.29 279.723 254.11 292.163 251.77ZM159.153 262.77C136.913 266.83 135.663 248.05 123.153 236.77V278.77C135.133 270.79 146.593 271.43 159.153 277.77V262.77ZM257.153 236.77V278.77C260.413 277.96 262.893 275.41 266.183 274.3C276.383 270.84 283.823 273.8 293.153 277.77V262.77C285.583 263.28 280.353 262.91 274.243 258.18C266.573 252.24 265.703 241.45 257.153 236.77ZM190.153 258.78C182.813 257.31 172.673 262.3 170.633 269.74C167.863 279.84 178.223 278.07 182.823 273.43C184.113 272.13 190.953 259.54 190.153 258.77V258.78ZM325.153 258.78C317.433 257.31 307.083 261.94 304.623 269.73C301.593 279.27 311.183 277.93 316.683 273.8L325.153 258.78ZM205.153 303.77V260.77C193.613 272.17 191.083 290.52 170.153 287.77V301.77C182.293 296.55 194.073 295.67 205.153 303.77ZM339.153 303.77V261.77C326.893 272.68 325.753 290.89 304.153 287.77V302.77C315.303 295.7 328.553 295.88 339.153 303.77ZM158.033 300.65C162.293 293.92 145.783 279.9 138.163 283.78C136.893 284.99 144.603 297.79 146.233 299.2C148.593 301.24 156.423 303.2 158.033 300.65ZM272.163 283.78C273.793 289.67 279.203 300.71 285.723 301.72C296.533 303.41 291.993 292.79 287.193 288.24C282.963 284.23 277.843 283.22 272.163 283.78ZM123.153 285.77V328.77C134.743 320.31 146.883 321.55 159.153 327.77V312.77C149.493 313.5 141.763 311.47 135.743 303.68C131.303 297.95 129.253 290.18 123.153 285.77ZM293.153 312.77C284.263 313.63 275.913 311.23 270.323 304.1C266.063 298.66 263.823 289.41 257.153 286.77V328.77C268.703 320.5 280.963 321.51 293.153 327.77V312.77ZM84.393 354.53C83.293 353.43 83.243 350.86 83.113 349.31C81.773 333.32 84.373 315.66 82.943 299.48C81.403 292.8 71.993 293.49 71.223 300.33L71.143 422.29C71.403 429.62 80.773 431.57 83.133 424.25L83.183 372.3C83.653 369.8 86.073 367.72 88.603 367.72L374.633 367.8C377.133 368.27 379.213 370.69 379.213 373.22L379.373 425.06C381.743 430.63 389.623 429.79 390.943 424.06L391.173 301.26C391.283 293.84 381.013 292.32 379.373 299.49C377.713 315.75 380.863 334.32 379.163 350.29C378.873 353.03 378.593 355.14 375.473 355.53L89.623 355.81C88.073 355.68 85.503 355.64 84.403 354.53H84.393ZM190.153 308.78C179.813 306.83 169.073 314.69 170.273 325.67C181.393 329.95 187.123 317.4 190.153 308.78ZM325.153 308.78C314.683 306.71 303.003 314.25 304.213 325.72C316.883 329.81 319.893 317.2 325.153 308.78ZM205.153 344.77V310.77C194.943 317.91 195.223 331.81 182.153 336.27C179.173 337.29 170.583 337.35 170.153 337.77C169.833 338.08 170.383 343.42 170.153 344.78H205.153V344.77ZM339.153 344.77V310.77C328.303 319.88 329.063 333.69 313.003 337.12C305.403 338.75 303.023 334.76 304.153 344.77H339.153ZM157.153 344.77C154.913 336.4 146.423 332.43 138.163 333.78C137.423 334.49 142.373 343.82 143.143 344.29C145.723 345.86 153.773 344.17 157.153 344.77ZM291.153 344.77C288.913 336.4 280.423 332.43 272.163 333.78C271.663 334.22 276.313 343.78 277.143 344.29C279.713 345.86 287.773 344.17 291.153 344.77ZM130.153 344.77C131.193 343.86 124.893 336.1 123.173 335.78L123.153 344.78H130.153V344.77ZM264.153 344.77C265.523 343.54 258.923 336.31 257.163 335.78L257.143 344.78H264.143L264.153 344.77ZM159.153 378.77C157.873 377.5 127.753 379.73 123.153 378.77V393.27C123.153 399.94 130.813 412.99 135.813 417.61C166.003 445.52 210.893 417.87 205.153 378.77H170.153C169.373 378.77 172.453 391.7 163.693 390.79C157.053 390.1 159.783 379.39 159.153 378.77ZM293.153 378.77C291.873 377.5 261.753 379.73 257.153 378.77C253.253 410.34 280.683 437.24 312.163 426.28C323.243 422.42 339.153 406.36 339.153 394.27V378.77H304.153C303.373 378.77 306.453 391.7 297.693 390.79C291.053 390.1 293.783 379.39 293.153 378.77Z" fill="white"/>
<path d="M84.3928 354.53C85.4928 355.63 88.0628 355.68 89.6128 355.81L375.463 355.53C378.583 355.15 378.863 353.03 379.153 350.29C380.863 334.31 377.703 315.75 379.363 299.49C381.013 292.32 391.273 293.84 391.163 301.26L390.933 424.06C389.613 429.79 381.723 430.64 379.363 425.06L379.203 373.22C379.203 370.69 377.123 368.26 374.623 367.8L88.5928 367.72C86.0628 367.72 83.6328 369.8 83.1728 372.3L83.1228 424.25C80.7628 431.58 71.3928 429.62 71.1328 422.29L71.2128 300.33C71.9928 293.49 81.4028 292.8 82.9328 299.48C84.3728 315.65 81.7628 333.32 83.1028 349.31C83.2328 350.86 83.2728 353.43 84.3828 354.53H84.3928Z" fill="#175CC8"/>
<path d="M339.153 161.77V204.77C320.933 188.57 290.883 203.41 293.143 227.77C286.773 226.48 281.533 222.56 274.653 222.7C268.273 222.82 262.703 226.24 257.143 228.78V161.78H339.143L339.153 161.77Z" fill="#175CC8"/>
<path d="M205.153 161.77V204.77C185.713 188.45 158.383 203.26 158.143 227.77C146.223 221.8 133.733 220.27 123.153 229.77V161.77H205.153Z" fill="#175CC8"/>
<path d="M159.153 378.77C159.783 379.39 157.053 390.11 163.693 390.79C172.463 391.7 169.373 378.77 170.153 378.77H205.153C210.893 417.87 166.013 445.51 135.813 417.61C130.813 412.99 123.153 399.94 123.153 393.27V378.77C127.753 379.73 157.873 377.5 159.153 378.77ZM139.513 413.42C141.603 415.43 146.763 418.78 149.463 419.97C155.253 422.51 174.073 426.44 174.953 417.12C175.623 409.94 164.333 412.14 159.923 411.51C152.813 410.51 145.833 405.12 142.593 398.84C140.363 394.52 140.173 385.35 132.153 389.27C124.693 392.92 135.583 409.62 139.513 413.42Z" fill="#175CC8"/>
<path d="M293.153 378.77C293.783 379.39 291.053 390.11 297.693 390.79C306.463 391.7 303.373 378.77 304.153 378.77H339.153V394.27C339.153 406.36 323.233 422.42 312.163 426.28C280.683 437.24 253.253 410.34 257.153 378.77C261.753 379.73 291.873 377.5 293.153 378.77ZM266.863 388.96C260.223 390.96 267.153 405.09 269.723 408.7C272.143 412.11 278.993 417.82 282.783 419.64C288.613 422.45 310.263 426.82 309.183 416.3C308.543 410.01 299.053 412.16 294.773 411.65C288.703 410.93 282.233 406.68 278.723 401.7C275.143 396.61 275.063 386.48 266.863 388.96Z" fill="#175CC8"/>
<path d="M205.153 133.77H123.153V150.77H205.153V133.77Z" fill="#175CC8"/>
<path d="M339.153 133.77H257.153V150.77H339.153V133.77Z" fill="#175CC8"/>
<path d="M293.153 312.77V327.77C280.963 321.51 268.703 320.5 257.153 328.77V286.77C263.823 289.4 266.073 298.65 270.323 304.1C275.903 311.24 284.263 313.63 293.153 312.77Z" fill="#175CC8"/>
<path d="M257.153 236.77C265.693 241.45 266.573 252.24 274.243 258.18C280.353 262.91 285.583 263.28 293.153 262.77V277.77C283.823 273.79 276.383 270.84 266.183 274.3C262.893 275.42 260.413 277.96 257.153 278.77V236.77Z" fill="#175CC8"/>
<path d="M123.153 285.77C129.243 290.18 131.303 297.95 135.743 303.68C141.773 311.46 149.493 313.5 159.153 312.77V327.77C146.883 321.55 134.743 320.31 123.153 328.77V285.77Z" fill="#175CC8"/>
<path d="M159.153 262.77V277.77C146.593 271.43 135.133 270.79 123.153 278.77V236.77C135.663 248.05 136.913 266.83 159.153 262.77Z" fill="#175CC8"/>
<path d="M205.153 303.77C194.073 295.67 182.293 296.55 170.153 301.77V287.77C191.083 290.52 193.613 272.17 205.153 260.77V303.77Z" fill="#175CC8"/>
<path d="M205.153 253.77C193.903 246.42 181.823 245.69 170.153 252.77V237.77C177.173 238.46 184.063 237.41 189.503 232.62C195.813 227.05 197.103 216.12 205.153 211.77V253.77Z" fill="#175CC8"/>
<path d="M339.153 303.77C328.553 295.88 315.303 295.7 304.153 302.77V287.77C325.753 290.89 326.893 272.68 339.153 261.77V303.77Z" fill="#175CC8"/>
<path d="M339.153 253.77C328.163 246.24 315.593 245.84 304.153 252.77V237.77C325.983 241.68 326.883 222.59 339.153 211.77V253.77Z" fill="#175CC8"/>
<path d="M205.153 344.77H170.153C170.383 343.41 169.823 338.08 170.153 337.76C170.583 337.34 179.173 337.28 182.153 336.26C195.223 331.8 194.953 317.9 205.153 310.76V344.76V344.77Z" fill="#175CC8"/>
<path d="M339.153 344.77H304.153C303.023 334.76 305.403 338.75 313.003 337.12C329.063 333.68 328.293 319.88 339.153 310.77V344.77Z" fill="#175CC8"/>
<path d="M325.153 258.78L316.683 273.8C311.183 277.93 301.593 279.27 304.623 269.73C307.093 261.95 317.433 257.31 325.153 258.78Z" fill="#175CC8"/>
<path d="M190.153 258.78C190.953 259.54 184.103 272.14 182.823 273.44C178.233 278.08 167.863 279.85 170.633 269.75C172.673 262.3 182.813 257.32 190.153 258.79V258.78Z" fill="#175CC8"/>
<path d="M190.153 209.78C186.453 219.23 182.453 229.4 170.153 226.77C168.573 215.47 179.583 207.18 190.153 209.78Z" fill="#175CC8"/>
<path d="M158.033 300.65C156.423 303.2 148.593 301.24 146.233 299.2C144.603 297.79 136.893 284.99 138.163 283.78C145.783 279.9 162.293 293.92 158.033 300.65Z" fill="#175CC8"/>
<path d="M272.163 283.78C277.843 283.22 282.963 284.23 287.193 288.24C291.993 292.8 296.533 303.41 285.723 301.72C279.203 300.7 273.793 289.66 272.163 283.78Z" fill="#175CC8"/>
<path d="M325.153 308.78C319.893 317.2 316.883 329.81 304.213 325.72C303.003 314.25 314.683 306.72 325.153 308.78Z" fill="#175CC8"/>
<path d="M325.153 209.78C319.503 218.56 317.333 229.51 304.153 226.77C303.003 215.26 314.533 207.07 325.153 209.78Z" fill="#175CC8"/>
<path d="M292.163 251.77C279.713 254.1 276.123 244.28 272.163 234.78C282.863 232.48 293.413 240.24 292.163 251.77Z" fill="#175CC8"/>
<path d="M190.153 308.78C187.123 317.4 181.393 329.95 170.273 325.67C169.073 314.7 179.813 306.84 190.153 308.78Z" fill="#175CC8"/>
<path d="M158.163 251.77C144.763 254.45 142.853 243.64 137.163 234.78C147.873 232.04 159.103 240.37 158.163 251.77Z" fill="#175CC8"/>
<path d="M157.153 344.77C153.773 344.17 145.723 345.85 143.143 344.29C142.373 343.82 137.423 334.49 138.163 333.78C146.423 332.43 154.913 336.4 157.153 344.77Z" fill="#175CC8"/>
<path d="M291.152 344.77C287.772 344.17 279.723 345.85 277.143 344.29C276.313 343.78 271.663 334.23 272.163 333.78C280.423 332.43 288.912 336.4 291.152 344.77Z" fill="#175CC8"/>
<path d="M264.153 344.77H257.153L257.173 335.78C258.933 336.31 265.523 343.54 264.163 344.77H264.153Z" fill="#175CC8"/>
<path d="M130.153 344.77H123.153L123.173 335.78C124.893 336.11 131.203 343.86 130.153 344.77Z" fill="#175CC8"/>
<path d="M139.513 413.42C135.583 409.62 124.693 392.92 132.153 389.27C140.173 385.35 140.363 394.52 142.593 398.84C145.833 405.12 152.803 410.51 159.923 411.51C164.343 412.13 175.633 409.94 174.953 417.12C174.083 426.43 155.253 422.5 149.463 419.97C146.763 418.79 141.593 415.44 139.513 413.42Z" fill="#175CC8"/>
<path d="M266.863 388.96C275.063 386.49 275.143 396.61 278.723 401.7C282.223 406.68 288.703 410.93 294.773 411.65C299.063 412.16 308.543 410 309.183 416.3C310.263 426.82 288.613 422.45 282.783 419.64C278.993 417.82 272.153 412.11 269.723 408.7C267.163 405.09 260.233 390.96 266.863 388.96Z" fill="#175CC8"/>
</svg>
