<svg width="307" height="277" viewBox="0 0 307 277" fill="none" xmlns="http://www.w3.org/2000/svg">
<path d="M10.9801 0.0163673L92.3318 0C103.183 8.9527 112.676 19.8203 122.766 29.7141L123.486 32.6765L123.462 148.71C122.791 154.7 116.989 160.347 110.9 160.699H13.2633C7.28115 160.085 2.46109 156.361 0.677099 150.576C-0.673171 104.675 0.480696 58.4626 0.0960735 12.447C1.03717 6.50585 5.09617 1.56304 10.9883 0.0163673H10.9801ZM85.4086 9.07545H13.9097C11.9375 9.07545 9.41703 12.1197 9.89167 14.2638V146.279C9.6789 150.289 12.9768 151.198 16.3402 151.492C45.4733 154.054 78.3136 149.504 107.839 151.492C109.795 152.024 114.263 149.258 114.263 147.482V38.2249C114.263 38.004 113.371 37.1938 112.88 37.4229C108.985 37.7257 104.288 38.4541 100.483 38.5604C94.7541 38.7159 90.0568 39.3461 86.3252 34.2559C81.6524 27.881 86.5134 16.6206 85.4168 9.07545H85.4086ZM94.615 15.8268C95.3188 18.2818 92.741 27.7337 94.5741 29.0676C95.0733 29.4277 105.196 28.3884 106.898 28.413C107.962 27.6192 107.103 27.5291 106.579 26.8663C104.73 24.5258 98.7804 18.5192 96.4563 16.7352C95.8425 16.2605 95.6788 15.5486 94.615 15.8186V15.8268Z" fill="#76859C"/>
<path d="M194.494 115.403H275.829C286.525 124.176 295.805 134.749 305.642 144.512L307 148.677L306.967 263.483C305.961 269.882 301.083 275.537 294.406 276.085L195.566 276.061C189.576 275.39 183.929 269.588 183.577 263.499L183.602 127.22C184.232 121.639 189.142 116.704 194.494 115.403ZM268.922 124.462H197.415C195.697 124.462 192.505 127.597 192.8 129.667L192.784 261.052C192.694 264.792 195.738 266.904 199.232 266.879C228.84 264.776 262.171 269.596 291.345 266.879C293.162 266.707 297.155 265.75 297.155 263.483V153.317C289.389 152.229 276.369 157.073 270.436 150.879C264.659 144.847 269.593 132.114 268.922 124.471V124.462ZM290.404 144.103C290.682 143.039 289.962 142.875 289.487 142.261C286.607 138.505 281.509 134.7 278.137 131.222C278.219 133.194 276.558 143.325 277.163 144.144C278.121 145.453 288.072 143.317 290.404 144.103Z" fill="#76859C"/>
<path d="M71.2914 198.727V240.152C71.2914 243.736 78.1982 249.931 82.1017 249.595L157.398 249.792C163.069 252.018 161.719 259.064 155.704 259.497C132.111 258.139 106.603 261.257 83.2392 259.505C74.1638 258.826 61.4713 250.725 61.4713 240.765V198.719C57.9033 201.337 49.7607 212.631 46.16 213.793C40.7262 215.544 37.371 210.208 40.8981 205.462C43.7623 201.608 58.828 186.55 62.6906 183.669C65.6366 181.476 67.1997 181.533 70.0802 183.669C73.9019 186.509 89.025 201.632 91.8728 205.462C95.5144 210.356 91.6027 215.388 86.6108 213.801C83.051 212.672 74.8348 201.321 71.2914 198.719V198.727Z" fill="#175CC8"/>
<path d="M238.234 74.1339C239.306 74.4039 239.462 73.6919 240.084 73.2173C243.979 70.2303 250.223 60.6311 254.2 59.6655C259.348 58.4053 261.255 64.5101 258.202 68.6264C255.452 72.3335 240.739 87.0392 237.023 89.8052C234.977 91.3273 232.981 92.162 230.534 90.7463L206.45 66.3432C205.239 61.605 208.725 58.7899 213.259 60.1565C216.033 60.9912 224.83 72.9063 228.422 74.7558V34.5587C228.422 33.9367 226.958 30.5242 226.483 29.7468C224.249 26.1215 220.509 24.3375 216.376 23.8956C193.332 21.4078 166.245 25.5732 142.774 23.8465C138.134 23.511 137.324 17.4962 140.794 15.0657C167.063 14.1164 193.61 14.6974 219.969 14.7711C229.822 16.105 238.234 26.6043 238.234 36.3999V74.142V74.1339Z" fill="#175CC8"/>
<path d="M85.4086 9.0752C86.5052 16.6203 81.6442 27.8808 86.317 34.2557C90.0486 39.354 94.7459 38.7239 100.474 38.5602C104.288 38.4538 108.977 37.7255 112.872 37.4227C113.363 37.1935 114.255 38.0119 114.255 38.2247V147.474C114.255 149.25 109.795 152.024 107.831 151.484C78.3054 149.495 45.4652 154.045 16.3321 151.484C12.9687 151.189 9.67074 150.281 9.88351 146.271V14.2635C9.40887 12.1194 11.9294 9.0752 13.9016 9.0752H85.4086ZM29.1392 51.621C26.0704 54.4279 28.0344 59.9599 32.3062 60.0336L91.8899 60.0499C97.201 59.3462 97.962 51.0236 90.6297 50.1971C72.8961 48.2085 51.6355 51.711 33.5173 50.1643C32.1589 50.1807 30.1212 50.7208 29.1392 51.621ZM31.226 75.4921C25.6039 77.8981 26.7005 84.453 32.9199 85.1977C50.8253 87.3336 72.9043 83.561 91.2516 85.1977C97.3483 84.764 97.6593 76.3268 91.8163 75.4021L31.2178 75.5003L31.226 75.4921ZM31.226 100.656C26.3323 101.908 26.7414 109.126 31.6761 109.764L91.8654 109.748C97.8638 109.134 97.0455 100.836 91.2516 100.517L31.2178 100.664L31.226 100.656ZM30.604 125.82C26.1359 128.415 26.9296 134.29 32.3062 134.912L93.3711 134.577C96.8409 132.228 96.8409 128.349 93.3711 126.009L30.604 125.812V125.82Z" fill="#76859C"/>
<path d="M92.9631 11.857C94.547 11.4428 94.7906 12.5149 95.7044 13.2216C99.1645 15.8775 108.034 24.8201 110.775 28.3046C111.555 29.2914 112.822 29.4255 111.25 30.6072C108.716 30.5707 93.6454 32.118 92.9022 31.5819C90.1731 29.596 94.0109 15.512 92.9631 11.8692V11.857Z" fill="#175CC8"/>
<path d="M277.061 129.092C278.645 128.678 278.888 129.75 279.802 130.457C283.262 133.113 292.132 142.055 294.873 145.54C295.653 146.527 296.92 146.661 295.348 147.843C292.814 147.806 277.743 149.353 277 148.817C274.271 146.831 278.109 132.747 277.061 129.105V129.092Z" fill="#175CC8"/>
<path d="M268.923 124.462C269.594 132.106 264.659 144.839 270.437 150.87C276.37 157.057 289.39 152.212 297.156 153.309V263.475C297.156 265.75 293.171 266.707 291.346 266.871C262.172 269.588 228.84 264.768 199.233 266.871C195.738 266.895 192.694 264.784 192.784 261.044L192.801 129.659C192.514 127.588 195.697 124.454 197.416 124.454H268.923V124.462ZM214.127 166.329C209.307 167.434 210.591 175.535 215.821 175.421C234.43 173.809 256.582 177.524 274.766 175.421C279.913 174.823 280.895 169.447 276.894 166.517L214.127 166.329ZM214.732 190.879C209.257 192.663 210.051 200.061 215.821 200.585C234.438 198.973 256.582 202.688 274.766 200.585C281.378 199.816 280.781 191.059 274.152 190.74L214.732 190.887V190.879ZM277.933 224.309C281.002 221.502 279.038 215.97 274.766 215.896L215.182 215.88C209.871 216.583 209.11 224.906 216.443 225.733C234.176 227.721 255.437 224.219 273.555 225.765C274.913 225.749 276.951 225.209 277.933 224.309ZM214.118 241.199C209.658 243.523 210.28 249.285 215.19 250.316L274.774 250.299C280.822 249.661 281.018 241.788 274.774 241.068L214.127 241.207L214.118 241.199Z" fill="#76859C"/>
<path d="M31.2258 75.4922L91.8243 75.394C97.6591 76.3188 97.3481 84.7641 91.2596 85.1896C72.9041 83.5529 50.8334 87.3337 32.928 85.1896C26.7085 84.4449 25.612 77.89 31.234 75.4841L31.2258 75.4922Z" fill="#175CC8"/>
<path d="M29.1396 51.6213C30.1216 50.7211 32.1675 50.181 33.5178 50.1647C51.6278 51.7113 72.8966 48.2088 90.6301 50.1974C97.9707 51.0239 97.2096 59.3465 91.8904 60.0503L32.3066 60.0339C28.0349 59.9602 26.0708 54.4364 29.1396 51.6213Z" fill="#175CC8"/>
<path d="M31.226 100.657L91.2599 100.509C97.0538 100.828 97.8639 109.126 91.8736 109.74L31.6843 109.757C26.7497 109.118 26.3405 101.909 31.2342 100.648L31.226 100.657Z" fill="#175CC8"/>
<path d="M30.6039 125.821L93.371 126.017C96.8408 128.358 96.8408 132.237 93.371 134.585L32.3061 134.921C26.9296 134.299 26.1358 128.415 30.6039 125.829V125.821Z" fill="#175CC8"/>
<path d="M214.732 190.879L274.152 190.731C280.781 191.059 281.378 199.815 274.766 200.576C256.574 202.679 234.429 198.964 215.82 200.576C210.059 200.052 209.265 192.655 214.732 190.871V190.879Z" fill="#175CC8"/>
<path d="M277.932 224.308C276.95 225.209 274.905 225.749 273.554 225.765C255.444 224.218 234.175 227.721 216.442 225.732C209.101 224.906 209.862 216.583 215.182 215.879L274.765 215.896C279.037 215.969 281.001 221.493 277.932 224.308Z" fill="#175CC8"/>
<path d="M214.126 166.329L276.893 166.517C280.903 169.447 279.913 174.823 274.766 175.42C256.582 177.524 234.429 173.808 215.82 175.42C210.583 175.535 209.306 167.433 214.126 166.329Z" fill="#175CC8"/>
<path d="M214.118 241.199L274.765 241.06C281.009 241.788 280.813 249.653 274.765 250.291L215.182 250.307C210.271 249.284 209.658 243.515 214.11 241.191L214.118 241.199Z" fill="#175CC8"/>
</svg>
