<svg viewBox="0 0 407 243" fill="none" xmlns="http://www.w3.org/2000/svg">
<path d="M344.368 217.115L341.725 210.067C344.332 210.324 345.029 212.086 348.076 211.682C351.417 211.241 356.519 206.543 352.701 205.662C351.27 205.331 348.26 210.948 345.139 207.056C342.496 203.753 346.497 202.431 346.975 199.494C348.076 199.017 348.92 198.907 349.618 198.613C349.544 200.485 355.014 205.918 356.226 205.662C359.419 203.349 355.932 202.027 355.822 199.494C359.089 200.485 363.2 201.513 363.751 196.851C360.704 197.035 358.024 195.787 354.941 195.97C366.431 187.527 378.949 180.662 386.217 167.777C388.31 164.106 391.063 157.351 391.063 153.24V124.606C362.356 151.735 322.856 164.693 284.605 171.889C265.699 175.449 249.694 176.257 230.715 177.468C227.594 166.272 239.231 174.458 240.406 167.777C237.616 167.153 234.863 166.015 232.257 164.877C230.935 164.29 229.357 164.73 229.834 162.491C271.206 159.884 319.516 151.882 355.858 131.251C359.383 129.268 365.954 125.597 368.597 122.844C369.515 121.89 370.322 121.78 369.515 120.201C367.495 116.2 345.066 105.26 339.926 103.058C291.763 82.4635 214.819 77.5077 162.875 80.5546C160.62 78.4929 162.081 75.2297 161.346 74.4955C159.548 72.6968 172.946 77.9849 168.614 77.0304C165.017 76.2228 160.048 77.2874 162.875 80.5546C127.964 83.7483 84.5365 92.522 53.5901 109.152C49.5153 111.354 39.8974 116.824 36.9239 119.797C36.1897 120.532 35.6758 120.605 36.0061 121.927C59.427 138.299 86.5555 148.027 114.418 154.121C149.88 161.903 185.782 163.959 221.904 162.491C221.354 168.328 226.787 172.806 228.072 178.349C164.564 181.8 94.7418 174.054 38.7227 142.594L15.7423 125.487V152.359C15.7423 169.502 34.9783 185.251 48.3406 193.327L49.2217 202.137C44.4127 197.071 41.1455 200.118 36.8872 203.899C20.5146 193.4 2.60023 178.863 0.764746 157.682C-0.777065 140.098 0.434358 116.273 0.764746 98.1753C4.54585 99.2766 5.68386 101.112 9.53838 98.5791C14.1638 95.5322 11.3372 90.5029 12.365 89.4751C12.5486 89.2915 15.8158 88.9244 16.6234 86.7585C16.2563 91.2738 19.6336 108.895 24.9932 108.821C26.0578 108.821 39.5303 98.8361 42.4671 97.1841C80.8288 75.3051 134.205 66.4213 177.889 63.8149C178.734 68.6973 193.968 72.4784 191.508 73.1392C198.776 73.866 190.304 76.4431 190.781 77.0304C191.662 78.1684 200.255 71.6177 201.32 72.3152C205.174 74.8849 182.515 81.3989 185.819 73.9835C184.571 71.8177 182.845 73.6899 181.45 73.1025C177.522 71.4506 178.514 67.1555 177.889 63.8149C178.77 63.7782 184.938 63.8213 185.819 63.7846C202.41 73.4054 182.342 73.8681 186.784 71.225C167.59 71.225 186.59 69.7252 185.819 69.1011C183.469 67.0821 189.71 66.715 189.38 66.9353C187.507 68.1467 182.955 67.1188 184.093 63.8516C230.678 61.9794 268.82 65.3934 313.606 77.9482L314.487 83.2344C312.798 85.0699 307.034 73.8367 304.795 78.4254C304.208 80.5913 314.413 90.4295 316.836 91.0536C317.533 91.2371 318.194 91.2738 318.892 91.2004L317.13 85.9142C317.423 85.5838 323.444 88.6674 325.059 84.5927C325.903 82.3901 319.479 82.6103 318.451 82.3901C315.918 81.8394 317.46 80.8116 317.13 78.9026C318.121 79.1963 319.956 78.7925 321.535 79.3065C342.68 85.8775 363.604 95.1651 381.152 108.748C383.905 109.519 387.172 102.25 388.016 100.047C398.368 73.2126 366.357 52.3982 345.91 42.6334C271.756 7.24515 137.252 7.17174 62.8043 41.7523C46.0279 49.5348 19.4133 65.9074 16.6968 85.9509C9.72193 84.6294 15.4487 79.5634 14.9347 77.5811C14.2005 74.7177 10.3827 77.5811 9.83206 79.49C9.17129 81.6926 9.86877 84.4825 9.64851 86.7952C6.82186 85.9142 4.54585 85.5838 1.7192 86.7952C1.90275 84.1521 0.874875 83.161 1.97617 78.6824C9.35484 48.1031 61.1156 25.0861 88.0239 15.3947C87.8404 17.2669 102.965 20.027 105.021 19.6232C104.657 21.0768 78.9933 24.7557 79.3237 22.9936C79.9477 19.8366 84.8669 18.0011 87.51 20.7176C87.7669 19.286 89.6758 18.9923 89.7493 18.8822C91.0708 16.8264 87.1429 17.4505 88.0239 15.3947C167.684 -8.39321 311.77 -8.83373 380.087 44.4689C420.651 76.1127 402.296 115.062 405.857 160.068C398.809 190.721 370.909 205.845 344.405 217.115H344.368Z" fill="#76849D"/>
<path d="M167.277 225.04C168.892 229.922 180.162 240.274 174.326 227.683C175.904 226.288 182.659 231.354 181.374 225.921C234.273 227.977 290.659 222.911 339.96 203.014L340.841 209.181C334.968 206.905 328.837 210.356 330.636 217.184C331.076 218.909 333.646 219.276 333.793 221.516C332.251 222.066 331.113 222.103 330.269 222.397C327.515 221.259 330.085 217.624 328.507 216.633C327.515 216.046 326.488 217 325.57 216.817C324.432 216.597 321.752 213.586 321.495 217.441C321.238 221.295 323.331 223.204 326.745 224.159C276.048 241.082 222.195 244.863 169.039 240.898C168.599 238.329 173.958 237.668 173.444 235.172C172.674 231.427 167.571 238.255 164.597 236.089C160.743 233.3 169.039 227.573 165.075 226.765C161.734 226.068 158.871 234.548 160.229 237.338C159.935 237.668 151.969 234.915 152.3 239.1C116.618 235.135 82.2941 228.307 50.0996 211.788C50.6503 210.172 51.6781 207.419 51.6414 205.841C51.6414 204.189 49.7325 203.822 50.0996 202.096C50.4667 201.692 59.9011 205.841 58.91 199.453C88.9019 213.917 134.092 222.617 167.277 225.003V225.04Z" fill="#76849D"/>
<path d="M347.011 199.496C346.534 202.433 342.532 203.754 345.176 207.058C348.296 210.95 351.306 205.333 352.738 205.663C356.519 206.508 351.453 211.243 348.112 211.684C345.065 212.088 344.331 210.325 341.762 210.069L344.405 217.117C340.66 218.732 337.944 220.017 333.832 221.522C333.685 219.319 331.116 218.916 330.675 217.19C328.84 210.362 335.007 206.875 340.881 209.187L340 203.02C341.872 202.249 344.625 200.561 347.048 199.496H347.011Z" fill="#76849D"/>
<path d="M16.6243 85.835C16.5875 86.1287 16.6243 86.4224 16.6243 86.716C15.8166 88.8819 12.5495 89.249 12.3659 89.4326C11.3748 90.4604 14.2014 95.4897 9.53926 98.5366C5.68474 101.07 4.54673 99.2341 0.765625 98.1328C0.839045 94.1314 1.38969 90.4237 1.64666 86.6793C4.47331 85.4679 6.74932 85.7983 9.57597 86.6793C9.79623 84.3666 9.13546 81.5767 9.75952 79.3741C10.3469 77.4285 14.128 74.5651 14.8622 77.4652C15.3761 79.4475 9.64939 84.4767 16.6243 85.835Z" fill="#76849D"/>
<path d="M58.9145 199.495C59.9057 205.883 50.4713 201.735 50.1042 202.138C49.7371 203.901 51.6093 204.231 51.646 205.883C51.646 207.425 50.6181 210.215 50.1042 211.83C45.1117 209.26 41.404 206.801 36.8887 203.901C41.147 200.119 44.4142 197.073 49.2232 202.138L48.3421 193.328C50.9852 194.943 56.6018 198.394 58.9145 199.495Z" fill="#76849D"/>
<path d="M152.299 239.141C151.969 234.956 159.935 237.709 160.228 237.379C158.87 234.589 161.733 226.145 165.074 226.806C169.039 227.614 160.742 233.341 164.597 236.131C167.57 238.296 172.673 231.432 173.444 235.213C173.958 237.672 168.598 238.37 169.039 240.94C167.093 240.793 165.294 240.132 164.634 240.058L163.349 239.177L162.871 240.058C159.311 239.728 155.86 239.581 152.299 239.177V239.141ZM157.145 238.26V239.141C157.732 238.847 157.732 238.553 157.145 238.26Z" fill="#76849D"/>
<path d="M330.271 222.401C329.941 222.511 328.766 223.502 326.747 224.163C323.333 223.209 321.241 221.336 321.498 217.445C321.755 213.554 324.435 216.564 325.573 216.821C326.49 217.005 327.518 216.05 328.509 216.638C330.088 217.592 327.518 221.226 330.271 222.401Z" fill="#76849D"/>
<path d="M164.633 240.01C164.046 239.973 163.458 240.047 162.871 240.01L163.348 239.129L164.633 240.01Z" fill="#76849D"/>
<path d="M354.937 195.961C350.788 196.182 350.935 198.054 349.65 198.605C348.953 198.898 348.109 199.008 347.007 199.486C344.584 200.55 341.831 202.239 339.959 203.01C290.658 222.906 234.272 227.972 181.373 225.917C177.004 225.733 171.828 225.366 167.276 225.036C134.091 222.649 88.9009 213.949 58.909 199.486C56.5963 198.384 50.9797 194.934 48.3366 193.318C34.9742 185.242 15.7383 169.494 15.7383 152.35V125.479L38.7186 142.585C94.7377 174.046 164.56 181.791 228.068 178.341C229.096 178.267 230.16 177.496 230.711 177.46C249.726 176.285 265.695 175.477 284.601 171.88C322.852 164.685 362.352 151.726 391.059 124.598V153.231C391.059 157.343 388.306 164.097 386.213 167.768C378.945 180.653 366.427 187.518 354.937 195.961Z" fill="#76849D"/>
<path d="M229.828 162.484C228.36 162.557 226.892 162.41 225.423 162.484C225.129 162.484 224.836 162.484 224.542 162.484C223.661 162.521 222.78 162.484 221.899 162.484C185.777 163.952 149.874 161.896 114.413 154.114C86.5867 148.02 59.4215 138.292 36.0007 121.92C35.6703 120.598 36.1842 120.525 36.9184 119.79C39.8919 116.817 49.5099 111.347 53.5847 109.145C84.4943 92.4783 127.959 83.7046 162.87 80.5476C167.532 80.1071 173.038 79.9602 177.847 79.6666C229.792 76.6197 291.758 82.4565 339.921 103.051C345.06 105.253 367.527 116.193 369.509 120.194C370.317 121.773 369.509 121.883 368.591 122.837C365.948 125.554 359.34 129.225 355.853 131.244C319.51 151.911 271.237 159.914 229.828 162.484ZM193.522 86.9718C156.592 91.4504 159.346 131.978 196.826 134.291C215.438 135.429 242.493 121.332 229.351 100.04C222.413 88.8073 205.894 85.5034 193.559 87.0085L193.522 86.9718ZM292.382 98.1683C279.203 92.2213 259.6 93.3593 251.12 106.685C242.64 120.011 255.342 134.805 268.594 136.053C269.328 136.126 270.539 136.163 271.237 136.053C288.197 140.605 313.894 126.729 302.954 106.979C300.164 101.949 297.338 100.408 292.382 98.1683ZM147.598 109.034C134.97 92.8087 100.059 93.2859 89.0096 111.09C72.7472 137.228 120.396 155.546 143.413 137.301C152.187 130.363 154.683 118.175 147.598 109.034Z" fill="#0E5BCA"/>
<path d="M224.545 162.49C224.178 164.986 225.794 164.986 225.426 162.49C226.895 162.417 228.363 162.563 229.832 162.49C229.354 164.766 230.933 164.289 232.254 164.876C234.861 166.051 237.614 167.152 240.404 167.776C239.229 174.457 227.592 166.271 230.713 177.468C230.162 177.468 229.097 178.275 228.07 178.349C226.785 172.805 221.352 168.327 221.902 162.49C222.783 162.49 223.664 162.527 224.545 162.49Z" fill="#76849D"/>
<path d="M317.056 78.7948C317.387 80.7037 315.845 81.7316 318.378 82.2822C319.369 82.5025 325.83 82.2822 324.985 84.4848C323.37 88.5963 317.387 85.5127 317.056 85.8064L318.818 91.0926C318.121 91.166 317.46 91.0926 316.762 90.9457C314.34 90.3584 304.134 80.4834 304.722 78.3176C306.961 73.7656 312.724 84.9988 314.413 83.1266L313.532 77.8403C314.633 78.134 315.698 78.3176 317.056 78.7214V78.7948Z" fill="#76849D"/>
<path d="M354.941 195.966C358.024 195.819 360.704 197.03 363.751 196.847C363.201 201.509 359.089 200.481 355.822 199.49C355.932 202.023 359.419 203.344 356.226 205.657C355.014 205.914 349.545 200.481 349.618 198.609C350.903 198.058 350.756 196.186 354.904 195.966H354.941Z" fill="#76849D"/>
<path d="M181.376 225.916C182.661 231.386 175.906 226.283 174.328 227.678C180.164 240.27 168.895 229.881 167.279 225.035C171.831 225.366 177.007 225.733 181.376 225.916Z" fill="#76849D"/>
<path d="M157.148 238.254C157.736 238.548 157.736 238.841 157.148 239.135V238.254Z" fill="#1F1F1D"/>
<path d="M193.524 86.9672C205.859 85.4621 222.378 88.7659 229.316 99.9991C242.458 121.291 215.403 135.424 196.791 134.249C159.347 131.937 156.594 91.409 193.488 86.9305L193.524 86.9672ZM195.286 102.789C177.115 105.249 181.557 117.4 197.709 118.391C202.481 118.684 219.515 115.858 216.211 108.736C213.568 103.009 200.756 102.055 195.286 102.789Z" fill="#F8F8F8"/>
<path d="M147.602 109.035C154.687 118.139 152.19 130.326 143.417 137.301C120.4 155.546 72.7871 137.228 89.0129 111.09C100.063 93.3229 134.937 92.809 147.602 109.035ZM132.037 115.789C125.98 112.045 105.863 111.935 102.706 119.57C101.201 123.278 107.074 127.169 110.011 128.124C110.818 130.4 116.031 141.927 117.5 142.22C121.758 143.101 117.94 136.971 118.014 136.604C118.16 135.686 121.685 132.456 122.749 132.492C124.034 132.492 126.457 135.943 127.595 132.933C128.292 131.061 124.952 129.152 124.071 128.968C128.88 126.619 136.368 126.435 135.524 119.277C142.279 120.892 148.189 114.908 143.967 108.631C138.938 101.252 129.908 107.787 132 115.753L132.037 115.789Z" fill="#F8F8F8"/>
<path d="M292.386 98.1728C289.009 105.184 296.644 110.177 302.958 106.983C313.898 126.733 288.201 140.609 271.241 136.057C271.975 135.947 275.059 134.479 275.72 133.928C279.17 130.991 276.16 128.018 274.802 129.009C274.251 129.413 273.774 133.965 269.516 132.533C281.63 122.475 264.229 119.575 263.348 128.642C263.202 129.963 263.862 131.542 264.67 132.57C266.285 134.626 268.965 133.488 268.635 136.094C255.382 134.846 242.901 119.685 251.161 106.726C259.42 93.7676 279.244 92.2992 292.423 98.2095L292.386 98.1728ZM289.706 103.532C289.412 103.239 282.805 101.293 283.098 105.221C283.502 110.691 285.631 108.598 287.944 110.103C290.624 111.866 291.505 115.647 295.91 113.554C296.681 113.187 297.856 111.902 297.672 110.948C297.305 109.112 294.442 110.617 292.826 109.7C289.559 107.864 289.926 103.789 289.669 103.532H289.706ZM272.783 110.728C270.911 111.058 264.633 113.664 264.229 115.463C266.432 123.392 288.678 122.108 289.669 116.124C290.514 111.168 276.123 110.177 272.783 110.728Z" fill="#F8F8F8"/>
<path d="M268.6 136.05C268.967 133.444 266.25 134.582 264.635 132.526C263.827 131.498 263.167 129.919 263.314 128.598C264.195 119.531 281.595 122.431 269.481 132.489C273.739 133.957 274.216 129.369 274.767 128.965C276.125 127.974 279.172 130.947 275.685 133.884C275.061 134.435 271.94 135.903 271.206 136.013C270.472 136.123 269.297 136.087 268.563 136.013L268.6 136.05Z" fill="#F8F8F8"/>
<path d="M302.957 106.982C296.643 110.176 289.008 105.183 292.385 98.1719C297.341 100.411 300.167 101.953 302.957 106.982Z" fill="#F8F8F8"/>
<path d="M225.424 162.484C225.791 164.981 224.176 164.981 224.543 162.484C224.837 162.484 225.13 162.484 225.424 162.484Z" fill="#76849D"/>
<path d="M195.287 102.801C200.757 102.066 213.532 103.021 216.212 108.747C219.516 115.869 202.482 118.696 197.71 118.402C181.558 117.374 177.116 105.223 195.287 102.801Z" fill="#0E5BCA"/>
<path d="M132.039 115.787C132.773 116.228 133.764 118.871 135.563 119.311C136.407 126.47 128.918 126.653 124.109 129.003C119.998 128.268 114.491 129.553 110.013 128.122C107.076 127.167 101.202 123.276 102.707 119.568C105.864 111.933 125.945 112.043 132.039 115.787Z" fill="#0E5BCA"/>
<path d="M135.559 119.31C133.76 118.87 132.769 116.227 132.035 115.786C129.906 107.82 138.973 101.286 144.002 108.664C148.261 114.905 142.314 120.889 135.559 119.31Z" fill="#F8F8F8"/>
<path d="M124.111 129.012C124.992 129.159 128.332 131.105 127.635 132.977C126.497 135.987 124.074 132.536 122.789 132.536C121.724 132.536 118.2 135.73 118.054 136.648C117.98 136.978 121.798 143.146 117.54 142.265C116.071 141.971 110.858 130.444 110.051 128.168C114.529 129.6 120.036 128.315 124.147 129.049L124.111 129.012Z" fill="#F8F8F8"/>
<path d="M272.786 110.723C276.126 110.135 290.517 111.163 289.672 116.119C288.681 122.103 266.435 123.388 264.232 115.458C264.6 113.659 270.914 111.053 272.786 110.723Z" fill="#0E5BCA"/>
<path d="M289.706 103.528C289.963 103.785 289.595 107.86 292.863 109.695C294.478 110.613 297.341 109.108 297.708 110.943C297.892 111.898 296.717 113.219 295.946 113.55C291.541 115.642 290.66 111.861 287.98 110.099C285.667 108.594 283.538 110.686 283.135 105.217C282.841 101.252 289.449 103.234 289.742 103.528H289.706Z" fill="#F8F8F8"/>
</svg>
