<svg viewBox="0 0 317 305" fill="none" xmlns="http://www.w3.org/2000/svg">
<path d="M11.393 281.907C5.05385 280.776 -0.47509 273.119 0.0323978 266.655L0.709048 35.7574C3.85191 22.8565 28.8791 23.6489 39.3849 25.0913C46.5432 26.0795 46.3295 37.8942 58.0373 39.7016C93.054 37.3867 132.611 43.0759 167.085 39.8351C174.777 39.1139 176.781 37.3511 181.588 31.7242C184.295 28.5635 182.39 25.7857 188.239 25.0735C198.104 23.8715 224.475 22.91 227.28 35.4102L227.583 153.432C159.339 155.792 131.757 238.957 184.989 281.898H11.393V281.907ZM16.3788 85.3487C13.2805 88.4026 15.3995 92.1776 17.3849 94.9999C18.4711 96.5402 31.0693 109.156 32.0308 109.601C35.1826 111.053 37.8625 110.687 40.7293 109.031C42.4833 108.017 68.3028 82.1881 69.3178 80.443C73.2174 73.7121 68.7391 66.2868 61.2959 69.7413C56.4971 71.9671 39.7144 93.6733 36.4825 94.2431C30.6597 91.8659 23.8042 78.0302 16.3788 85.3487ZM208.271 69.0646H89.8755C85.5307 69.0646 85.5396 82.3661 89.8755 82.3661H208.271C213.551 82.3661 214.958 70.1686 208.271 69.0646ZM89.8755 110.296H209.598C212.972 110.296 217.442 98.2407 203.01 96.9319C168.011 93.7534 128.142 99.3625 92.6177 97.0833C84.8808 96.5135 84.7828 108.871 89.8666 110.296H89.8755ZM68.935 141.226C68.107 140.38 65.7921 139.632 64.608 139.703C57.8415 140.086 43.0798 160.475 36.4914 164.748C32.387 165.469 26.3149 149.39 17.9458 155.444C16.2987 156.637 14.3667 160.519 14.9009 162.576C15.2214 163.805 31.1227 180 32.6095 180.881C34.5148 182.012 35.3428 182.617 37.7111 181.949C42.7148 180.543 63.4773 154.483 69.9232 150.183C71.1964 147.885 70.68 143.006 68.935 141.226ZM91.5048 139.864C84.124 141.466 84.7917 151.616 91.2466 152.836C100.889 151.349 149.109 155.435 153.863 151.669C158.297 148.161 156.383 140.692 149.652 139.659C141.657 138.43 98.7699 138.288 91.5048 139.864ZM91.4959 167.784C83.3939 169.663 83.6165 179.786 91.2377 182.101C101.646 180.365 148.085 185.003 153.828 180.899C159.82 176.616 156.49 168.657 149.661 167.58C132.691 164.917 109.178 169.147 91.4959 167.784ZM91.4959 210.36C83.109 212.31 84.0349 223.296 91.2377 224.676C96.4194 225.674 131.151 225.647 136.404 224.676C144.417 223.189 145.174 211.811 135.033 210.155C129.166 209.194 96.8023 209.131 91.4959 210.36ZM60.8953 211.66C56.2923 213.058 39.6966 234.684 36.4914 235.245C31.3364 233.633 27.6682 224.81 22.0502 224.801C16.8774 224.792 13.7257 230.294 15.7022 234.969C16.3788 236.562 30.6864 251.324 32.0397 251.947C34.6128 253.131 37.4084 253.131 39.9815 251.947C41.9046 251.066 69.0151 223.946 69.9054 222.023C73.1017 215.079 68.3028 209.407 60.9042 211.66H60.8953ZM140.767 240.987C139.28 239.509 135.906 239.465 133.831 239.287C125.569 238.583 98.4227 237.978 91.2288 239.367C84.0349 240.756 83.9459 251.199 91.2288 252.615C98.0843 253.95 127.332 253.47 135.122 252.642C141.995 251.911 145.281 245.483 140.758 240.987H140.767Z" fill="#76849D"/>
<path d="M208.27 69.0684C214.957 70.1724 213.55 82.3699 208.27 82.3699H89.8744C85.5385 82.3699 85.5296 69.0684 89.8744 69.0684H208.27Z" fill="white"/>
<path d="M89.8746 110.301C84.7819 108.876 84.8887 96.5097 92.6257 97.0884C128.141 99.3677 168.019 93.7586 203.018 96.9371C217.45 98.2458 212.98 110.301 209.606 110.301H89.8746Z" fill="white"/>
<path d="M91.4941 167.789C109.176 169.16 132.69 164.922 149.659 167.584C156.497 168.661 159.818 176.621 153.826 180.903C148.083 185.008 101.644 180.378 91.2359 182.105C83.6146 179.79 83.3921 169.667 91.4941 167.789Z" fill="white"/>
<path d="M60.895 211.663C68.3026 209.411 73.1014 215.082 69.8962 222.027C69.0148 223.95 41.8954 251.069 39.9723 251.951C37.3992 253.135 34.6036 253.135 32.0305 251.951C30.6772 251.328 16.3697 236.566 15.693 234.972C13.7076 230.298 16.8682 224.796 22.0411 224.805C27.659 224.822 31.3361 233.646 36.4822 235.248C39.6874 234.687 56.2831 213.061 60.8861 211.663H60.895Z" fill="white"/>
<path d="M16.3802 85.3487C23.8055 78.0302 30.661 91.866 36.4838 94.2431C39.7246 93.6822 56.4984 71.976 61.2973 69.7413C68.7404 66.2868 73.2188 73.7121 69.3191 80.443C68.3041 82.1881 42.4757 108.025 40.7307 109.031C37.8549 110.688 35.1839 111.053 32.0321 109.601C31.0706 109.156 18.4724 96.5402 17.3862 94.9999C15.4008 92.1776 13.2818 88.4026 16.3802 85.3487Z" fill="white"/>
<path d="M68.9372 141.23C70.6823 143.002 71.1986 147.881 69.9255 150.187C63.4795 154.487 42.717 180.547 37.7134 181.954C35.3451 182.622 34.5082 182.016 32.6118 180.886C31.1249 180.004 15.2237 163.809 14.9031 162.58C14.3689 160.524 16.301 156.642 17.9481 155.449C26.3083 149.395 32.3803 165.474 36.4936 164.753C43.091 160.479 57.8437 140.1 64.6102 139.708C65.7943 139.637 68.1092 140.384 68.9372 141.23Z" fill="white"/>
<path d="M91.5061 139.869C98.7712 138.293 141.658 138.436 149.654 139.664C156.384 140.697 158.29 148.167 153.865 151.675C149.119 155.441 100.899 151.345 91.2479 152.841C84.793 151.63 84.1253 141.472 91.5061 139.869Z" fill="white"/>
<path d="M91.4955 210.362C96.8018 209.133 129.165 209.196 135.033 210.157C145.173 211.813 144.426 223.192 136.404 224.679C131.142 225.658 96.419 225.685 91.2373 224.679C84.0345 223.29 83.1086 212.303 91.4955 210.362Z" fill="white"/>
<path d="M140.767 240.991C145.29 245.488 142.004 251.916 135.131 252.646C127.341 253.474 98.0933 253.955 91.2378 252.619C83.9549 251.204 83.9282 240.787 91.2378 239.371C98.5474 237.955 125.569 238.588 133.84 239.291C135.915 239.469 139.289 239.514 140.776 240.991H140.767Z" fill="white"/>
<circle cx="218.972" cy="206.972" r="93.2554" fill="#0E5BCA" stroke="white" stroke-width="9.43328"/>
<path d="M228.27 179.501C257.799 176.889 270.623 214.478 246.737 230.169C226.765 243.28 200.831 226.718 204.027 203.191C205.666 191.085 215.969 180.597 228.281 179.511L228.27 179.501ZM230.944 183.7C215.847 183.956 205.133 198.664 208.974 213.157C213.235 229.237 233.443 235.874 246.266 225.028C263.197 210.709 252.965 183.321 230.944 183.7Z" fill="white"/>
<path d="M217.119 174.117C208.658 182.137 197.218 185.599 188.276 192.595C175.176 202.837 178.034 214.841 190.734 223.526C191.523 224.069 196.286 226.671 196.368 226.988C196.45 227.306 196.173 227.419 195.968 227.562C195.302 228.054 191.625 230.184 190.949 230.42C190.519 230.573 190.417 230.583 189.976 230.44C189.259 230.215 186.986 228.576 186.217 228.043C170.526 217.043 168.58 200.235 184.108 187.924C193.684 180.334 216.033 172.929 218.43 160.3C218.85 158.068 218.215 154.534 221.349 154.114C226.204 153.459 224.995 160.341 224.217 163.138C222.988 167.542 220.386 171.024 217.129 174.117H217.119Z" fill="white"/>
<path d="M210 228.239C210.338 228.618 210.983 228.802 210.871 229.324C205.319 232.633 199.43 235.429 193.93 238.809C187.979 242.476 181.035 247.341 179.969 254.838C179.703 256.702 180.256 259.509 177.696 260.185C172.585 261.537 173.394 255.145 174.07 252.144C177.306 237.856 195.497 231.373 206.61 224.439C206.743 224.388 206.825 224.449 206.937 224.521C207.173 224.674 209.478 227.665 210 228.249V228.239Z" fill="white"/>
<path d="M266.33 238.27C270.468 242.685 274.493 247.232 278.672 251.616C281.325 255.774 276.48 259.861 272.803 256.747L249.584 231.787C249.072 230.978 250.557 230.527 251.182 229.953C251.755 229.421 254.572 226.338 254.951 226.399C258.802 230.291 262.571 234.286 266.32 238.27H266.33Z" fill="white"/>
<path d="M196.37 177.462C195.079 177.769 191.136 180.78 190.153 180.627C189.487 180.524 184.571 176.929 183.71 176.233C179.685 172.976 175.813 168.53 174.369 163.45C173.591 160.695 172.136 154.222 176.582 154.089C180.187 153.976 179.603 157.295 179.972 159.568C181.078 166.431 186.404 170.651 191.822 174.266C192.928 175.004 195.305 176.1 196.114 176.847C196.339 177.052 196.452 177.093 196.37 177.452V177.462Z" fill="white"/>
<path d="M224.057 259.48C222.756 260.78 220.657 260.514 219.458 259.203C218.26 257.892 218.926 257.216 218.7 255.782C217.246 246.369 209.769 241.873 202.169 237.459L202.016 236.946C203.398 236.731 207.434 233.577 208.468 233.792C209.011 233.904 213.272 236.998 214.03 237.581C218.639 241.146 222.746 245.673 224.252 251.45C224.774 253.426 225.583 257.943 224.047 259.48H224.057Z" fill="white"/>
<path d="M216.28 255.627H182.357V258.331H216.28V255.627Z" fill="white"/>
<path d="M216.034 158.778H182.357V156.074H215.911C216.598 156.074 216.137 158.317 216.034 158.778Z" fill="white"/>
<path d="M214.561 251.204H183.834C184.111 250.416 185.114 248.664 185.934 248.511L212.492 248.49C213.445 248.603 214.284 250.293 214.571 251.204H214.561Z" fill="white"/>
<path d="M214.554 163.202C214.841 163.478 213.192 166.1 212.475 165.916L185.917 165.895C185.241 165.762 183.981 163.99 184.073 163.191H214.554V163.202Z" fill="white"/>
<path d="M201.285 205.977H182.357V208.435H201.285V205.977Z" fill="white"/>
<path d="M202.018 213.102C202.1 213.194 202.172 215.13 202.51 215.56H185.426C185.282 215.56 183.9 213.532 184.074 213.102H202.018Z" fill="white"/>
<path d="M202.264 198.85C202.356 198.942 201.895 201.308 201.773 201.308H184.074C183.9 200.878 185.282 198.85 185.426 198.85H202.264Z" fill="white"/>
<path d="M207.674 244.077H190.713C191.358 243.401 193.714 241.536 194.533 241.383C195.537 241.198 203.168 241.209 204.048 241.434C204.929 241.659 207.101 243.319 207.674 244.077Z" fill="white"/>
<path d="M207.67 170.332C207.804 170.906 207.558 170.742 207.363 170.895C206.882 171.274 204.495 172.882 204.055 172.985C203.194 173.179 194.755 173.149 194.161 172.903C193.751 172.739 191.703 171.264 191.272 170.895C191.098 170.742 190.811 170.906 190.955 170.332H207.67Z" fill="white"/>
<path d="M204.107 219.988C204.23 220.029 205.357 221.904 205.429 222.108C205.562 222.467 204.947 222.692 204.845 222.692H194.029C193.834 222.692 191.1 220.828 190.782 220.552C190.608 220.398 190.321 220.562 190.465 219.988H204.107Z" fill="white"/>
<path d="M204.604 191.713C204.788 191.744 205.29 191.939 205.188 192.287C205.126 192.512 203.989 194.417 203.866 194.417H190.47C190.336 193.844 190.582 194.008 190.777 193.854C191.135 193.567 193.839 191.713 194.034 191.713C197.055 191.713 201.828 191.304 204.604 191.713Z" fill="white"/>
<path d="M202.02 187.539C201.794 187.242 202.235 186.986 202.429 186.842C202.829 186.535 207.561 183.944 207.858 183.892C208.626 183.77 209.835 184.65 210.367 185.234C210.439 185.664 206.618 189.116 206.045 189.731L202.02 187.539Z" fill="white"/>
<path d="M218.734 200.809C217.965 198.495 216.071 196.856 214.831 194.828C214.882 194.254 217.535 191.356 218.16 191.253C218.447 191.212 218.559 191.417 218.744 191.571C219.645 192.339 221.837 195.514 222.523 196.641C227.778 205.357 228.146 216.941 222.749 225.606C222.021 225.821 219.184 223.793 218.467 223.261C219.154 221.1 220.669 219.143 220.7 216.777H213.203C212.332 215.2 211.554 213.438 211.359 211.615H221.438C221.581 210.949 221.171 205.961 220.577 205.961H210.867C210.765 204.21 211.175 202.479 211.605 200.799H218.734V200.809Z" fill="white"/>
<path d="M230.534 227.853C231.353 225.948 232.429 224.217 233.176 222.261C237.161 211.773 235.338 200.619 228.67 191.739C228.158 191.052 225.187 187.918 225.126 187.662C225.054 187.334 225.3 187.222 225.546 187.099C226.365 186.699 230.483 186.034 231.169 186.535C231.517 186.791 233.064 188.901 233.443 189.424C240.305 198.939 242.2 210.902 238.718 222.138C238.39 223.183 237.202 226.767 236.341 227.136C235.686 227.423 230.841 228.119 230.544 227.843L230.534 227.853Z" fill="white"/>
<rect x="59" width="109" height="30" rx="15" fill="#76849D"/>
</svg>
