<svg viewBox="0 0 225 204" fill="none" xmlns="http://www.w3.org/2000/svg">
<g clip-path="url(#clip0_938_375)">
<path d="M71.9435 69.1409H94.6406V13.0465C94.6406 12.7936 92.948 10.5369 92.734 9.1102C91.9494 3.90931 95.1075 0.848441 100.12 0.368559C104.686 -0.0724142 123.304 -0.279931 127.085 0.705774C131.228 1.78875 132.947 5.61484 132.104 9.66142C131.87 10.7638 130.308 12.7871 130.308 13.0465V69.1409H153.005V13.0465C153.005 12.6899 151.338 11.0686 151.092 9.77166C150.041 4.2141 153.134 0.874381 158.491 0.375044C163.154 -0.0594444 181.571 -0.299386 185.449 0.705774C189.327 1.71093 191.324 5.99096 190.481 9.6679C190.189 10.9325 188.672 12.2359 188.672 12.398V69.1409H206.181V44.174C206.181 40.3415 218.055 40.9251 220.785 41.2429C223.191 41.5217 224.553 42.3323 224.948 44.8614L225.006 199.176C224.831 201.621 223.47 203.715 220.817 203.417H4.13736C2.10759 203.644 0.95328 202.6 0.252911 200.817L0 44.8614C0.395579 42.3323 1.75741 41.5217 4.1633 41.2429C6.89345 40.9251 18.7673 40.335 18.7673 44.174V69.1409H36.2765V12.398C36.2765 12.2359 34.7526 10.9325 34.4672 9.6679C33.6242 5.99096 35.7448 1.67851 39.4995 0.705774C43.2543 -0.266961 61.7881 -0.0594444 66.4572 0.375044C71.8138 0.874381 74.9135 4.22059 73.8565 9.77166C73.6101 11.0686 71.9435 12.6834 71.9435 13.0465V69.1409ZM40.1675 6.23739C39.9535 7.08691 40.2907 9.47984 41.1402 9.47984H67.7283C68.9474 9.47984 68.9474 6.23739 67.7283 6.23739H40.1675ZM98.8558 6.23739L97.883 7.85213C98.525 8.66923 99.0827 9.25935 100.166 9.46687C103.843 10.1737 119.361 9.94027 123.531 9.52523C125.146 9.36311 126.053 9.38905 127.059 7.85862C127.305 7.3074 126.287 6.24388 126.086 6.24388H98.8493L98.8558 6.23739ZM184.781 6.23739H157.22C156.001 6.23739 156.001 9.47984 157.22 9.47984H183.808C184.657 9.47984 184.995 7.08691 184.781 6.23739ZM42.1129 69.7894H65.7828C65.8541 69.7894 66.7555 68.888 66.7555 68.8167V15.6405C66.7555 15.5692 65.8541 14.6678 65.7828 14.6678H42.1129V69.7894ZM124.471 14.6678H100.477V69.7894C101.035 70.0618 102.422 69.2382 102.422 68.8167V59.0893C102.422 57.4551 106.236 58.7715 107.26 58.7975C112.338 58.9337 117.454 58.6354 122.526 58.7651V68.8167C122.526 69.2382 123.913 70.0618 124.471 69.7894V14.6678ZM182.835 14.6678H159.165C159.094 14.6678 158.193 15.5692 158.193 15.6405V68.8167C158.193 68.888 159.094 69.7894 159.165 69.7894H182.835V14.6678ZM36.2765 87.9471H18.7673V185.221H48.5978L41.1856 179.987C38.9288 177.549 36.2765 171.946 36.2765 168.684V87.9471ZM66.7555 87.9471H42.1129V170.63C42.1129 173.353 46.6783 178.029 49.2528 179.06C59.1487 183.016 66.9306 175.312 66.7815 165.468L66.7555 87.9471ZM94.6406 87.9471H71.9435V170.63C71.9435 173.71 68.072 179.767 65.4002 181.596L59.6221 185.221H106.962L99.193 179.695C97.2994 177.504 94.6406 172.141 94.6406 169.333V87.9471ZM102.422 87.9471H100.477V171.278C100.477 171.518 102.442 175.02 102.779 175.461C107.494 181.563 117.448 181.563 122.162 175.461C122.5 175.02 124.465 171.518 124.465 171.278V87.9471H122.519V169.981C122.519 173.853 116.294 178.139 112.468 178.139C108.641 178.139 102.416 173.853 102.416 169.981V87.9471H102.422ZM153.005 87.9471H130.308V169.333C130.308 172.147 127.649 177.497 125.755 179.695C123.349 182.49 120.639 183.068 117.986 185.221H165.326L159.548 181.596C156.883 179.767 153.005 173.71 153.005 170.63V87.9471ZM182.835 87.9471H158.193V168.036C158.193 168.25 158.997 171.816 159.152 172.264C161.85 180.136 172.81 182.464 178.905 177.076C180.008 176.103 182.835 171.836 182.835 170.63V87.9471ZM206.181 87.9471H188.672V168.036C188.672 171.881 186 178.003 183.159 180.681C181.227 182.503 178.114 183.295 176.35 185.221H206.181V87.9471Z" fill="#76849D"/>
<path d="M153.005 87.9492V170.632C153.005 173.712 156.876 179.769 159.548 181.598L165.326 185.223H117.986C120.639 183.07 123.343 182.493 125.755 179.698C127.649 177.499 130.308 172.149 130.308 169.335V87.9492H153.005Z" fill="#FBFBFB"/>
<path d="M94.6395 87.9492V169.335C94.6395 172.143 97.2984 177.499 99.1919 179.698L106.961 185.223H59.6211L65.3991 181.598C68.0644 179.769 71.9424 173.712 71.9424 170.632V87.9492H94.6395Z" fill="#FBFBFB"/>
<path d="M206.18 87.9492V185.223H176.35C178.114 183.29 181.226 182.499 183.159 180.683C185.999 178.005 188.671 171.883 188.671 168.038V87.9492H206.18Z" fill="#FDFDFD"/>
<path d="M36.2768 87.9492V168.686C36.2768 171.948 38.9291 177.551 41.1859 179.989L48.5981 185.223H18.7676V87.9492H36.2768Z" fill="#FDFDFD"/>
<path d="M42.1133 69.7896V14.668H65.7832C65.8545 14.668 66.7559 15.5694 66.7559 15.6407V68.8169C66.7559 68.8882 65.8545 69.7896 65.7832 69.7896H42.1133Z" fill="#F8F8F8"/>
<path d="M182.834 14.668V69.7896H159.164C159.093 69.7896 158.191 68.8882 158.191 68.8169V15.6407C158.191 15.5694 159.093 14.668 159.164 14.668H182.834Z" fill="#F8F8F8"/>
<path d="M124.471 14.668V69.7896C123.913 70.062 122.525 69.2384 122.525 68.8169V58.7653C117.454 58.6356 112.337 58.9339 107.26 58.7977C106.235 58.7718 102.422 57.4553 102.422 59.0895V68.8169C102.422 69.2384 101.034 70.062 100.477 69.7896V14.668H124.471Z" fill="#FAFAFA"/>
<path d="M66.7559 87.9492L66.7818 165.47C66.931 175.307 59.1491 183.018 49.2532 179.062C46.6786 178.031 42.1133 173.362 42.1133 170.632V87.9492H66.7559ZM64.1619 109.998H44.0588V168.686C44.0588 173.012 49.2337 177.759 53.5397 178.063C57.5927 178.349 64.1619 174.069 64.1619 169.983V109.998Z" fill="#EDEDED"/>
<path d="M182.834 87.9492V170.632C182.834 171.831 180.007 176.098 178.904 177.078C172.808 182.467 161.849 180.139 159.151 172.266C158.996 171.812 158.191 168.252 158.191 168.038V87.9492H182.834ZM180.889 93.7856H160.785V169.983C160.785 170.249 162.102 173.012 162.433 173.524C166.641 180.002 176.861 179.153 179.734 172.078C179.935 171.578 180.889 168.265 180.889 168.044V93.7921V93.7856Z" fill="#E1E1E1"/>
<path d="M102.421 87.9492V169.983C102.421 173.855 108.647 178.141 112.473 178.141C116.299 178.141 122.525 173.855 122.525 169.983V87.9492H124.47V171.28C124.47 171.52 122.505 175.022 122.168 175.463C117.453 181.565 107.499 181.565 102.785 175.463C102.447 175.022 100.482 171.52 100.482 171.28V87.9492H102.428H102.421Z" fill="#E7E7E7"/>
<path d="M40.1681 6.23828H67.7289C68.948 6.23828 68.948 9.48073 67.7289 9.48073H41.1408C40.2913 9.48073 39.9541 7.0878 40.1681 6.23828Z" fill="#E9E9E9"/>
<path d="M98.8549 6.23695H126.091C126.293 6.23695 127.304 7.30048 127.064 7.85169C126.059 9.38861 125.158 9.36267 123.536 9.51831C119.36 9.93335 103.842 10.1668 100.171 9.45995C99.0884 9.25243 98.5307 8.66879 97.8887 7.84521L98.8614 6.23047L98.8549 6.23695Z" fill="#E9E9E9"/>
<path d="M184.78 6.23828C184.994 7.0878 184.657 9.48073 183.807 9.48073H157.219C156 9.48073 156 6.23828 157.219 6.23828H184.78Z" fill="#E9E9E9"/>
<path d="M64.1618 109.996V169.981C64.1618 174.067 57.5926 178.353 53.5395 178.062C49.2335 177.757 44.0586 173.01 44.0586 168.684V109.996H64.1618Z" fill="#0E5BCA"/>
<path d="M180.89 93.7838V168.036C180.89 168.256 179.943 171.57 179.736 172.07C176.863 179.145 166.643 180.001 162.434 173.516C162.104 173.003 160.787 170.247 160.787 169.975V93.7773H180.89V93.7838Z" fill="#0E5BCA"/>
<path d="M122.564 57.7241V164.172C122.564 164.489 121.587 169.239 121.373 169.955C118.407 180.098 107.857 181.325 103.513 172.028C103.171 171.294 101.812 167.343 101.812 166.952V57.7148H122.564V57.7241Z" fill="#0E5BCA"/>
</g>
<defs>
<clipPath id="clip0_938_375">
<rect width="225" height="203.444" fill="white"/>
</clipPath>
</defs>
</svg>
