<svg viewBox="0 0 351 426" fill="none" xmlns="http://www.w3.org/2000/svg">
<path d="M265.344 72.125C265.558 153.312 265.472 234.564 265.344 315.751C263.506 314.544 262.491 312.984 260.087 312.588C254.274 311.648 244.465 312.599 238.096 312.545C169.86 311.894 101.559 313.058 33.3115 312.513C28.1611 312.994 26.1737 313.999 25.6928 319.32C23.9618 338.415 27.0819 360.095 25.7142 379.478C25.7997 381.936 27.3491 384.159 29.5075 385.302C99.0264 385.142 168.599 386.082 238.107 385.473C244.678 385.419 254.915 386.403 260.899 385.43C262.737 385.131 263.891 384.03 265.355 383.069C265.28 388.679 266.509 401.811 263.762 405.914C262.48 407.827 259.745 408.03 259.745 410.316H8.09406C2.78344 407.442 1.36229 404.696 0.849389 398.723C1.13789 289.86 0.560885 180.977 0.881445 72.125H265.344ZM50.3332 107.558C43.9113 109.449 44.3815 118.328 51.0064 119.365C57.033 120.305 83.3296 120.295 89.3775 119.365C96.12 118.318 96.1413 108.487 89.3775 107.44L50.3226 107.568L50.3332 107.558ZM50.3332 134.004C43.4732 136.333 44.5845 145.181 51.7437 145.875H236.098C243.001 145.063 244.411 138 238.866 134.26L50.3226 134.015L50.3332 134.004ZM49.5318 160.45C43.6976 163.837 44.7341 171.509 51.7544 172.322H236.91C244.689 171.509 244.903 161.006 236.91 160.268L49.5318 160.45ZM92.8182 212.595C91.9313 211.708 89.1745 210.896 87.8495 210.746C80.7972 209.966 57.7061 209.763 51.0171 210.81C44.3281 211.857 43.5908 221.699 50.2157 222.735L90.211 222.767C94.5706 221.474 95.9811 215.779 92.8075 212.595H92.8182ZM47.5871 248.188C48.7732 249.149 50.2798 249.203 51.733 249.267L236.91 249.245C244.678 248.476 243.749 237.652 236.109 237.192H51.7437C46.2087 237.053 43.5908 244.961 47.5871 248.188ZM50.3332 263.831C43.9007 265.733 44.2426 274.837 50.9209 275.724L236.899 275.692C244.742 274.88 243.653 264.055 236.098 263.639L50.3226 263.831H50.3332Z" fill="#76849D"/>
<path d="M260.535 0C262.245 4.03906 264.777 4.2314 265.344 9.22146C267.406 27.2797 265.29 53.1382 265.344 72.1261H0.881066C0.934492 53.3092 -1.12778 27.9315 0.881066 10.0122C1.46876 4.71224 3.73405 2.56448 8.09368 0H260.535ZM224.654 47.0903C226.139 48.5756 244.913 48.6183 246.58 47.3575C249.497 45.1242 249.433 27.3438 246.548 24.8007C243.909 22.482 227.261 22.3858 224.878 24.8541C223.03 26.7668 223.04 45.4768 224.654 47.0903ZM127.267 24.213C126.562 24.416 125.419 25.3777 125.045 25.9975C123.805 28.0704 123.784 44.0236 125.045 46.1287C125.312 46.5774 126.242 47.4536 126.712 47.6673C128.689 48.5435 145.603 48.4687 147.185 47.3468C149.931 45.4021 149.856 28.4765 148.382 25.9975C147.837 25.0785 146.597 24.2664 145.507 24.0634C143.37 23.6681 129.095 23.6894 127.267 24.213ZM176.954 24.213C176.249 24.416 175.106 25.3777 174.732 25.9975C173.492 28.0704 173.471 44.0236 174.732 46.1287C174.999 46.5774 175.928 47.4536 176.399 47.6673C178.375 48.5435 195.29 48.4687 196.872 47.3468C199.5 45.4768 199.319 31.8958 198.774 28.4978C198.346 25.8585 197.15 24.3626 194.457 23.9993C191.957 23.668 178.952 23.636 176.954 24.213Z" fill="#0E5BCA"/>
<path d="M290.188 72.125C290.22 84.4025 290.166 96.712 290.188 108.989C290.198 117.794 290.188 126.631 290.188 135.436C290.241 187.249 290.252 239.094 290.188 290.908C290.188 299.712 290.209 308.549 290.188 317.354C290.134 345.253 290.23 373.185 290.188 401.095C290.006 405.668 286.693 408.34 282.975 410.316H259.734C259.734 408.03 262.459 407.827 263.752 405.914C266.509 401.811 265.28 388.679 265.344 383.069C265.622 360.651 265.312 338.169 265.344 315.751C265.472 234.564 265.558 153.312 265.344 72.125H290.188Z" fill="#76849D"/>
<path d="M283.776 0C287.238 2.83162 289.642 4.43442 290.187 9.22146C292.249 27.269 290.134 53.1489 290.187 72.1261H265.344C265.29 53.1382 267.406 27.269 265.344 9.22146C264.777 4.2314 262.245 4.04975 260.535 0L283.776 0Z" fill="#0E5BCA"/>
<path d="M238.097 312.548C238.407 314.952 241.131 315.775 240.554 318.511C238.759 337.99 242.777 361.273 240.522 380.283C240.255 382.569 239.39 383.734 238.097 385.476C168.589 386.095 99.0163 385.155 29.4974 385.305C27.3496 384.161 25.8002 381.939 25.7041 379.481C27.0718 360.098 23.9517 338.417 25.6827 319.323C26.1635 314.001 28.1617 312.997 33.3014 312.516C101.559 313.061 169.849 311.896 238.086 312.548H238.097Z" fill="#FCFCFC"/>
<path d="M49.5315 160.447L236.91 160.266C244.902 161.003 244.689 171.507 236.91 172.319H51.7433C44.723 171.507 43.6866 163.824 49.5208 160.447H49.5315Z" fill="#FCFCFC"/>
<path d="M47.5867 248.185C43.5904 244.947 46.2083 237.05 51.7433 237.189H236.098C243.727 237.649 244.667 248.473 236.899 249.242L51.7219 249.264C50.2687 249.21 48.7728 249.146 47.576 248.185H47.5867Z" fill="#FCFCFC"/>
<path d="M50.3311 263.833L236.107 263.641C243.661 264.057 244.74 274.882 236.908 275.694L50.9295 275.726C44.2512 274.839 43.9092 265.735 50.3418 263.833H50.3311Z" fill="#FCFCFC"/>
<path d="M50.3326 134.004L238.876 134.25C244.421 137.99 243 145.063 236.108 145.875H51.7431C44.5839 145.191 43.4726 136.344 50.3326 134.004Z" fill="#FCFCFC"/>
<path d="M265.343 315.749C265.311 338.167 265.621 360.649 265.343 383.067C263.89 384.029 262.736 385.129 260.888 385.429C254.904 386.401 244.667 385.407 238.096 385.471C239.389 383.73 240.254 382.565 240.521 380.278C242.765 361.258 238.758 337.986 240.553 318.506C241.13 315.782 238.406 314.959 238.096 312.544C244.475 312.608 254.273 311.646 260.086 312.587C262.48 312.971 263.505 314.542 265.343 315.749Z" fill="#FCFCFC"/>
<path d="M92.8156 212.596C95.9892 215.78 94.5787 221.486 90.2191 222.768L50.2238 222.736C43.5989 221.7 44.4644 211.837 51.0252 210.811C57.586 209.786 80.8053 209.957 87.8576 210.747C89.1826 210.897 91.9394 211.709 92.8263 212.596H92.8156Z" fill="#FCFCFC"/>
<path d="M50.3322 107.558L89.3872 107.43C96.151 108.477 96.1296 118.307 89.3872 119.355C83.3392 120.284 57.0426 120.295 51.0161 119.355C44.3805 118.318 43.9103 109.439 50.3429 107.547L50.3322 107.558Z" fill="#FCFCFC"/>
<path d="M224.652 47.0894C223.039 45.4759 223.028 26.7658 224.877 24.8531C227.259 22.3848 243.907 22.481 246.546 24.7997C249.431 27.3321 249.496 45.1232 246.578 47.3565C244.922 48.628 226.148 48.5853 224.652 47.0894Z" fill="#FCFCFC"/>
<path d="M127.266 24.2154C129.093 23.6918 143.368 23.6704 145.506 24.0658C146.595 24.2688 147.835 25.0809 148.38 25.9998C149.855 28.4788 149.929 45.4044 147.183 47.3491C145.602 48.4711 128.687 48.5459 126.71 47.6697C126.24 47.4667 125.31 46.5905 125.043 46.131C123.782 44.026 123.804 28.0728 125.043 25.9998C125.417 25.3801 126.56 24.4184 127.266 24.2154Z" fill="#FCFCFC"/>
<path d="M176.953 24.2126C178.951 23.6356 191.955 23.6677 194.456 23.9989C197.148 24.3515 198.345 25.8475 198.773 28.4974C199.328 31.8954 199.51 45.4765 196.871 47.3464C195.289 48.4684 178.374 48.5432 176.398 47.667C175.927 47.4639 174.998 46.5877 174.731 46.1283C173.47 44.0233 173.491 28.07 174.731 25.9971C175.105 25.3773 176.248 24.4156 176.953 24.2126Z" fill="#FCFCFC"/>
<path d="M270.874 267.49C312.846 267.49 346.74 302.203 346.74 344.859C346.74 387.516 312.846 422.228 270.874 422.228C228.902 422.227 195.008 387.516 195.008 344.859C195.008 302.203 228.902 267.49 270.874 267.49Z" fill="#0E5BCA" stroke="#FCFCFC" stroke-width="7.47975"/>
<path d="M275.11 298.285C288.841 299.554 302.77 309.239 308.428 321.784C320.906 349.464 298.411 379.557 277.607 396.06C276.66 396.814 271.724 400.642 271.038 400.7C270.091 400.778 265.244 396.934 264.141 396.06C243.337 379.547 220.837 349.464 233.32 321.784C238.89 309.426 252.725 299.648 266.248 298.285C268.5 298.056 272.843 298.077 275.11 298.285ZM283.068 349.734C299.467 333.652 273.019 310.211 257.962 327.151C242.905 344.091 267.959 364.552 283.068 349.734Z" fill="#FCFCFC"/>
<path d="M95.6824 352.162C95.3974 349.475 96.2372 347.12 98.8422 345.649C99.269 345.405 101.681 344.433 101.935 344.428L130.688 343.825C128.63 340.788 123.665 338.135 122.443 334.706C120.351 328.843 125.802 323.743 131.738 325.74C132.505 325.997 133.034 326.398 133.673 326.874C137.042 329.401 151.853 343.343 154.045 346.422C154.7 347.335 155.359 348.795 155.452 349.886C155.511 350.602 155.091 350.84 155.086 350.922L95.6826 352.168L95.6824 352.162Z" fill="#0E5BCA"/>
<path d="M123.702 373.434L123.216 372.968C123.175 372.835 123.228 372.656 123.206 372.492C122.088 364.919 127.663 363.354 131.458 358.06C123.704 358.076 115.921 358.57 108.172 358.548C104.888 358.534 101.24 359.341 98.3968 357.33C97.5458 356.726 96.9718 355.702 96.2138 354.994C95.8452 354.075 95.7809 353.13 95.6779 352.154L155.088 350.908C154.964 352.594 155.269 352.905 154.21 354.496C149.592 361.439 138.969 368.827 133.717 375.822C130.221 378.105 125.901 376.837 123.702 373.434Z" fill="#0E5BCA"/>
</svg>
