<svg viewBox="0 0 301 292" fill="none" xmlns="http://www.w3.org/2000/svg">
<path d="M178.682 7.89878C179.082 7.73398 182.708 3.11949 185.18 2.07181C191.042 -0.42378 197.258 -0.223662 202.979 2.47205C206.216 4.00236 208.735 7.69866 211.372 8.20485C230.724 11.9129 260.283 -1.89524 262.602 29.9589C258.482 102.049 267.911 179.953 262.602 251.372C261.731 263.132 257.081 271.961 244.356 273.15H18.2461C8.28725 272.997 0.553268 264.58 0 254.892V26.4274C2.54268 -0.741613 35.7034 11.4067 52.4074 8.20485C56.5981 7.40437 60.8242 0 70.0884 0C78.2698 0 82.4251 5.6504 88.8642 8.29902L178.682 7.91055V7.89878ZM78.5287 12.1601C73.5375 8.33433 68.7229 7.08654 63.1785 10.7358C60.7888 12.3132 60.1061 15.1501 58.9054 15.88C54.9972 18.2696 25.5092 15.2325 17.3985 16.7511C12.4544 17.681 11.2066 20.5062 8.53445 24.3673L8.22839 253.715C8.02827 259.942 13.2313 265.109 19.4115 264.898H243.179C249.736 265.274 254.303 258.682 254.374 252.537V29.9706C254.327 22.8488 250.089 17.5869 243.026 16.5863C232.561 15.103 214.574 18.6698 205.71 16.5039C204.98 16.3273 201.036 8.69925 194.797 8.28725C187.216 7.78107 185.545 15.7622 179.624 16.551H84.1556C80.3416 17.2455 80.0473 13.3491 78.517 12.1719L78.5287 12.1601Z" fill="#0E5BCA"/>
<path d="M279.035 290.747C283.614 289.358 285.922 282.024 286.098 291.924C282.896 291.795 282.049 292.513 279.035 290.747Z" fill="#EAEAEA"/>
<path d="M61.2593 24.709V45.3094C61.2593 53.4201 78.9168 52.4784 78.9168 45.3094V24.709H184.862V44.1323C184.862 47.3813 190.453 51.572 193.785 51.7721C196.257 51.9133 202.519 48.0758 202.519 46.4866V24.709H244.309C244.438 24.709 246.074 26.3453 246.074 26.4748V254.845C246.074 255.045 244.262 256.917 243.696 257.176L22.9426 257.835C16.3858 257.282 15.8443 256.74 15.291 250.183L15.9502 27.0751C16.2092 26.5219 18.0809 24.6973 18.281 24.6973H61.2476L61.2593 24.709ZM41.8361 58.8468C37.6219 60.283 39.0933 67.087 41.8361 67.087H125.415C128.523 67.087 126.91 58.8468 124.238 58.8468H41.8361ZM184.862 69.4413H178.964V84.7563L163.661 84.7445V91.8193H178.976L178.964 107.122H184.862V91.8075L200.165 91.8193V84.7445H184.85L184.862 69.4413ZM40.0704 90.6303H125.415C127.581 90.6303 128.829 83.5202 123.025 82.4255C98.1635 84.2383 69.7114 79.9063 45.297 82.3195C43.0839 82.5432 40.6001 82.3548 39.4111 84.7563C38.7402 86.1218 39.7054 90.3831 40.0704 90.6303ZM41.8361 105.933C37.6219 107.37 39.0933 114.174 41.8361 114.174H125.415C128.523 114.174 126.91 105.933 124.238 105.933H41.8361ZM40.6589 137.717H125.415C127.581 137.717 128.829 130.607 123.025 129.512C98.1517 131.313 69.7232 127.005 45.297 129.406C38.1045 130.112 36.8332 136.552 40.6589 137.717ZM38.3046 205.993H100.106C102.484 201.908 108.358 174.28 109.535 173.032C111.477 170.972 111.524 173.526 111.901 174.762C117.928 194.633 122.754 214.939 130.3 234.315C132.572 234.421 135.268 234.668 136.516 232.396L147.793 196.587C149.111 200.483 149.358 207.158 154.785 207.24C175.374 205.169 200.718 209.83 220.706 207.064C227.97 206.051 225.439 198.93 224.897 198.93H156.622C155.35 195.339 152.961 182.237 151.348 180.071C150.018 178.27 146.698 178.553 144.791 179.459L131.913 216.587C131.925 214.998 131.795 213.397 131.348 211.855C127.098 197.046 120.847 170.678 114.832 157.741C111.501 150.595 107.557 154.48 105.45 160.13C100.989 172.043 98.7168 185.663 94.067 197.599C91.4536 199.283 50.0292 196.599 41.9303 197.847C36.0209 198.753 34.6318 204.898 38.3164 206.004L38.3046 205.993Z" fill="#76849D"/>
<path d="M197.812 45.8992C196.893 47.2765 190.808 46.9822 189.76 43.9333C189.124 42.0969 189.195 21.732 189.807 19.6484C191.125 15.1751 197.812 16.0816 197.812 18.2358C197.812 22.2028 198.577 44.7455 197.812 45.8992Z" fill="#76849D"/>
<path d="M65.9689 18.2347C66.7812 15.6567 74.2091 15.2211 74.2091 19.4119V44.1323C74.2091 46.5338 65.9689 46.5338 65.9689 44.1323C65.9689 38.9057 64.9095 21.6132 65.9689 18.2347Z" fill="#76849D"/>
<path d="M38.3048 205.993C34.6202 204.875 35.9975 198.742 41.9187 197.835C50.0176 196.599 91.442 199.271 94.0553 197.588C98.6934 185.64 100.965 172.02 105.439 160.119C107.557 154.468 111.501 150.596 114.821 157.729C120.848 170.666 127.087 197.035 131.336 211.843C131.784 213.397 131.913 214.987 131.901 216.576L144.779 179.448C146.686 178.541 150.006 178.271 151.336 180.06C152.949 182.226 155.339 195.328 156.61 198.918H224.886C225.427 198.918 227.97 206.04 220.695 207.052C200.707 209.819 175.362 205.169 154.774 207.229C149.347 207.135 149.111 200.472 147.781 196.576L136.504 232.385C135.256 234.657 132.56 234.41 130.289 234.304C122.755 214.928 117.928 194.633 111.889 174.751C111.513 173.515 111.477 170.961 109.523 173.021C108.346 174.268 102.472 201.908 100.094 205.981H38.293L38.3048 205.993Z" fill="white"/>
<path d="M40.6589 137.717C36.8331 136.552 38.1044 130.113 45.2969 129.406C69.7231 127.005 98.1516 131.313 123.025 129.512C128.817 130.607 127.581 137.717 125.415 137.717H40.6589Z" fill="white"/>
<path d="M40.0703 90.6296C39.7054 90.3942 38.7401 86.121 39.4111 84.7555C40.6 82.3541 43.0839 82.5307 45.2969 82.3188C69.7114 79.8938 98.1635 84.2376 123.025 82.4247C128.817 83.5195 127.581 90.6296 125.415 90.6296H40.0703Z" fill="white"/>
<path d="M41.8367 105.934H124.238C126.91 105.934 128.523 114.174 125.415 114.174H41.8367C39.0939 114.174 37.6224 107.37 41.8367 105.934Z" fill="white"/>
<path d="M41.8367 58.8457H124.238C126.91 58.8457 128.523 67.0859 125.415 67.0859H41.8367C39.0939 67.0859 37.6224 60.2818 41.8367 58.8457Z" fill="white"/>
<path d="M184.861 69.4414L184.849 84.7563L200.164 84.7446V91.8193L184.849 91.8076L184.861 107.122H178.963L178.975 91.8076L163.66 91.8193V84.7446L178.975 84.7563L178.963 69.4414H184.861Z" fill="white"/>
<path d="M235.842 161.93C269.538 161.93 296.753 188.826 296.753 221.881C296.753 254.936 269.538 281.832 235.842 281.832C202.146 281.832 174.93 254.936 174.93 221.881C174.93 188.826 202.146 161.93 235.842 161.93Z" fill="#0E5BCA" stroke="white" stroke-width="7.85957"/>
<path d="M273.574 243.222C274.643 245.047 268.068 251.826 266.603 253.024C266 253.516 264.321 254.929 263.632 254.858C262.8 254.779 257.445 250.476 256.368 249.603C250.387 244.746 244.944 238.61 239.09 233.832C238.837 233.625 237.68 232.776 237.569 232.887L228.087 265.042C227.16 265.685 216.838 262.279 215.293 261.462C214.343 260.962 212.457 260.025 213.051 258.739C218.177 246.992 223.112 235.157 227.683 223.187C222.946 217.663 217.591 212.226 213.955 205.781C207.791 194.851 207.91 183.198 221.607 179.103C238.987 173.912 244.414 188.151 243.629 202.669C243.368 207.551 241.562 213.012 241.348 217.512C241.324 218.084 241.221 218.679 241.546 219.203C250.157 225.767 258.467 232.736 267.213 239.118C268.219 239.848 273.368 242.888 273.558 243.214L273.574 243.222ZM231.493 210.083C232.135 206.511 236.46 190.826 234.749 188.397C234.393 187.889 233.41 188.001 232.84 188.032C229.386 188.231 219.531 190.398 217.25 192.962C216.497 193.811 216.585 194.216 216.862 195.263C217.551 197.835 225.029 205.193 227.311 207.233C227.952 207.805 230.939 210.543 231.485 210.083H231.493Z" fill="white"/>
</svg>
