<svg viewBox="0 0 451 408" fill="none" xmlns="http://www.w3.org/2000/svg">
<path d="M244.639 210.579H396.842C401.316 210.579 406.765 217.727 407.366 222.123C408.362 229.497 408.487 261.601 407.06 268.386C404.681 279.714 388.652 282.093 382.455 272.543C382.025 271.875 380.303 268.261 380.303 267.91V237.755H244.628V272.147C244.628 272.498 242.906 276.112 242.476 276.78C237.163 284.959 224.974 284.959 219.65 276.78C219.219 276.112 217.497 272.498 217.497 272.147V237.755H81.8336V267.91C81.8336 268.261 80.1118 271.875 79.6813 272.543C73.4849 282.093 57.4671 279.714 55.0769 268.386C53.6496 261.601 53.7742 229.509 54.7711 222.123C55.3715 217.727 60.8316 210.579 65.2948 210.579H217.497V184.672C217.497 183.936 221.111 178.317 222.153 177.445C227.33 173.107 235.407 173.356 240.346 177.932C241.32 178.827 244.639 183.993 244.639 184.672V210.579Z" fill="#76849D"/>
<path d="M72.3462 298.198C72.5082 298.131 73.9762 296.263 74.9771 295.839C77.3507 294.828 79.8672 294.909 82.1836 296.001C83.4943 296.621 84.5143 298.117 85.5819 298.322C93.4176 299.823 105.385 294.233 106.324 307.13C104.656 336.318 108.474 367.861 106.324 396.777C105.972 401.539 104.089 405.114 98.9368 405.595H7.38761C3.35541 405.533 0.224011 402.125 0 398.203V305.7C1.0295 294.7 14.4559 299.618 21.2191 298.322C22.9159 297.998 24.627 295 28.378 295C31.6905 295 33.3729 297.288 35.9801 298.36L72.3462 298.203V298.198ZM31.7953 299.923C29.7745 298.374 27.8251 297.869 25.5802 299.347C24.6127 299.985 24.3362 301.134 23.8501 301.43C22.2677 302.397 10.3284 301.167 7.04445 301.782C5.04264 302.159 4.53742 303.303 3.4555 304.866L3.33158 397.726C3.25055 400.247 5.35721 402.34 7.85947 402.254H98.4602C101.115 402.406 102.964 399.737 102.993 397.249V307.135C102.974 304.251 101.258 302.121 98.3982 301.716C94.1611 301.115 86.8783 302.559 83.2894 301.682C82.9939 301.611 81.3972 298.522 78.8711 298.355C75.8017 298.15 75.1249 301.382 72.7275 301.701H34.0736C32.5293 301.982 32.4102 300.405 31.7906 299.928L31.7953 299.923Z" fill="#0E5BCA"/>
<path d="M24.8034 305.005V313.346C24.8034 316.63 31.9527 316.248 31.9527 313.346V305.005H74.8485V312.869C74.8485 314.184 77.1125 315.881 78.4613 315.962C79.4622 316.019 81.9978 314.466 81.9978 313.822V305.005H98.9179C98.9703 305.005 99.6328 305.667 99.6328 305.72V398.184C99.6328 398.265 98.8988 399.023 98.67 399.128L9.28944 399.395C6.63466 399.171 6.41542 398.951 6.19141 396.297L6.45831 305.963C6.56317 305.739 7.321 305 7.40202 305H24.7987L24.8034 305.005ZM16.9392 318.827C15.2329 319.408 15.8287 322.163 16.9392 322.163H50.7792C52.0375 322.163 51.3845 318.827 50.3026 318.827H16.9392ZM74.8485 323.116H72.4607V329.317L66.2646 329.312V332.177H72.4654L72.4607 338.373H74.8485V332.172L81.0446 332.177V329.312H74.8438L74.8485 323.116ZM16.2243 331.695H50.7792C51.6562 331.695 52.1614 328.817 49.8117 328.373C39.7455 329.107 28.2256 327.353 18.3405 328.331C17.4444 328.421 16.4387 328.345 15.9574 329.317C15.6857 329.87 16.0765 331.595 16.2243 331.695ZM16.9392 337.892C15.2329 338.473 15.8287 341.228 16.9392 341.228H50.7792C52.0375 341.228 51.3845 337.892 50.3026 337.892H16.9392ZM16.4626 350.76H50.7792C51.6562 350.76 52.1614 347.882 49.8117 347.438C39.7407 348.167 28.2303 346.423 18.3405 347.395C15.4283 347.681 14.9136 350.288 16.4626 350.76ZM15.5093 378.404H40.5319C41.4947 376.75 43.873 365.564 44.3496 365.059C45.136 364.225 45.1551 365.259 45.3076 365.76C47.7479 373.805 49.7021 382.027 52.7572 389.872C53.6771 389.915 54.7685 390.015 55.2738 389.095L59.8398 374.596C60.3736 376.174 60.4737 378.876 62.6709 378.909C71.007 378.071 81.2686 379.958 89.3616 378.838C92.3024 378.428 91.2776 375.545 91.0584 375.545H63.4144C62.8997 374.091 61.9321 368.786 61.2792 367.909C60.7406 367.18 59.3965 367.294 58.6244 367.661L53.4102 382.694C53.4149 382.05 53.3625 381.402 53.1814 380.778C51.4608 374.782 48.9299 364.106 46.4944 358.868C45.1456 355.975 43.5489 357.547 42.6958 359.835C40.8894 364.659 39.9695 370.173 38.0868 375.006C37.0287 375.688 20.2565 374.601 16.9773 375.106C14.5847 375.473 14.0223 377.961 15.5141 378.409L15.5093 378.404Z" fill="#76849D"/>
<path d="M80.0908 313.584C79.7191 314.142 77.2549 314.023 76.8307 312.789C76.5734 312.045 76.602 303.799 76.8498 302.956C77.3836 301.145 80.0908 301.512 80.0908 302.384C80.0908 303.99 80.4006 313.117 80.0908 313.584Z" fill="#76849D"/>
<path d="M26.7102 302.382C27.039 301.339 30.0465 301.162 30.0465 302.859V312.868C30.0465 313.84 26.7102 313.84 26.7102 312.868C26.7102 310.752 26.2812 303.75 26.7102 302.382Z" fill="#76849D"/>
<path d="M15.5084 378.404C14.0166 377.951 14.5743 375.468 16.9717 375.101C20.2508 374.601 37.0231 375.682 38.0812 375.001C39.959 370.163 40.8789 364.649 42.6901 359.83C43.548 357.542 45.1447 355.974 46.4887 358.863C48.929 364.101 51.4551 374.777 53.1757 380.773C53.3568 381.402 53.4093 382.045 53.4045 382.689L58.6187 367.656C59.3909 367.289 60.7349 367.18 61.2735 367.904C61.9265 368.781 62.894 374.086 63.4088 375.539H91.0527C91.272 375.539 92.3015 378.423 89.356 378.833C81.2629 379.953 71.0013 378.07 62.6652 378.904C60.468 378.866 60.3727 376.169 59.8341 374.591L55.2681 389.09C54.7629 390.01 53.6714 389.91 52.7515 389.867C49.7012 382.022 47.747 373.805 45.302 365.754C45.1494 365.254 45.1351 364.22 44.344 365.054C43.8673 365.559 41.489 376.75 40.5262 378.399H15.5037L15.5084 378.404Z" fill="white"/>
<path d="M16.4625 350.76C14.9135 350.288 15.4283 347.681 18.3404 347.395C28.2303 346.422 39.7407 348.167 49.8117 347.438C52.1566 347.881 51.6562 350.76 50.7792 350.76H16.4625Z" fill="white"/>
<path d="M16.2239 331.695C16.0761 331.599 15.6853 329.869 15.957 329.316C16.4384 328.344 17.444 328.415 18.3401 328.33C28.2252 327.348 39.7451 329.107 49.8113 328.373C52.1563 328.816 51.6558 331.695 50.7789 331.695H16.2239Z" fill="white"/>
<path d="M16.939 337.891H50.3024C51.3843 337.891 52.0373 341.227 50.779 341.227H16.939C15.8284 341.227 15.2327 338.472 16.939 337.891Z" fill="white"/>
<path d="M16.939 318.826H50.3024C51.3843 318.826 52.0373 322.163 50.779 322.163H16.939C15.8284 322.163 15.2327 319.408 16.939 318.826Z" fill="white"/>
<path d="M74.8476 323.115L74.8428 329.316L81.0437 329.311V332.176L74.8428 332.171L74.8476 338.372H72.4597L72.4645 332.171L66.2637 332.176V329.311L72.4645 329.316L72.4597 323.115H74.8476Z" fill="white"/>
<path d="M249.346 300.198C249.508 300.131 250.976 298.263 251.977 297.839C254.351 296.828 256.867 296.909 259.184 298.001C260.494 298.621 261.514 300.117 262.582 300.322C270.418 301.823 282.385 296.233 283.324 309.13C281.656 338.318 285.474 369.861 283.324 398.777C282.972 403.539 281.089 407.114 275.937 407.595H184.388C180.355 407.533 177.224 404.125 177 400.203V307.7C178.029 296.7 191.456 301.618 198.219 300.322C199.916 299.998 201.627 297 205.378 297C208.69 297 210.373 299.288 212.98 300.36L249.346 300.203V300.198ZM208.795 301.923C206.774 300.374 204.825 299.869 202.58 301.347C201.613 301.985 201.336 303.134 200.85 303.43C199.268 304.397 187.328 303.167 184.044 303.782C182.043 304.159 181.537 305.303 180.455 306.866L180.332 399.726C180.251 402.247 182.357 404.34 184.859 404.254H275.46C278.115 404.406 279.964 401.737 279.993 399.249V309.135C279.974 306.251 278.258 304.121 275.398 303.716C271.161 303.115 263.878 304.559 260.289 303.682C259.994 303.611 258.397 300.522 255.871 300.355C252.802 300.15 252.125 303.382 249.727 303.701H211.074C209.529 303.982 209.41 302.405 208.791 301.928L208.795 301.923Z" fill="#0E5BCA"/>
<path d="M201.803 307.005V315.346C201.803 318.63 208.953 318.248 208.953 315.346V307.005H251.849V314.869C251.849 316.184 254.112 317.881 255.461 317.962C256.462 318.019 258.998 316.466 258.998 315.822V307.005H275.918C275.97 307.005 276.633 307.667 276.633 307.72V400.184C276.633 400.265 275.899 401.023 275.67 401.128L186.289 401.395C183.635 401.171 183.415 400.951 183.191 398.297L183.458 307.963C183.563 307.739 184.321 307 184.402 307H201.799L201.803 307.005ZM193.939 320.827C192.233 321.408 192.829 324.163 193.939 324.163H227.779C229.038 324.163 228.385 320.827 227.303 320.827H193.939ZM251.849 325.116H249.461V331.317L243.265 331.312V334.177H249.465L249.461 340.373H251.849V334.172L258.045 334.177V331.312H251.844L251.849 325.116ZM193.224 333.695H227.779C228.656 333.695 229.161 330.817 226.812 330.373C216.745 331.107 205.226 329.353 195.34 330.331C194.444 330.421 193.439 330.345 192.957 331.317C192.686 331.87 193.077 333.595 193.224 333.695ZM193.939 339.892C192.233 340.473 192.829 343.228 193.939 343.228H227.779C229.038 343.228 228.385 339.892 227.303 339.892H193.939ZM193.463 352.76H227.779C228.656 352.76 229.161 349.882 226.812 349.438C216.741 350.167 205.23 348.423 195.34 349.395C192.428 349.681 191.914 352.288 193.463 352.76ZM192.509 380.404H217.532C218.495 378.75 220.873 367.564 221.35 367.059C222.136 366.225 222.155 367.259 222.308 367.76C224.748 375.805 226.702 384.027 229.757 391.872C230.677 391.915 231.769 392.015 232.274 391.095L236.84 376.596C237.374 378.174 237.474 380.876 239.671 380.909C248.007 380.071 258.269 381.958 266.362 380.838C269.302 380.428 268.278 377.545 268.058 377.545H240.414C239.9 376.091 238.932 370.786 238.279 369.909C237.741 369.18 236.397 369.294 235.624 369.661L230.41 384.694C230.415 384.05 230.363 383.402 230.181 382.778C228.461 376.782 225.93 366.106 223.494 360.868C222.146 357.975 220.549 359.547 219.696 361.835C217.889 366.659 216.969 372.173 215.087 377.006C214.029 377.688 197.256 376.601 193.977 377.106C191.585 377.473 191.022 379.961 192.514 380.409L192.509 380.404Z" fill="#76849D"/>
<path d="M257.091 315.584C256.719 316.142 254.255 316.023 253.831 314.789C253.573 314.045 253.602 305.799 253.85 304.956C254.384 303.145 257.091 303.512 257.091 304.384C257.091 305.99 257.401 315.117 257.091 315.584Z" fill="#76849D"/>
<path d="M203.71 304.382C204.039 303.339 207.047 303.162 207.047 304.859V314.868C207.047 315.84 203.71 315.84 203.71 314.868C203.71 312.752 203.281 305.75 203.71 304.382Z" fill="#76849D"/>
<path d="M192.508 380.404C191.017 379.951 191.574 377.468 193.972 377.101C197.251 376.601 214.023 377.682 215.081 377.001C216.959 372.163 217.879 366.649 219.69 361.83C220.548 359.542 222.145 357.974 223.489 360.863C225.929 366.101 228.455 376.777 230.176 382.773C230.357 383.402 230.409 384.045 230.405 384.689L235.619 369.656C236.391 369.289 237.735 369.18 238.274 369.904C238.926 370.781 239.894 376.086 240.409 377.539H268.053C268.272 377.539 269.301 380.423 266.356 380.833C258.263 381.953 248.001 380.07 239.665 380.904C237.468 380.866 237.373 378.169 236.834 376.591L232.268 391.09C231.763 392.01 230.671 391.91 229.752 391.867C226.701 384.022 224.747 375.805 222.302 367.754C222.149 367.254 222.135 366.22 221.344 367.054C220.867 367.559 218.489 378.75 217.526 380.399H192.504L192.508 380.404Z" fill="white"/>
<path d="M193.463 352.76C191.914 352.288 192.428 349.681 195.34 349.395C205.23 348.422 216.741 350.167 226.812 349.438C229.157 349.881 228.656 352.76 227.779 352.76H193.463Z" fill="white"/>
<path d="M193.224 333.695C193.076 333.599 192.685 331.869 192.957 331.316C193.438 330.344 194.444 330.415 195.34 330.33C205.225 329.348 216.745 331.107 226.811 330.373C229.156 330.816 228.656 333.695 227.779 333.695H193.224Z" fill="white"/>
<path d="M193.939 339.891H227.302C228.384 339.891 229.037 343.227 227.779 343.227H193.939C192.828 343.227 192.233 340.472 193.939 339.891Z" fill="white"/>
<path d="M193.939 320.826H227.302C228.384 320.826 229.037 324.163 227.779 324.163H193.939C192.828 324.163 192.233 321.408 193.939 320.826Z" fill="white"/>
<path d="M251.848 325.115L251.843 331.316L258.044 331.311V334.176L251.843 334.171L251.848 340.372H249.46L249.464 334.171L243.264 334.176V331.311L249.464 331.316L249.46 325.115H251.848Z" fill="white"/>
<path d="M416.346 299.198C416.508 299.131 417.976 297.263 418.977 296.839C421.351 295.828 423.867 295.909 426.184 297.001C427.494 297.621 428.514 299.117 429.582 299.322C437.418 300.823 449.385 295.233 450.324 308.13C448.656 337.318 452.474 368.861 450.324 397.777C449.972 402.539 448.089 406.114 442.937 406.595H351.388C347.355 406.533 344.224 403.125 344 399.203V306.7C345.029 295.7 358.456 300.618 365.219 299.322C366.916 298.998 368.627 296 372.378 296C375.69 296 377.373 298.288 379.98 299.36L416.346 299.203V299.198ZM375.795 300.923C373.774 299.374 371.825 298.869 369.58 300.347C368.613 300.985 368.336 302.134 367.85 302.43C366.268 303.397 354.328 302.167 351.044 302.782C349.043 303.159 348.537 304.303 347.455 305.866L347.332 398.726C347.251 401.247 349.357 403.34 351.859 403.254H442.46C445.115 403.406 446.964 400.737 446.993 398.249V308.135C446.974 305.251 445.258 303.121 442.398 302.716C438.161 302.115 430.878 303.559 427.289 302.682C426.994 302.611 425.397 299.522 422.871 299.355C419.802 299.15 419.125 302.382 416.727 302.701H378.074C376.529 302.982 376.41 301.405 375.791 300.928L375.795 300.923Z" fill="#0E5BCA"/>
<path d="M368.803 306.005V314.346C368.803 317.63 375.953 317.248 375.953 314.346V306.005H418.849V313.869C418.849 315.184 421.112 316.881 422.461 316.962C423.462 317.019 425.998 315.466 425.998 314.822V306.005H442.918C442.97 306.005 443.633 306.667 443.633 306.72V399.184C443.633 399.265 442.899 400.023 442.67 400.128L353.289 400.395C350.635 400.171 350.415 399.951 350.191 397.297L350.458 306.963C350.563 306.739 351.321 306 351.402 306H368.799L368.803 306.005ZM360.939 319.827C359.233 320.408 359.829 323.163 360.939 323.163H394.779C396.038 323.163 395.385 319.827 394.303 319.827H360.939ZM418.849 324.116H416.461V330.317L410.265 330.312V333.177H416.465L416.461 339.373H418.849V333.172L425.045 333.177V330.312H418.844L418.849 324.116ZM360.224 332.695H394.779C395.656 332.695 396.161 329.817 393.812 329.373C383.745 330.107 372.226 328.353 362.34 329.331C361.444 329.421 360.439 329.345 359.957 330.317C359.686 330.87 360.077 332.595 360.224 332.695ZM360.939 338.892C359.233 339.473 359.829 342.228 360.939 342.228H394.779C396.038 342.228 395.385 338.892 394.303 338.892H360.939ZM360.463 351.76H394.779C395.656 351.76 396.161 348.882 393.812 348.438C383.741 349.167 372.23 347.423 362.34 348.395C359.428 348.681 358.914 351.288 360.463 351.76ZM359.509 379.404H384.532C385.495 377.75 387.873 366.564 388.35 366.059C389.136 365.225 389.155 366.259 389.308 366.76C391.748 374.805 393.702 383.027 396.757 390.872C397.677 390.915 398.769 391.015 399.274 390.095L403.84 375.596C404.374 377.174 404.474 379.876 406.671 379.909C415.007 379.071 425.269 380.958 433.362 379.838C436.302 379.428 435.278 376.545 435.058 376.545H407.414C406.9 375.091 405.932 369.786 405.279 368.909C404.741 368.18 403.397 368.294 402.624 368.661L397.41 383.694C397.415 383.05 397.363 382.402 397.181 381.778C395.461 375.782 392.93 365.106 390.494 359.868C389.146 356.975 387.549 358.547 386.696 360.835C384.889 365.659 383.969 371.173 382.087 376.006C381.029 376.688 364.256 375.601 360.977 376.106C358.585 376.473 358.022 378.961 359.514 379.409L359.509 379.404Z" fill="#76849D"/>
<path d="M424.091 314.584C423.719 315.142 421.255 315.023 420.831 313.789C420.573 313.045 420.602 304.799 420.85 303.956C421.384 302.145 424.091 302.512 424.091 303.384C424.091 304.99 424.401 314.117 424.091 314.584Z" fill="#76849D"/>
<path d="M370.71 303.382C371.039 302.339 374.047 302.162 374.047 303.859V313.868C374.047 314.84 370.71 314.84 370.71 313.868C370.71 311.752 370.281 304.75 370.71 303.382Z" fill="#76849D"/>
<path d="M359.508 379.404C358.017 378.951 358.574 376.468 360.972 376.101C364.251 375.601 381.023 376.682 382.081 376.001C383.959 371.163 384.879 365.649 386.69 360.83C387.548 358.542 389.145 356.974 390.489 359.863C392.929 365.101 395.455 375.777 397.176 381.773C397.357 382.402 397.409 383.045 397.405 383.689L402.619 368.656C403.391 368.289 404.735 368.18 405.274 368.904C405.926 369.781 406.894 375.086 407.409 376.539H435.053C435.272 376.539 436.301 379.423 433.356 379.833C425.263 380.953 415.001 379.07 406.665 379.904C404.468 379.866 404.373 377.169 403.834 375.591L399.268 390.09C398.763 391.01 397.671 390.91 396.752 390.867C393.701 383.022 391.747 374.805 389.302 366.754C389.149 366.254 389.135 365.22 388.344 366.054C387.867 366.559 385.489 377.75 384.526 379.399H359.504L359.508 379.404Z" fill="white"/>
<path d="M360.463 351.76C358.914 351.288 359.428 348.681 362.34 348.395C372.23 347.422 383.741 349.167 393.812 348.438C396.157 348.881 395.656 351.76 394.779 351.76H360.463Z" fill="white"/>
<path d="M360.224 332.695C360.076 332.599 359.685 330.869 359.957 330.316C360.438 329.344 361.444 329.415 362.34 329.33C372.225 328.348 383.745 330.107 393.811 329.373C396.156 329.816 395.656 332.695 394.779 332.695H360.224Z" fill="white"/>
<path d="M360.939 338.891H394.302C395.384 338.891 396.037 342.227 394.779 342.227H360.939C359.828 342.227 359.233 339.472 360.939 338.891Z" fill="white"/>
<path d="M360.939 319.826H394.302C395.384 319.826 396.037 323.163 394.779 323.163H360.939C359.828 323.163 359.233 320.408 360.939 319.826Z" fill="white"/>
<path d="M418.848 324.115L418.843 330.316L425.044 330.311V333.176L418.843 333.171L418.848 339.372H416.46L416.464 333.171L410.264 333.176V330.311L416.464 330.316L416.46 324.115H418.848Z" fill="white"/>
<path d="M231 4.90918C273.093 4.90918 307.091 38.5076 307.091 79.7998C307.091 121.092 273.093 154.69 231 154.69C188.907 154.69 154.909 121.092 154.909 79.7998C154.909 38.5076 188.907 4.90918 231 4.90918Z" fill="#0E5BCA" stroke="white" stroke-width="9.81818"/>
<path d="M278.135 106.458C279.47 108.739 271.257 117.207 269.426 118.704C268.674 119.319 266.576 121.084 265.715 120.994C264.676 120.895 257.987 115.521 256.641 114.43C249.169 108.362 242.371 100.697 235.058 94.7282C234.741 94.4704 233.296 93.4095 233.158 93.5483L221.313 133.716C220.155 134.519 207.26 130.265 205.331 129.244C204.143 128.619 201.788 127.449 202.53 125.843C208.933 111.168 215.098 96.3841 220.808 81.4316C214.89 74.5304 208.201 67.7383 203.658 59.6869C195.959 46.0333 196.108 31.4773 213.218 26.3609C234.929 19.8762 241.708 37.6646 240.728 55.8C240.402 61.898 238.145 68.7199 237.878 74.342C237.849 75.0559 237.72 75.7996 238.126 76.454C248.882 84.6541 259.263 93.3599 270.188 101.332C271.445 102.244 277.877 106.042 278.115 106.448L278.135 106.458ZM225.568 65.0611C226.369 60.5991 231.772 41.0061 229.635 37.972C229.19 37.3374 227.963 37.4762 227.25 37.5158C222.935 37.7637 210.625 40.4707 207.775 43.6734C206.835 44.7343 206.944 45.24 207.29 46.5489C208.151 49.7615 217.493 58.9531 220.343 61.5014C221.144 62.2153 224.875 65.6362 225.558 65.0611H225.568Z" fill="white"/>
</svg>
