<svg width="50" height="50" viewBox="0 0 347 348" fill="none" xmlns="http://www.w3.org/2000/svg">
<path d="M277.5 113.61L276 131.61C224.76 116.95 170.33 138.03 142.94 183.42C110.02 237.97 127.41 307.48 180.36 341.62L190.5 347.6H58.13C51.35 347.6 42.51 337.56 42.84 330.64L23.25 113.6H277.5V113.61Z" fill="#76859C"/>
<path d="M234.6 139.33C321.87 132.9 378.57 231.15 327.92 303.15C287.28 360.92 202.24 362.51 159.44 306.29C109.7 240.96 153.2 145.32 234.6 139.33ZM215.25 202.49C214.28 209.35 215.97 218.26 215.25 225.37C205.66 218.5 196.2 202.86 185.44 198.55C158.42 187.73 136.32 218.5 154.86 241.13C164.38 252.75 187.87 276.14 199.49 285.75C201.85 287.71 204.39 289.54 207.24 290.75C209.03 291.51 214.95 292.59 215.25 292.87C217.19 294.68 211.95 294.34 211.28 294.52C207.76 295.47 205.43 299.3 207.16 302.8C207.52 303.52 210.07 306.37 210.37 306.37H227.99V327.37C224 327.33 217.21 326.34 216.12 331.67C215.03 337 219.45 338.99 223.83 339.4C233.28 340.28 251.08 340.15 260.64 339.4C265.17 339.05 270.26 337.34 269.1 331.67C268.01 326.34 261.25 327.32 257.23 327.37V306.37H274.85C277.34 306.37 280.64 298.07 276.73 295.88C287.19 298.65 295.85 301 306.76 298.52C343.42 290.18 354.82 242.81 325.84 218.64C309.7 205.18 287.23 204.74 269.99 216.37V202.49C269.99 198.44 265.08 192.65 261.85 190.36C260.98 189.74 259.02 189.42 258.87 189.23C258.35 188.56 258.2 182.13 256.06 178.91C254.32 176.31 249.83 174.4 249.35 173.62C246.54 169.06 253.69 147.47 242.61 147.47C231.53 147.47 238.68 169.06 235.87 173.62C235.39 174.4 230.9 176.31 229.16 178.91C227.02 182.12 226.87 188.55 226.35 189.23C226.2 189.42 224.25 189.74 223.37 190.36C219.54 193.07 215.91 197.72 215.23 202.49H215.25Z" fill="#175CC8"/>
<path d="M300.75 67.1098H0V35.9898C0 32.8998 10.29 27.8798 13.32 27.5598C104.51 25.9898 196.26 25.9898 287.44 27.5598C290.54 27.9798 300.76 32.6598 300.76 35.9898V67.1098H300.75Z" fill="#76859C"/>
<path d="M280.5 79.1099L279 101.61H21.75L20.25 79.1099H280.5Z" fill="#76859C"/>
<path d="M188.25 14.61H112.5V1.49C112.5 1.36 113.66 0.17 114.01 0H186.74C187.09 0.17 188.25 1.36 188.25 1.49V14.61Z" fill="#76859C"/>
<path d="M258.001 294.36H227.251V284.61C246.431 287.71 246.751 269.32 227.251 272.62V263.61C246.601 267.02 246.651 248.22 227.251 251.62V242.61C246.601 246.02 246.651 227.22 227.251 230.62V221.61C232.251 221.5 241.361 223.31 241.571 215.96C241.781 208.43 232.331 209.48 227.251 209.61C226.801 206.24 227.371 200.63 231.401 199.88C234.571 199.28 249.721 199.37 253.171 199.82C254.941 200.05 258.011 202.47 258.011 203.98V294.36H258.001Z" fill="#175CC8"/>
<path d="M278.251 282.35C277.951 281.26 278.551 281.1 278.981 280.47C281.531 276.75 290.911 267.93 294.731 263.97C303.921 254.42 313.681 245.41 322.851 235.84C324.921 233.5 327.481 240.17 328.111 241.87C339.501 272.44 305.641 299.12 278.251 282.35Z" fill="#175CC8"/>
<path d="M270 271.86V233.24C270 231.6 278.13 225.55 280 224.49C290.92 218.33 304.68 218.53 315 225.76L270 271.87V271.86Z" fill="#175CC8"/>
<path d="M173.09 208.29C176.47 207.92 180.14 208.88 182.95 210.79C184.78 212.03 201.33 228.36 201.67 229.64C201.94 230.68 201.55 231.02 201.04 231.77C199.96 233.38 183.73 249.7 182.47 250.03C181.43 250.3 181.09 249.91 180.34 249.4C177.78 247.68 166.07 235.65 163.87 232.86C156.57 223.62 161.12 209.59 173.09 208.28V208.29Z" fill="#175CC8"/>
<path d="M215.251 280.11C214.201 280.24 213.241 280.05 212.231 279.76C206.521 278.11 195.881 263.49 190.551 259.39L210.001 239.2C211.011 238.15 215.241 242.65 215.241 242.99V280.11H215.251Z" fill="#175CC8"/>
<path d="M245.25 306.36H240V327.36H245.25V306.36Z" fill="#175CC8"/>
<path d="M245.881 184.98C246.141 185.14 247.011 187.61 246.751 187.86H238.511C237.371 184.23 244.421 184.08 245.891 184.98H245.881Z" fill="#175CC8"/>
<path d="M274.501 294.35C270.991 294.25 269.321 295.59 270.001 291.36L274.501 294.35Z" fill="#F3F8FE"/>
</svg>
