<svg width="50" height="50" viewBox="0 0 373 373" fill="none" xmlns="http://www.w3.org/2000/svg">
<path d="M46.6 1.6L51.69 0L288.11 0.0900002V202.6C279.73 227.01 266.67 243.56 243.1 255.1C231.91 251.11 206.3 243.49 198.32 254.57C193.2 261.69 182.08 281.47 178.6 289.6C175.12 297.73 174.47 297.05 178.57 305.39C191.12 330.94 257.28 368.75 285.1 372.1H0.0899997L0 51.69L1.6 46.6C16.39 50.05 32.9 47.16 48.11 48.11C47.16 32.9 50.05 16.39 46.6 1.6ZM137.77 48.52C62.4 57.26 72.44 176.66 155.18 166.43C227.24 157.53 218.18 39.19 137.77 48.52ZM257.72 211.24C263.59 205.45 254.69 198.52 248.42 199.53C181.41 203.91 107.47 193.94 41.28 199.54C28.07 200.66 27.33 211.91 41.28 213.17C107.53 219.17 182.72 208.49 249.91 213.17C252.27 212.99 256.01 212.93 257.72 211.24ZM35.35 240.1C29.83 241.93 31.57 252.1 35.35 252.1H159.85C163.79 252.1 163.79 240.1 159.85 240.1H35.35ZM37.18 279.44C28.45 281.33 29 291.38 39.82 292.63C59.64 294.92 114.56 294.92 134.37 292.63C145.89 291.3 145.49 280.29 135.91 279.03L37.17 279.43L37.18 279.44ZM154.22 331.24C158.22 327.3 155.19 320.63 149.42 321.03C114.94 324.57 71.68 316.56 38.28 321.03C27.94 322.41 29.87 333.09 39.82 333.13C74.32 330.87 112.35 336.04 146.41 333.16C148.77 332.96 152.51 332.92 154.22 331.23V331.24Z" fill="#76859C"/>
<path d="M288.1 202.6C296.25 178.85 291.99 146.94 317.75 135.5C356.78 118.17 390.72 166.8 361.07 197.57C356.82 201.98 349.52 205.24 345.08 209.33C320.47 232.08 302.54 255.16 306.1 291.1C292.57 279.75 259.74 261.03 243.1 255.1C266.67 243.56 279.73 227.01 288.1 202.6Z" fill="#175CC8"/>
<path d="M207.316 250.381C210.867 249.631 215.047 249.66 219.391 250.164C227.739 251.131 236.485 253.825 242.1 255.797V255.805L242.764 256.042C251 258.977 263.307 265.105 275.27 271.936C287.232 278.767 298.761 286.249 305.457 291.866C308.717 294.6 314.583 300.537 319.669 306.844C322.21 309.995 324.536 313.215 326.241 316.154C327.859 318.943 328.845 321.36 329.017 323.179L329.04 323.536C329.04 323.536 329.041 323.549 329.038 323.579C329.035 323.609 329.029 323.651 329.02 323.706C328.999 323.815 328.965 323.957 328.913 324.134C328.809 324.489 328.648 324.942 328.43 325.489C327.993 326.581 327.352 327.985 326.56 329.613C324.977 332.864 322.816 336.948 320.549 341.085C316.007 349.373 311.077 357.794 309.529 360.103L309.528 360.104C309.186 360.615 308.729 360.99 308.239 361.334C308.187 361.371 308.124 361.414 308.056 361.46C303.682 350.213 295.371 340.291 285.681 331.745C275.614 322.866 263.999 315.418 253.606 309.462C243.111 303.45 230.527 296.905 217.481 292.528C205.109 288.377 192.238 286.15 180.299 288.242C184.409 279.379 194.391 261.746 199.132 255.143L199.131 255.142C200.934 252.637 203.771 251.131 207.316 250.381Z" fill="#175CC8" stroke="white" stroke-width="2"/>
<path d="M179.31 290.475C191.143 288.048 204.147 290.175 216.842 294.434C229.705 298.749 242.159 305.219 252.613 311.207C262.951 317.131 274.435 324.503 284.358 333.255C294.14 341.882 302.342 351.799 306.471 362.932C303.012 367.512 301.054 369.814 298.445 370.911C295.744 372.047 292.204 371.948 285.22 371.106C278.406 370.283 269.157 367.335 258.877 362.933C248.614 358.537 237.385 352.72 226.627 346.21C215.868 339.699 205.599 332.505 197.248 325.359C189.138 318.42 182.913 311.591 179.763 305.532L179.468 304.949C177.389 300.71 176.71 298.968 176.794 297.352C176.835 296.552 177.07 295.726 177.535 294.565C177.972 293.475 178.553 292.223 179.31 290.475Z" fill="#175CC8" stroke="white" stroke-width="2"/>
<path d="M46.5996 1.6001C50.0496 16.3901 47.1596 32.9001 48.1096 48.1101C32.8996 47.1601 16.3896 50.0501 1.59961 46.6001L46.5996 1.6001Z" fill="#175CC8"/>
<path d="M137.769 48.5197C218.179 39.1897 227.249 157.53 155.179 166.43C72.4393 176.65 62.3993 57.2597 137.769 48.5197ZM178.369 90.3297C177.499 88.9497 170.289 87.6997 168.749 89.9897C162.369 95.2297 144.899 121.54 139.549 123.92C133.619 126.56 126.689 114.37 119.549 114.5C114.349 114.59 113.169 121.26 115.509 125.05C116.659 126.92 138.479 142.89 142.569 138.85L177.819 99.0997C178.709 97.1297 179.389 91.9397 178.379 90.3397L178.369 90.3297Z" fill="#175CC8"/>
<path d="M257.72 211.24C256.01 212.92 252.27 212.99 249.91 213.17C182.71 208.5 107.52 219.18 41.2799 213.17C27.3299 211.91 28.0799 200.66 41.2799 199.54C107.47 193.94 181.41 203.91 248.42 199.53C254.69 198.51 263.59 205.45 257.72 211.24Z" fill="#175CC8"/>
<path d="M35.3495 240.1H159.85C163.79 240.1 163.79 252.1 159.85 252.1H35.3495C31.5695 252.1 29.8295 241.93 35.3495 240.1Z" fill="#175CC8"/>
<path d="M37.18 279.44L135.92 279.04C145.5 280.29 145.89 291.3 134.38 292.64C114.56 294.93 59.65 294.93 39.83 292.64C29.01 291.39 28.46 281.34 37.19 279.45L37.18 279.44Z" fill="#175CC8"/>
<path d="M154.22 331.24C152.51 332.93 148.77 332.97 146.41 333.17C112.35 336.05 74.3198 330.88 39.8198 333.14C29.8698 333.1 27.9398 322.43 38.2798 321.04C71.6798 316.57 114.94 324.58 149.42 321.04C155.2 320.64 158.22 327.3 154.22 331.25V331.24Z" fill="#175CC8"/>
<path d="M178.37 90.3299C179.38 91.9299 178.71 97.1199 177.81 99.0899L142.56 138.84C138.47 142.88 116.66 126.91 115.5 125.04C113.16 121.24 114.33 114.58 119.54 114.49C126.68 114.36 133.61 126.55 139.54 123.91C144.89 121.53 162.35 95.2199 168.74 89.9799C170.28 87.6899 177.49 88.9399 178.36 90.3199L178.37 90.3299Z" fill="white"/>
</svg>
