<svg width="50" height="50" viewBox="0 0 264 316" fill="none" xmlns="http://www.w3.org/2000/svg">
<path d="M169.279 81.4956V82.2835H148.005V81.4956C152.898 82.0078 164.465 82.0787 169.279 81.4956Z" fill="#262626"/>
<path d="M61.7752 30.9285C54.0949 30.9723 43.7436 30.0615 36.4749 30.911C33.3047 31.2788 31.2554 33.4156 30.8876 36.4983C29.9856 44.0998 31.5882 53.3564 30.9051 61.1418C26.106 61.1768 21.2544 61.028 16.4553 61.1418C10.9468 61.2644 0.928293 59.6268 0.0175154 67.3684L0 308.471C0.472904 317.482 10.0361 315.214 16.4553 315.336C72.9673 316.379 131.003 316.046 187.568 315.345C188.68 315.328 190.493 315.766 191.167 314.68C199.014 315.722 203.252 315.38 210.871 314.023C251.313 306.798 274.599 263.142 257.505 225.353L257.531 35.1847L256.191 30.9373L227.309 1.66102C226.801 0.94291 226.031 0.969183 225.321 0.723973C224.358 0.382432 223.526 -0.125503 222.414 0.0408894L66.189 0.207282C64.0697 0.90788 62.1781 2.77322 61.819 5.03265C60.6193 12.6692 62.6335 23.003 61.784 30.9373L61.7752 30.9285Z" fill="#FEFEFE"/>
<path d="M30.9059 61.1421C73.7037 60.8356 116.528 61.3873 159.334 61.1159C161.2 61.037 162.618 61.7114 164.239 62.4558C164.922 70.2412 163.319 79.5066 164.221 87.0993C164.668 90.8212 167.549 92.9143 171.131 93.3259C178.583 94.1753 187.49 92.6953 195.1 93.3259C195.301 93.8863 196.133 94.5344 195.8 95.5503L195.757 188.563C186.535 188.993 175.571 191.821 167.514 196.445L27.578 196.743C22.236 198.994 22.4199 206.262 28.5852 206.972C69.0885 207.331 109.618 206.446 150.121 206.945C151.234 206.963 153.046 206.525 153.721 207.611C150.656 210.772 143.728 219.609 141.898 223.374L30.5468 223.348C22.0171 223.515 21.0012 233.524 29.9163 234.54H137.957C136.775 238.971 136.074 245.706 135.987 250.304L31.2036 250.277C22.6301 250.015 20.5896 259.543 29.242 261.478L136.644 261.461C137.336 266.225 139.28 273.502 141.241 277.881H28.5939C22.0171 278.652 22.236 287.576 29.2507 288.407L147.161 288.39C156.76 302.332 174.467 312.447 191.168 314.662C190.485 315.748 188.681 315.319 187.568 315.328C131.004 316.029 72.9768 316.353 16.4561 315.319V61.1421C21.2552 61.0283 26.1068 61.1772 30.9059 61.1421ZM27.4379 88.8683C21.5091 91.119 23.1818 98.5366 29.2507 99.2547C54.9014 98.8956 80.7359 99.9027 106.273 98.738C111.124 96.2071 110.494 89.385 104.81 88.7194L27.4379 88.8771V88.8683ZM27.4379 115.798C21.7018 118.232 23.0855 125.457 29.2507 126.184H166.55C173.644 125.834 174.283 116.472 167.207 115.649L27.4292 115.806L27.4379 115.798ZM28.086 142.727C21.693 145.17 22.7527 152.01 29.242 153.113H167.199C173.845 152.448 173.837 143.226 167.199 142.578L28.0772 142.727H28.086ZM28.086 169.656C22.201 171.46 22.4374 179.316 28.5939 180.042H167.207C174.283 179.228 173.644 169.849 166.55 169.507L28.086 169.665V169.656Z" fill="#76859C"/>
<path d="M222.675 1.89648C222.852 1.87 223.033 1.88605 223.33 1.98145C223.386 1.99928 223.442 2.02016 223.502 2.04199C223.633 5.23086 223.497 8.56753 223.373 12.0029C223.235 15.8294 223.112 19.7744 223.453 23.5322V23.5332C223.606 25.2109 223.846 26.8404 224.48 28.3545C225.137 29.92 226.17 31.2638 227.756 32.4658L228.262 32.8496L228.896 32.8486L254.801 32.8145L255.637 35.4668L255.612 217.941C249.106 207.687 238.874 198.436 228.507 193.29L228.17 63.125L228.169 62.7793L228.045 62.4561L227.961 62.2627C227.75 61.8326 227.448 61.5473 227.226 61.376C227.106 61.2841 226.986 61.2084 226.877 61.1455C226.856 61.0645 226.837 60.9805 226.815 60.9072C226.674 60.4306 226.378 59.6306 225.603 59.0303L196.423 30.2432L195.891 29.7178L195.143 29.7012L186.837 29.5215C145.962 28.7055 104.746 28.8184 63.8008 29.0332C63.984 25.4203 63.7391 21.4938 63.5352 17.7588C63.2857 13.1895 63.1005 8.89929 63.6641 5.31641L63.6631 5.31543C63.8795 3.96573 65.0383 2.66489 66.5039 2.08301L222.398 1.91699H222.537L222.675 1.89648Z" fill="#76859C" stroke="white" stroke-width="3.77004"/>
<path d="M195.764 188.563C195.983 188.555 196.202 188.563 196.421 188.563C196.036 190.858 200.397 189.737 201.93 189.956C251.243 197.006 273.347 256.863 240.41 294.617C232.283 303.934 222.046 309.198 210.871 314.014C203.252 315.372 199.014 315.713 191.167 314.671C174.466 312.455 156.759 302.341 147.16 288.399C145.68 286.244 142.318 280.272 141.249 277.89C139.288 273.511 137.343 266.234 136.652 261.469C136.109 257.756 135.925 254.061 135.995 250.304C136.082 245.706 136.783 238.972 137.965 234.54C138.456 232.692 141.144 224.942 141.906 223.374C143.736 219.609 150.663 210.772 153.729 207.611C156.794 204.45 163.598 198.696 167.522 196.445C175.578 191.821 186.543 188.993 195.764 188.563ZM226.442 228.112C225.47 228.34 224.69 228.918 223.99 229.601L186.806 266.68C181.043 263.659 170.718 248.333 165.07 247.177C158.554 245.837 154.123 251.092 156.303 257.257L182.287 283.81C186.21 286.262 188.881 285.123 192.156 282.505C202.639 274.142 220.68 255.12 229.919 244.734C233.404 240.828 238.79 235.775 234.508 230.258C232.598 227.806 229.306 227.447 226.424 228.112H226.442Z" fill="#175CC8"/>
<path d="M196.521 92.8208L196.341 92.2808C196.168 91.7535 195.972 91.2371 195.369 90.4331H195.368C193.516 87.9589 187.621 81.762 181.693 75.8296C176.138 70.2697 170.353 64.7414 167.619 62.5688L167.114 62.1802C166.562 61.7714 166.126 61.5543 165.704 61.395C165.343 61.2586 165.23 61.2349 165.057 61.1685L164.851 61.0815C163.372 60.4021 161.758 59.6271 159.689 59.603L159.315 59.6079C137.921 59.7436 116.52 59.6736 95.1123 59.6079C74.2479 59.5439 53.3765 59.4855 32.5098 59.6245C32.6355 57.1021 32.5719 54.471 32.4619 51.854L32.2422 47.0874C32.0808 43.402 32.0014 39.8723 32.377 36.6772C32.5259 35.4327 33.0026 34.4531 33.6943 33.7534C34.3841 33.0558 35.3614 32.5602 36.6436 32.4077C40.1654 31.9968 44.475 32.0067 48.9268 32.1216C53.3277 32.2351 57.899 32.4524 61.7666 32.4351V32.436H61.7832C105.715 32.202 149.928 32.0731 193.698 33.063C193.888 36.5731 193.693 40.3576 193.511 44.2368C193.32 48.294 193.144 52.4562 193.512 56.2964L193.593 57.0601C193.845 59.2256 194.704 60.9038 196.137 62.0737C197.527 63.2092 199.305 63.7393 201.172 63.9536H201.173C205.041 64.3941 209.248 64.2286 213.337 64.0444C217.323 63.8649 221.199 63.6685 224.778 63.9272L225.111 192.138C215.712 188.062 207.737 186.786 197.265 187.032L197.307 95.7485C197.52 94.8277 197.252 94.0688 196.976 93.5542C196.841 93.3035 196.677 93.0621 196.603 92.9468C196.505 92.7968 196.505 92.7802 196.521 92.8208Z" fill="#76859C" stroke="white" stroke-width="3.01603"/>
<path d="M16.4553 61.1418V315.328C10.0361 315.214 0.472904 317.473 0 308.462L0.0175154 67.3596C0.919536 59.618 10.9381 61.2644 16.4553 61.1331V61.1418Z" fill="#76859C"/>
<path d="M226.635 194.475C239.184 200.351 251.76 212.638 257.505 225.345C274.599 263.133 251.313 306.789 210.871 314.014C222.046 309.206 232.283 303.934 240.41 294.616C273.347 256.863 251.235 197.005 201.93 189.956C200.397 189.737 196.036 190.858 196.421 188.563C207.938 188.204 216.24 189.614 226.635 194.475Z" fill="#175CC8"/>
<path d="M251.077 30.2042L228.564 30.2331C226.353 28.5569 225.869 26.6567 225.623 23.9618C225.082 17.9867 226.006 11.3252 225.616 5.27783C226.201 5.48013 226.837 5.46568 227.256 6.05091L251.084 30.2042H251.077Z" fill="#175CC8"/>
<path d="M27.4382 115.797L167.216 115.64C174.292 116.463 173.662 125.825 166.559 126.175H29.251C23.0857 125.448 21.702 118.232 27.4382 115.789V115.797Z" fill="#175CC8"/>
<path d="M28.085 169.656L166.549 169.498C173.643 169.848 174.282 179.219 167.206 180.033H28.5929C22.4452 179.306 22.2 171.451 28.085 169.647V169.656Z" fill="#175CC8"/>
<path d="M28.0854 142.727L167.207 142.578C173.845 143.235 173.854 152.457 167.207 153.113H29.2501C22.7521 152.01 21.7012 145.17 28.0941 142.727H28.0854Z" fill="#175CC8"/>
<path d="M167.522 196.445C163.599 198.695 156.934 204.309 153.729 207.611C153.046 206.525 151.242 206.954 150.13 206.945C109.635 206.446 69.0969 207.33 28.5935 206.971C22.4283 206.262 22.2531 198.993 27.5864 196.743L167.522 196.445Z" fill="#175CC8"/>
<path d="M141.906 223.374C141.144 224.942 138.455 232.692 137.965 234.54H29.9237C21.0086 233.524 22.0245 223.515 30.5543 223.348L141.906 223.374Z" fill="#175CC8"/>
<path d="M141.249 277.89C142.318 280.272 145.681 286.244 147.161 288.399L29.2499 288.416C22.2351 287.593 22.0162 278.66 28.5931 277.881H141.249V277.89Z" fill="#175CC8"/>
<path d="M135.994 250.303C135.924 254.06 136.108 257.756 136.651 261.469L29.2492 261.487C20.6055 259.551 22.6373 250.014 31.2108 250.286L135.994 250.312V250.303Z" fill="#175CC8"/>
<path d="M27.4365 88.8681L104.809 88.7104C110.484 89.376 111.114 96.1981 106.271 98.729C80.7433 99.8937 54.8999 98.8866 29.2493 99.2457C23.1804 98.5363 21.5077 91.11 27.4365 88.8593V88.8681Z" fill="#175CC8"/>
<path d="M195.108 93.3257C187.489 92.6951 178.592 94.1752 171.139 93.3257C167.557 92.9141 164.667 90.8298 164.229 87.0991C163.327 79.5064 164.93 70.241 164.247 62.4556C164.983 62.7971 165.359 62.7446 166.235 63.3926C170.946 66.8781 190.633 86.5999 194.18 91.3377C194.811 92.1785 194.811 92.4587 195.117 93.3257H195.108Z" fill="#175CC8"/>
<path d="M225.321 62.4556C217.702 61.825 208.804 63.305 201.352 62.4556C197.919 62.0615 195.528 60.5727 195.099 56.8858C194.179 49.0741 195.808 39.581 195.116 31.5854L224.393 60.4676C225.111 60.9493 225.049 61.9214 225.33 62.4556H225.321Z" fill="#175CC8"/>
<path d="M226.442 228.113C229.323 227.447 232.616 227.806 234.525 230.258C238.807 235.775 233.412 240.828 229.936 244.734C220.697 255.112 202.656 274.133 192.174 282.505C188.898 285.115 186.227 286.262 182.304 283.81L156.32 257.257C154.14 251.092 158.571 245.838 165.087 247.178C170.726 248.342 181.06 263.668 186.823 266.68L224.007 229.601C224.708 228.927 225.478 228.34 226.459 228.113H226.442Z" fill="white"/>
</svg>
