<svg viewBox="0 0 335 350" fill="none" xmlns="http://www.w3.org/2000/svg">
<path d="M21.5165 327.007C11.2619 325.728 1.07784 315.856 0.040293 305.47L0 38.761C5.17765 6.53673 41.9047 18.8966 64.8415 16.4589C65.3653 6.91951 71.1675 1.68142 80.4248 0.724466C105.658 1.99369 133.047 -1.29018 158.029 0.603587C167.568 1.32886 173.985 5.57977 174.992 15.7135C189.508 17.3453 210.41 12.8527 223.958 17.6475C229.982 19.783 239.814 29.1915 239.814 35.7592V235.592L293.333 183.07C297.926 178.91 307.073 178.275 312.17 181.61C314.739 183.292 330.261 198.956 332.135 201.645C336.759 208.253 335.449 216.574 330.614 222.688L213.694 339.74C201.122 342.631 186.285 347.939 173.643 349.48C159.339 351.233 167.971 334.663 168.938 327.007H21.5165ZM162.713 13.6484C159.762 10.6668 88.6849 13.8801 78.9742 12.8627C77.3323 13.4268 77.1107 14.5349 76.8992 16.0761C75.8213 24.1548 77.6345 34.7922 77.0905 43.153L78.4404 44.8151C106.162 45.359 134.256 45.6008 161.968 44.6841C162.612 44.4927 162.894 44.0898 163.146 43.5055C164.164 41.1182 163.992 21.3948 163.68 17.577C163.59 16.3984 163.549 14.4744 162.713 13.6283V13.6484ZM64.8717 27.8316H22.2719C21.9395 27.8316 17.7692 29.7858 17.1144 30.2189C13.1355 32.838 11.7051 37.1896 11.3123 41.783V300.222C11.5943 309.339 16.2582 314.174 25.2637 314.949L171.225 314.577L174.942 301.683C192.681 283.491 211.538 266.074 228.481 247.287L228.512 38.7711C228.643 34.5706 222.075 27.8316 218.317 27.8316H174.962V45.5806C174.962 49.2674 166.632 56.631 162.451 56.4698C135.687 54.848 105.96 58.8572 79.5484 56.5605C74.1089 56.087 69.4349 53.881 66.8259 48.9048C66.4935 48.2601 64.8717 44.3315 64.8717 44.0696V27.8316ZM302.177 191.139L281.326 212.444L302.661 233.265L321.981 213.3C323.905 210.59 323.905 209.966 321.981 207.256C320.4 205.03 309.48 194.06 307.284 192.529C305.652 191.391 304.303 190.525 302.167 191.149L302.177 191.139ZM178.73 335.307C188.229 333.514 197.869 331.469 207.005 328.518L292.628 242.785L293 240.881C286.463 235.955 279.734 225.559 273.378 221.188C272.713 220.724 272.36 220.11 271.474 220.815L185.912 306.639L178.72 335.317L178.73 335.307Z" fill="white"/>
<path d="M64.8719 27.8343V44.0724C64.8719 44.3343 66.4937 48.2729 66.8262 48.9075C69.4351 53.8837 74.1091 56.0897 79.5487 56.5632C105.961 58.8599 135.697 54.8507 162.451 56.4725C166.622 56.6337 174.962 49.2702 174.962 45.5834V27.8343H218.318C222.075 27.8343 228.643 34.5632 228.512 38.7738L228.482 247.29C211.538 266.067 192.681 283.493 174.942 301.686L171.225 314.579L25.2639 314.952C16.2585 314.176 11.6046 309.341 11.3125 300.225V41.7757C11.7154 37.1823 13.1358 32.8306 17.1248 30.2116C17.7795 29.7784 21.9498 27.8242 22.2823 27.8242H64.882L64.8719 27.8343ZM145.549 107.917V78.0796C145.549 75.5915 141.338 74.0806 139.172 73.8892C126.691 72.761 112.559 74.8361 99.8866 73.8892C98.6778 73.2747 95.0212 77.022 95.0212 77.3241V107.927H65.2346C64.3179 107.927 60.5002 111.19 61.0542 112.802C62.1622 125.817 59.6943 140.896 61.0945 153.649C61.2758 155.321 62.8069 158.545 64.4892 158.545H95.0312V189.147C95.0312 190.416 99.1512 192.381 100.672 192.562C108.852 193.529 131.708 193.509 139.918 192.562C142.416 192.27 145.559 190.255 145.559 187.636V158.545H175.345C177.763 158.545 179.254 154.203 179.495 152.118C180.483 143.354 180.342 123.238 179.536 114.303C179.344 112.137 177.843 107.917 175.355 107.917H145.569H145.549ZM184.532 226.307C187.02 223.215 185.439 216.365 180.624 216.688L78.4608 217.101C74.1998 219.992 74.1998 224.766 78.4608 227.647L181.933 227.839C182.447 227.728 184.22 226.7 184.532 226.318V226.307ZM58.6265 245.578C52.1394 248.116 52.8042 256.416 60.0469 257.434C66.3426 258.32 90.7602 258.431 96.8847 257.464C103.936 256.346 104.228 246.837 96.8847 245.467L58.6366 245.588L58.6265 245.578ZM129.502 245.578C122.723 248.035 124.526 255.943 130.892 257.464C146.072 256.205 164.325 259.297 179.123 257.524C187.635 256.507 187.675 246.595 180.573 245.457L129.502 245.578ZM57.861 275.032C52.371 278.225 53.3482 285.458 59.9461 286.223H159.51C167.236 285.327 166.511 275.646 160.286 274.84L57.861 275.032Z" fill="#76849D"/>
<path d="M178.73 335.305L185.923 306.626L271.485 220.802C272.361 220.097 272.724 220.721 273.389 221.175C279.745 225.557 286.484 235.952 293.011 240.868L292.639 242.772L207.016 328.505C197.87 331.457 188.23 333.502 178.741 335.295L178.73 335.305Z" fill="#0E5BCA"/>
<path d="M162.712 13.6499C163.548 14.486 163.579 16.42 163.679 17.5986C163.992 21.4163 164.163 41.1297 163.145 43.5271C162.894 44.1214 162.612 44.5244 161.967 44.7057C134.255 45.6224 106.161 45.3806 78.4395 44.8366L77.0897 43.1746C77.6437 34.8037 75.8305 24.1764 76.8983 16.0977C77.0997 14.5565 77.3214 13.4484 78.9734 12.8843C88.684 13.9017 159.771 10.6883 162.712 13.67V13.6499Z" fill="#76849D"/>
<path d="M302.176 191.139C304.301 190.514 305.651 191.381 307.293 192.519C309.489 194.05 320.408 205.02 321.99 207.246C323.914 209.956 323.914 210.58 321.99 213.29L302.669 233.255L281.334 212.434L302.186 191.129L302.176 191.139Z" fill="#0E5BCA"/>
<path d="M145.55 107.916H175.336C177.824 107.916 179.325 112.137 179.517 114.303C180.323 123.228 180.474 143.354 179.476 152.118C179.245 154.203 177.754 158.544 175.326 158.544H145.54V187.636C145.54 190.255 142.397 192.28 139.899 192.562C131.689 193.509 108.833 193.529 100.653 192.562C99.1423 192.381 95.0122 190.416 95.0122 189.147V158.544H64.4702C62.7879 158.544 61.2568 155.321 61.0755 153.649C59.6854 140.896 62.1432 125.817 61.0352 112.802C60.4812 111.19 64.309 107.926 65.2156 107.926H95.0022V77.3239C95.0022 77.0116 98.6487 73.2744 99.8675 73.8889C112.54 74.8358 126.672 72.7607 139.153 73.8889C141.309 74.0803 145.53 75.5913 145.53 78.0794V107.916H145.55ZM133.492 85.2515H106.345V115.088C106.345 115.612 103.292 119.239 102.95 119.239H72.4079V147.192H102.95C103.292 147.192 106.345 150.818 106.345 151.342V181.179H133.492V152.853C133.492 151.634 136.131 147.192 137.642 147.192H167.046C167.127 147.192 168.174 146.134 168.174 146.064V120.377C168.174 120.296 167.127 119.249 167.046 119.249H137.642C136.131 119.249 133.492 114.806 133.492 113.588V85.2616V85.2515Z" fill="white"/>
<path d="M57.8608 275.027L160.286 274.836C166.511 275.642 167.236 285.332 159.51 286.219H59.956C53.3479 285.453 52.3809 278.21 57.8708 275.027H57.8608Z" fill="#0E5BCA"/>
<path d="M184.531 226.305C184.218 226.698 182.446 227.715 181.932 227.826L78.4594 227.635C74.1984 224.754 74.1984 219.979 78.4594 217.088L180.622 216.675C185.427 216.353 187.019 223.192 184.531 226.295V226.305Z" fill="#0E5BCA"/>
<path d="M129.306 245.121L180.378 245C187.479 246.128 187.439 256.04 178.927 257.068C164.13 258.841 145.867 255.748 130.696 257.007C124.33 255.486 122.527 247.579 129.306 245.121Z" fill="#0E5BCA"/>
<path d="M58.4783 245.121L96.7264 245C104.07 246.37 103.778 255.889 96.7264 256.997C90.6018 257.964 66.1843 257.853 59.8885 256.967C52.6458 255.95 51.981 247.649 58.4682 245.111L58.4783 245.121Z" fill="#0E5BCA"/>
<path d="M133.492 85.2523V113.578C133.492 114.797 136.132 119.239 137.643 119.239H167.046C167.127 119.239 168.175 120.297 168.175 120.368V146.054C168.175 146.135 167.127 147.183 167.046 147.183H137.643C136.132 147.183 133.492 151.625 133.492 152.844V181.17H106.345V151.333C106.345 150.809 103.293 147.183 102.95 147.183H72.4082V119.229H102.95C103.293 119.229 106.345 115.603 106.345 115.079V85.2422H133.492V85.2523Z" fill="#0E5BCA"/>
</svg>
