<svg width="50" height="50" viewBox="0 0 441 405" fill="none" xmlns="http://www.w3.org/2000/svg">
<path d="M20.8066 61.71C22.3868 61.417 21.8217 62.5105 21.8531 63.5151C24.7047 148.77 19.7131 235.574 21.8531 320.992L20.8066 322.797V61.71Z" fill="#090909"/>
<path d="M21.8543 60.1403C21.6921 60.2136 20.8392 60.6165 20.8078 60.6635C20.6508 59.4235 20.9438 59.2508 21.8543 60.1403Z" fill="#090909"/>
<path d="M380.266 60.1399C380.381 61.0451 381.49 60.7783 381.835 60.1399C382.123 60.1086 383.426 59.1039 384.451 59.6167V100.429L383.405 100.952C345.246 90.5292 310.44 92.5384 276.708 114.336C229.371 144.929 209.964 201.151 224.489 255.415C224.965 257.194 227.618 263.467 226.88 264.645L107.291 327.401L25.2431 327.521C22.6008 327.453 21.277 325.083 20.8061 322.802L21.8525 320.997C19.7125 235.579 24.7041 148.775 21.8525 63.52C21.8211 62.5102 22.3862 61.4219 20.8061 61.7149C20.8741 61.4114 20.7014 60.8254 20.8061 60.6684C20.8375 60.6213 21.6903 60.2184 21.8525 60.1452C23.9036 59.2243 25.3006 60.1661 27.3203 60.1713C144.964 60.6056 262.628 59.7894 380.266 60.1452V60.1399ZM219.634 155.368C220.398 155.091 221.355 154.986 221.245 154.081L220.68 65.3723H185.362C184.928 65.3723 184.436 66.6385 184.551 67.1774L184.541 153.589C184.363 154.693 184.938 154.839 185.624 155.368C186.053 155.698 186.058 156.179 186.67 155.368C187.188 155.368 187.727 155.415 188.24 155.368C189.061 156.153 190.103 155.881 191.097 155.907C196.57 156.032 215.788 156.765 219.634 155.368ZM221.465 65.8955V66.4187C221.805 66.246 221.805 66.0681 221.465 65.8955ZM42.2585 93.1035H35.4565V160.077H42.2585V93.1035ZM52.1999 93.1035H45.3979V145.427C46.5752 145.296 52.1999 145.924 52.1999 144.642V93.1035ZM62.1413 93.1035H54.8161V149.874C54.8161 151.193 61.0111 150.502 62.1413 150.659V93.1035ZM71.5595 144.903C71.7583 144.825 72.2292 145.071 72.5274 144.846C72.2083 129.332 73.2181 113.567 72.6059 98.048C72.5641 97.0382 73.1448 95.9498 71.5595 96.2429C71.5228 95.2016 71.5909 94.1447 71.5595 93.0983H64.7522V144.642C64.7522 146.044 70.3089 145.4 71.5542 144.903H71.5595ZM81.5008 93.1035H74.6988V150.136H81.5008V93.1035ZM91.4422 93.1035H84.6402V144.903H91.4422V93.1035ZM101.384 93.1035C99.8767 93.3494 95.0211 92.5436 94.2886 93.5953L94.0584 149.356C94.0113 151.575 101.384 150.837 101.384 149.879V93.1087V93.1035ZM111.325 145.95C111.325 128.777 111.325 111.589 111.325 94.4115C110.88 91.9942 105.972 93.5064 104 93.1035V149.874C104 151.125 109.316 150.549 110.456 150.68C111.069 150.533 111.173 149.115 111.325 148.566C111.498 147.938 112.659 146.729 111.325 145.95ZM120.743 93.1035H113.941V144.903H120.743V93.1035ZM130.685 93.1035H123.877C123.94 110.517 123.783 128.05 123.909 145.4C125.081 145.353 130.685 145.892 130.685 144.642V93.1035ZM140.626 93.1035H133.301V160.077H140.626V93.1035Z" fill="#76859C"/>
<path d="M6.01014 0.0889523L399.328 0C403.032 0.758685 404.806 4.15446 405.319 7.61301C404.429 19.8252 406.742 34.2716 405.319 46.217C404.838 50.2563 402.017 53.5422 397.816 53.8875L6.98335 53.8143C2.95447 53.2126 0.746434 50.2197 0.37494 46.2955C-0.807561 33.7379 1.2592 19.3124 0.442961 6.55608C0.913869 3.37484 3.01202 1.07786 6.01014 0.0889523ZM220.681 5.72415H184.578V48.1058H220.42C220.477 48.1058 221.204 47.3785 221.204 47.321V7.55546C221.204 7.27291 220.393 6.39388 220.681 5.72415Z" fill="#76859C"/>
<path d="M230.067 269.987C232.71 277.454 237.021 284.69 241.489 291.267C242.253 292.392 246.675 297.655 246.314 298.205C196 331.655 146.638 366.528 96.6906 400.523C67.2484 416.727 41.1392 374.413 67.7298 354.818C120.989 328.155 172.465 297.519 225.902 271.258C227.226 270.604 228.498 269.678 230.067 269.987Z" fill="#175CC8"/>
<path d="M253.859 306.362C261.791 314.718 269.493 320.107 278.817 326.679C279.44 327.118 280.099 326.694 279.801 328.034H213.879L214.224 326.443L248.391 303.16C250.761 301.234 252.399 304.823 253.864 306.367L253.859 306.362Z" fill="#1B1D1C"/>
<path d="M384.453 100.429V101.47C383.788 101.7 383.5 100.978 383.406 100.952L384.453 100.429Z" fill="#090909"/>
<path d="M381.835 60.14C381.49 60.7783 380.381 61.0452 380.266 60.14C380.784 60.1034 381.323 60.1923 381.835 60.14Z" fill="#090909"/>
<path d="M140.626 93.1035H133.301V160.077H140.626V93.1035Z" fill="#175CC8"/>
<path d="M42.259 93.1035H35.457V160.077H42.259V93.1035Z" fill="#175CC8"/>
<path d="M62.1416 93.1035V150.659C61.0115 150.502 54.8164 151.193 54.8164 149.874V93.1035H62.1416Z" fill="#175CC8"/>
<path d="M101.384 93.1037V149.874C101.384 150.832 94.0065 151.569 94.0589 149.351L94.2891 93.5903C95.0216 92.5386 99.8772 93.3496 101.384 93.0984V93.1037Z" fill="#175CC8"/>
<path d="M111.325 145.95V148.566C111.173 149.115 111.069 150.539 110.457 150.68C109.316 150.549 104 151.119 104 149.874V93.1036C105.973 93.5013 110.88 91.9944 111.325 94.4117C111.325 111.589 111.325 128.778 111.325 145.95Z" fill="#175CC8"/>
<path d="M81.5012 93.1035H74.6992V150.136H81.5012V93.1035Z" fill="#175CC8"/>
<path d="M130.685 93.1035V144.642C130.685 145.887 125.081 145.353 123.909 145.4C123.783 128.055 123.945 110.517 123.877 93.1035H130.685Z" fill="#175CC8"/>
<path d="M71.5598 144.903C70.3145 145.4 64.7578 146.044 64.7578 144.642V93.1035H71.565C71.5912 94.1447 71.5232 95.2017 71.565 96.2429C72.1354 112.411 71.1569 128.751 71.565 144.903H71.5598Z" fill="#175CC8"/>
<path d="M52.2004 93.1035V144.642C52.2004 145.924 46.5757 145.296 45.3984 145.427V93.1035H52.2004Z" fill="#175CC8"/>
<path d="M91.4426 93.1035H84.6406V144.903H91.4426V93.1035Z" fill="#175CC8"/>
<path d="M120.743 93.1035H113.941V144.903H120.743V93.1035Z" fill="#175CC8"/>
<path d="M71.5598 96.2432C73.1452 95.9502 72.5644 97.0437 72.6062 98.0483C73.2184 113.567 72.2138 129.327 72.5278 144.846C72.2295 145.071 71.7586 144.825 71.5598 144.904C71.1517 128.751 72.1301 112.411 71.5598 96.2432Z" fill="#76859C"/>
<path d="M219.634 155.368C215.788 156.765 196.57 156.032 191.097 155.907C190.103 155.886 189.062 156.153 188.24 155.368C197.329 154.557 207.605 154.505 216.782 154.824C217.777 154.86 218.76 154.771 219.634 155.368Z" fill="#090909"/>
<path d="M111.326 148.566V145.95C112.66 146.73 111.499 147.938 111.326 148.566Z" fill="#090909"/>
<path d="M186.671 155.368C186.059 156.179 186.054 155.698 185.625 155.368H186.671Z" fill="#090909"/>
<path d="M221.465 65.8955C221.805 66.0682 221.805 66.2461 221.465 66.4187V65.8955Z" fill="#090909"/>
<path d="M220.681 5.72412C220.393 6.39386 221.204 7.27288 221.204 7.55543V47.321C221.204 47.3785 220.477 48.1058 220.419 48.1058H184.578V5.72412H220.681Z" fill="#175CC8"/>
<path d="M411.33 149.414C466.74 203.971 440.181 300.068 364.051 316.267C287.92 332.466 222.485 253.171 254.24 180.295C281.38 118.015 362.559 101.392 411.33 149.414ZM371.763 141.377C344.817 144.789 348.443 186.903 376.331 185.187C405.093 183.419 401.88 137.568 371.763 141.377ZM411.534 187.95C398.369 189.87 398.155 210.512 411.523 212.803C430.726 216.094 431.6 185.025 411.534 187.95Z" fill="#175CC8"/>
<path d="M371.763 141.377C401.88 137.568 405.092 183.413 376.33 185.187C348.442 186.903 344.816 144.789 371.763 141.377Z" fill="#175CC8"/>
<path d="M411.535 187.95C431.601 185.025 430.727 216.095 411.525 212.803C398.156 210.512 398.371 189.87 411.535 187.95Z" fill="#175CC8"/>
<rect x="183" y="65" width="40" height="97" fill="#175CC8"/>
<path d="M342.705 166.497C348.379 166.497 353.997 167.615 359.239 169.786C364.482 171.958 369.246 175.14 373.258 179.152C377.27 183.164 380.453 187.928 382.624 193.17C384.795 198.412 385.913 204.031 385.913 209.705C385.913 227.107 375.364 242.238 366.192 252.268L366.188 252.273C362.165 256.653 357.84 260.744 353.244 264.518L353.232 264.527C350.473 266.774 347.616 268.9 344.672 270.898L342.689 272.244L340.717 270.885C337.826 268.892 334.947 266.813 332.165 264.518C327.57 260.743 323.245 256.654 319.222 252.272L319.217 252.268C310.046 242.235 299.497 227.107 299.497 209.705C299.497 204.031 300.615 198.412 302.786 193.17C304.958 187.928 308.14 183.165 312.152 179.152C316.165 175.14 320.928 171.958 326.17 169.786C331.412 167.615 337.031 166.497 342.705 166.497ZM342.705 198.87C339.832 198.87 337.076 200.012 335.044 202.044C333.012 204.076 331.87 206.832 331.87 209.705C331.87 212.578 333.012 215.334 335.044 217.366C337.076 219.398 339.832 220.539 342.705 220.539C345.578 220.539 348.334 219.398 350.366 217.366C352.398 215.334 353.539 212.578 353.539 209.705C353.539 206.832 352.398 204.076 350.366 202.044C348.334 200.012 345.578 198.87 342.705 198.87Z" fill="#76859C" stroke="#FCFDFE" stroke-width="7.00671"/>
</svg>
