<svg width="50" height="50" viewBox="0 0 377 291" fill="none" xmlns="http://www.w3.org/2000/svg">
<path d="M107.547 1.5332V243.513C107.547 245.083 102.009 246.318 100.571 246.711C70.4576 254.907 35.3596 256.244 4.86866 264.514C3.32813 265.182 0 263.511 0 262.407V22.6065C0 21.7781 4.04027 19.4528 5.45 19.3365L107.547 1.5332ZM94.4667 33.5065L18.8933 46.5865V73.4732C18.8933 74.1127 21.1751 75.9003 22.3813 75.5805L94.4667 60.3932V33.5065ZM97.3879 91.6399C87.9412 93.6455 18.3556 102.845 16.2047 106.377C15.4344 107.641 16.2337 110.301 16.0012 111.972C43.2803 108.513 70.2977 102.496 97.1844 97.2352L97.3879 91.6399ZM97.3733 122.16L18.4137 135.472C15.26 136.446 15.9285 139.861 15.9867 142.492L94.9463 129.179C98.1 128.206 97.446 124.79 97.3733 122.16ZM97.3733 152.68C87.9557 154.962 18.3411 163.885 16.1901 167.417C15.4199 168.681 16.2192 171.341 15.9867 173.012L94.9463 159.699C98.0855 158.726 97.446 155.31 97.3588 152.68H97.3733ZM97.3733 183.2L16.2047 197.937L15.9867 203.532L94.9463 190.219C98.0855 189.246 97.446 185.83 97.3733 183.2ZM97.3733 213.72L16.9168 228.195L15.9867 234.052L94.9172 220.696C98.0855 219.751 97.446 216.51 97.3733 213.72Z" fill="#76859C"/>
<path d="M219.453 263.134V18.9738L322.131 0.153113C323.672 -0.51542 327 1.15592 327 2.26045V242.06C327 243.194 321.971 245.578 320.3 245.534L219.453 263.134ZM232.533 47.3138C231.429 50.7291 232.533 68.111 232.533 73.4738C232.533 74.0115 234.64 75.9009 235.803 75.3777C242.503 72.6599 308.106 64.0853 308.106 60.3938V35.6871C308.106 32.9258 300.825 33.5071 298.849 33.667C278.691 35.3383 255.685 43.8112 235.018 45.439C234.103 45.7296 232.795 46.4709 232.533 47.3138ZM311.013 91.6405C308.237 88.7483 241.922 105.491 232.054 104.953C228.914 105.927 229.554 109.342 229.641 111.973L310.098 97.5119C311.696 97.0759 311.231 91.8585 311.028 91.655L311.013 91.6405ZM311.028 122.16L232.068 135.473C228.929 136.447 229.568 139.862 229.656 142.493C239.073 140.066 308.673 131.287 310.839 127.756C311.609 126.491 310.81 123.832 311.042 122.16H311.028ZM311.028 152.68L233.667 166.153C224.932 168.972 227.01 173.608 235.978 172.882C251.165 171.661 292.643 164.002 306.987 159.468C308.034 159.133 310.446 158.901 310.824 158.29C311.594 157.04 310.795 154.366 311.028 152.695V152.68ZM311.013 183.2L233.667 196.673C224.918 199.478 226.996 204.114 235.963 203.402C251.921 202.123 291.815 194.74 306.987 189.988C308.034 189.653 310.446 189.406 310.824 188.796C311.594 187.546 310.795 184.872 311.028 183.2H311.013ZM304.909 214.04C288.428 215.653 249.305 222.571 233.957 227.484C225.761 230.114 226.138 233.806 234.64 234.096L308.528 220.653C313.237 218.982 312.118 213.314 304.924 214.026L304.909 214.04Z" fill="#76859C"/>
<path d="M213.64 18.9732V263.133L113.36 245.693V1.5332L213.64 18.9732ZM202.014 72.0199C203.104 68.1104 202.014 54.1439 202.014 48.7665C202.014 47.4004 198.322 45.7436 196.825 45.2349C185.431 41.3981 146.802 34.7128 134.245 33.6664C132.268 33.5065 124.987 32.9252 124.987 35.6865V58.9399C124.987 59.5212 126.498 62.2535 127.559 62.5441L197.261 75.2899C198.831 75.6096 201.752 72.95 201.999 72.0199H202.014ZM204.92 106.188C202.784 102.932 137.297 95.3023 128.388 91.7416C126.208 91.2039 123.04 91.5963 122.095 93.8199C120.409 97.7729 123.621 97.5985 126.135 98.4124C140.305 102.903 183.658 110.853 198.613 111.87C202.421 112.132 207.478 110.083 204.92 106.188ZM204.92 136.708C202.784 133.452 137.297 125.982 128.388 122.262C126.208 121.724 123.04 122.116 122.095 124.34C120.409 128.293 123.621 128.119 126.135 128.932C140.436 133.467 182.001 141.14 197.13 142.361C200.124 142.608 208.263 141.794 204.906 136.708H204.92ZM204.92 167.228L122.08 152.68C122.284 155.209 120.889 158.421 123.853 158.915L197.13 172.881C200.895 174.683 207.42 171.035 204.906 167.228H204.92ZM204.92 197.748L126.949 183.273C120.758 183.81 119.159 187.792 126.135 189.972C141.148 194.681 181.333 202.122 197.13 203.401C200.139 203.648 208.219 202.863 204.906 197.748H204.92ZM124.493 213.851C121.179 215.289 120.918 219.548 124.536 220.71L197.13 233.936C205.473 235.389 208.263 229.619 199.427 227.207L124.478 213.865L124.493 213.851Z" fill="#76859C"/>
<path d="M94.4669 33.5068V60.3935L22.3816 75.5808C21.1753 75.9006 18.8936 74.113 18.8936 73.4735V46.5868L94.4669 33.5068ZM88.6681 40.759L26.1893 50.9468V66.9335L86.2556 56.5276C90.8045 53.7954 87.9414 45.5114 88.6681 40.759Z" fill="#175CC8"/>
<path d="M97.3722 152.68C97.4449 155.296 98.0989 158.712 94.9597 159.7L16.0001 173.012C16.2471 171.341 15.4333 168.667 16.2035 167.417C18.3545 163.9 87.9691 154.962 97.3867 152.68H97.3722Z" fill="#175CC8"/>
<path d="M97.3734 122.16C97.4461 124.776 98.1001 128.191 94.9464 129.18L15.9868 142.492C15.9286 139.876 15.2601 136.461 18.4138 135.473L97.3734 122.16Z" fill="#175CC8"/>
<path d="M97.5235 91.9072L97.32 97.5025C70.4188 102.764 43.4159 108.78 16.1368 112.239C16.3839 110.568 15.57 107.894 16.3403 106.644C18.4912 103.127 88.0913 93.9128 97.5235 91.9072Z" fill="#175CC8"/>
<path d="M97.373 213.72C97.4457 216.525 98.0997 219.752 94.9169 220.696L15.9863 234.052L16.9165 228.195L97.373 213.72Z" fill="#175CC8"/>
<path d="M97.373 183.2C97.4457 185.816 98.0997 189.232 94.9459 190.22L15.9863 203.532L16.2043 197.937L97.373 183.2Z" fill="#175CC8"/>
<path d="M232.533 47.3136C232.794 46.4852 234.117 45.744 235.018 45.4388C255.685 43.811 278.691 35.3236 298.848 33.6668C300.825 33.5069 308.106 32.9256 308.106 35.6869V60.3936C308.106 64.085 242.503 72.6452 235.803 75.3774C234.64 75.9006 232.533 74.0113 232.533 73.4736C232.533 68.1108 231.428 50.7289 232.533 47.3136ZM300.84 40.7736L239.741 51.6154C236.907 53.6065 238.898 63.2857 238.346 66.9481L300.767 56.7021L300.84 40.7881V40.7736Z" fill="#175CC8"/>
<path d="M311.027 152.681C310.78 154.352 311.594 157.026 310.823 158.276C310.445 158.886 308.033 159.119 306.987 159.453C292.642 164.002 251.164 171.647 235.977 172.867C227.01 173.579 224.931 168.958 233.666 166.138L311.027 152.666V152.681Z" fill="#175CC8"/>
<path d="M311.012 183.2C310.78 184.872 311.579 187.546 310.809 188.796C310.446 189.406 308.033 189.653 306.972 189.987C291.799 194.74 251.905 202.123 235.948 203.402C226.981 204.114 224.902 199.478 233.651 196.673L310.998 183.2H311.012Z" fill="#175CC8"/>
<path d="M304.909 214.04C312.103 213.328 313.222 218.996 308.513 220.667L234.626 234.111C226.124 233.805 225.746 230.114 233.942 227.498C249.304 222.586 288.413 215.668 304.894 214.055L304.909 214.04Z" fill="#175CC8"/>
<path d="M311.165 122.427C310.917 124.099 311.731 126.773 310.961 128.023C308.81 131.54 239.21 140.332 229.778 142.759C229.705 140.143 229.051 136.728 232.19 135.74L311.15 122.427H311.165Z" fill="#175CC8"/>
<path d="M311.15 91.9072C311.353 92.1252 311.818 97.3282 310.22 97.7642L229.763 112.225C229.691 109.609 229.037 106.193 232.176 105.205C242.044 105.743 308.359 89.0005 311.135 91.8927L311.15 91.9072Z" fill="#175CC8"/>
<path d="M202.013 72.0202C201.752 72.9504 198.845 75.61 197.275 75.2902L127.573 62.5445C126.512 62.2538 125.001 59.5216 125.001 58.9402V35.6869C125.001 32.9256 132.282 33.5069 134.259 33.6668C146.816 34.7132 185.445 41.3985 196.839 45.2353C198.336 45.744 202.028 47.3862 202.028 48.7669C202.028 54.1442 203.118 68.1108 202.028 72.0202H202.013ZM194.761 66.9336C194.194 63.2712 196.2 53.592 193.366 51.6009L132.268 40.759L132.34 56.673L194.761 66.919V66.9336Z" fill="#175CC8"/>
<path d="M204.92 167.228C207.434 171.036 200.909 174.684 197.145 172.882L123.868 158.915C120.888 158.421 122.298 155.209 122.095 152.68L204.935 167.228H204.92Z" fill="#175CC8"/>
<path d="M205.057 106.456C207.63 110.35 202.557 112.4 198.75 112.138C183.795 111.121 140.442 103.171 126.272 98.6802C123.743 97.8809 120.531 98.0553 122.232 94.0877C123.176 91.8641 126.359 91.4717 128.525 92.0094C137.419 95.5556 202.906 103.2 205.057 106.456Z" fill="#175CC8"/>
<path d="M205.056 136.976C208.414 142.062 200.275 142.876 197.281 142.629C182.152 141.408 140.586 133.72 126.286 129.2C123.757 128.401 120.545 128.575 122.245 124.608C123.19 122.384 126.373 121.992 128.538 122.529C137.447 126.25 202.92 133.72 205.071 136.976H205.056Z" fill="#175CC8"/>
<path d="M204.92 197.748C208.233 202.864 200.153 203.649 197.144 203.402C181.332 202.123 141.162 194.682 126.149 189.973C119.173 187.778 120.757 183.796 126.963 183.273L204.934 197.748H204.92Z" fill="#175CC8"/>
<path d="M124.492 213.851L199.441 227.193C208.277 229.605 205.486 235.375 197.144 233.922L124.55 220.696C120.932 219.548 121.179 215.275 124.507 213.836L124.492 213.851Z" fill="#175CC8"/>
<path d="M300.839 40.7738L300.767 56.6878L238.346 66.9338C238.913 63.2714 236.907 53.5922 239.741 51.6012L300.839 40.7593V40.7738Z" fill="#175CC8"/>
<path d="M194.761 66.9334L132.34 56.6874L132.268 40.7734L193.366 51.6153C196.2 53.6064 194.209 63.2856 194.761 66.948V66.9334Z" fill="#175CC8"/>
<path d="M310.5 160.33C344.886 160.33 372.67 188.602 372.67 223.363C372.67 258.125 344.886 286.396 310.5 286.396C276.114 286.396 248.33 258.125 248.33 223.363C248.33 188.602 276.114 160.33 310.5 160.33Z" fill="#175CC8" stroke="white" stroke-width="7.33948"/>
<path d="M311 190.794C314.573 190.794 318.11 191.498 321.411 192.865C324.712 194.232 327.711 196.236 330.237 198.763C332.764 201.289 334.768 204.288 336.135 207.589C337.502 210.89 338.206 214.427 338.206 218C338.206 228.957 331.564 238.485 325.789 244.8L325.786 244.804C323.253 247.561 320.529 250.137 317.636 252.513L317.629 252.519C315.891 253.933 314.093 255.272 312.239 256.53L310.99 257.378L309.748 256.521C307.927 255.267 306.115 253.957 304.363 252.512V252.513C301.47 250.136 298.747 247.562 296.214 244.803L296.211 244.8C290.436 238.483 283.794 228.957 283.794 218C283.794 214.427 284.498 210.89 285.865 207.589C287.232 204.288 289.236 201.289 291.763 198.763C294.289 196.236 297.288 194.232 300.589 192.865C303.89 191.498 307.427 190.794 311 190.794ZM311 211.178C309.191 211.178 307.455 211.896 306.176 213.176C304.896 214.455 304.178 216.191 304.178 218C304.178 219.809 304.896 221.545 306.176 222.824C307.455 224.104 309.191 224.822 311 224.822C312.809 224.822 314.545 224.104 315.824 222.824C317.104 221.545 317.822 219.809 317.822 218C317.822 216.191 317.104 214.455 315.824 213.176C314.545 211.896 312.809 211.178 311 211.178Z" fill="#76859C" stroke="#FCFDFE" stroke-width="4.41176"/>
<rect x="9" y="34" width="92" height="47" fill="#76859C"/>
<path d="M65.7481 26C68.5259 27.4382 68.2668 31.8076 67.9456 34.5854C67.5842 37.6954 64.4304 37.2465 64.2697 37.9218C64.142 38.4656 64.142 45.6603 64.2697 46.1969C80.5098 53.2309 80.4586 77.1657 63.6492 83.5865C45.6023 90.4819 28.99 70.7741 39.0355 54.2275C41.2986 50.5006 44.8321 48.0074 48.5298 45.8355C48.6977 45.3464 48.705 38.3963 48.5408 37.9108C48.2159 36.9617 45.6425 37.5677 45.2957 34.5854C44.9745 31.8076 44.7153 27.4346 47.4931 26H65.7444H65.7481ZM65.018 28.9202H48.4094C47.6976 28.9202 47.4128 34.016 48.4568 34.3445C49.8804 34.7935 50.8222 33.4721 51.1069 35.6987C51.3077 37.2757 51.4208 46.1166 51.074 47.281C50.8185 48.1425 48.0699 49.1098 47.015 49.7924C43.1566 52.2965 40.2474 57.1586 39.8312 61.7689C43.0216 61.3126 46.2448 60.7176 49.4971 61.0462C51.983 61.298 55.1769 63.605 57.1152 63.4809C58.8783 63.3677 60.4698 60.5607 62.127 59.4327C64.737 57.6587 68.0806 56.8374 71.2162 57.0236C69.7488 52.3658 65.7773 49.9238 61.7839 47.6606L61.7766 34.9942C62.1562 33.8408 64.2953 34.8446 64.8501 34.0525C65.3721 33.3078 64.799 30.0335 65.0107 28.9202H65.018ZM68.5698 61.8346C66.1204 62.5318 67.0439 66.9888 70.143 66.0032C72.7383 65.1746 71.5082 60.9987 68.5698 61.8346ZM44.4671 67.6896C41.806 68.489 42.6529 73.1504 45.7739 72.6576C48.8948 72.1648 48.5882 66.4485 44.4671 67.6896ZM63.3024 71.0041C60.9371 73.9389 65.7043 77.5855 67.5951 74.3915C69.486 71.1975 65.1093 68.7628 63.3024 71.0041ZM54.7061 73.5227C50.5521 74.3149 51.2347 80.8233 55.6734 80.3816C60.5136 79.8998 59.017 72.6978 54.7061 73.5227Z" fill="#175CC8"/>
<path d="M65.0184 28.9199C64.8066 30.0333 65.3834 33.3075 64.8578 34.0522C64.3029 34.8443 62.1602 33.8405 61.7842 34.994L61.7915 47.6604C65.7849 49.9272 69.7564 52.3655 71.2238 57.0233C68.0846 56.8371 64.7409 57.6548 62.1347 59.4325C60.4774 60.5604 58.8859 63.3711 57.1229 63.4806C55.1846 63.6047 51.9906 61.2977 49.5048 61.0459C46.2524 60.7173 43.0255 61.3123 39.8389 61.7686C40.255 57.162 43.1643 52.2998 47.0226 49.7921C48.0775 49.1059 50.8225 48.1385 51.0817 47.2807C51.4284 46.1163 51.3153 37.2754 51.1145 35.6985C50.8298 33.4718 49.888 34.7932 48.4644 34.3442C47.4205 34.0157 47.7052 28.9199 48.417 28.9199H65.0257H65.0184Z" fill="#FCFCFC"/>
<path d="M54.7057 73.5227C59.0166 72.7014 60.5133 79.9034 55.673 80.3815C51.2343 80.8232 50.5517 74.3148 54.7057 73.5227Z" fill="#F6F6F6"/>
<path d="M63.3021 71.0042C65.109 68.7629 69.4126 71.3217 67.5948 74.3916C65.777 77.4615 60.9367 73.939 63.3021 71.0042Z" fill="#F6F6F6"/>
<path d="M44.4668 67.6895C48.5879 66.452 48.9822 72.1537 45.7736 72.6575C42.565 73.1612 41.8058 68.4852 44.4668 67.6895Z" fill="#F5F5F5"/>
<path d="M68.5696 61.8345C71.508 60.9949 72.7418 65.1744 70.1428 66.0031C67.0438 66.9923 66.1203 62.5317 68.5696 61.8345Z" fill="#F0F0F0"/>
</svg>
