<svg viewBox="0 0 356 284" fill="none" xmlns="http://www.w3.org/2000/svg">
<path d="M0 246.812C1.72882 243.542 2.01885 239.754 3.48038 236.359C6.46032 229.461 12.0449 220.851 15.821 214.009C37.9487 173.979 61.9247 135.007 85.0305 95.5513L85.3035 46.6269C77.7343 48.0145 70.9384 40.4396 75.3628 33.5641C75.9656 32.6258 79.5654 30.1349 80.464 30.1349H94.1125C94.3969 30.1349 95.0452 29.1966 94.9826 28.7189L87.5783 0H151.272L143.879 30.1406H158.949C159.916 30.1406 162.441 31.8694 163.208 32.7054C169.333 39.3932 162.23 48.0373 154.115 46.6269L154.257 95.6821C177.915 135.252 202.044 174.628 224.291 215.022C230.246 225.833 238.366 237.53 239.35 250.008C240.766 267.961 232.026 281.337 213.537 283.196C149.543 282.741 85.3774 284.152 21.4851 282.48C9.2924 280.137 3.31546 271.777 0.0056869 260.454V246.806L0 246.812ZM41.5144 205.866H197.904C193.389 197.028 188.504 188.185 183.585 179.524C168.571 153.086 152.699 127.108 137.509 100.778L103.758 100.63L101.477 101.761C84.8031 130.52 67.5604 158.977 51.0854 187.855C48.3045 192.729 44.2498 198.933 42.0546 203.847C41.7532 204.529 41.2983 204.973 41.5144 205.866Z" fill="#76849D"/>
<path d="M355.999 110.326C354.208 110.565 353.963 112.692 352.223 113.659C349.653 115.086 346.411 115.08 343.846 113.659C341.748 112.493 339.945 108.034 337.488 109.718L235.676 211.524L182.549 123.116L184.807 119.687C210.113 92.5147 239.645 67.5435 264.662 40.3089C269.194 35.3727 264.315 35.7821 262.239 32.0458C257.252 23.0833 269.507 15.3889 276.178 23.5098C300.023 49.607 327.133 72.8039 351.245 98.5769C352.934 100.385 354.379 102.745 355.994 104.633V110.32L355.999 110.326ZM200.178 129.093H294.296C305.062 118.35 316.208 107.648 326.388 96.4727L279.021 49.5217L200.178 129.098V129.093Z" fill="#0E5BCA"/>
<path d="M41.5133 205.865C41.2972 204.972 41.7522 204.529 42.0536 203.846C44.243 198.933 48.3035 192.728 51.0844 187.855C67.565 158.982 84.8077 130.525 101.476 101.761L103.756 100.629L137.508 100.777C152.698 127.107 168.576 153.079 183.583 179.523C188.503 188.19 193.388 197.028 197.903 205.865H41.5133ZM134.011 144.646C124.332 134.307 110.302 152.277 122.29 159.5C131.514 165.056 141.546 152.692 134.011 144.646ZM98.8202 161.081C82.7092 163.071 84.2959 188.565 102.585 186.461C118.679 184.613 115.466 159.016 98.8202 161.081ZM147.654 190.306C153.83 184.01 151.851 172.341 143.462 169.025C131.6 164.339 120.595 176.037 126.72 187.474C130.843 195.168 141.529 196.55 147.654 190.306Z" fill="#FCFCFC"/>
<path d="M200.18 129.092L279.023 49.5156L326.389 96.4667C316.21 107.641 305.063 118.344 294.298 129.087H200.18V129.092ZM276.788 76.3237C270.367 77.7966 268.946 88.8974 275.815 91.8375C290.055 97.9282 292.359 72.7523 276.788 76.3237ZM267.655 122.638C277.095 112.498 265.437 96.2961 252.886 102.466C240.835 108.392 245.561 127.75 260.176 126.249C262.457 126.016 266.114 124.293 267.655 122.643V122.638ZM284.75 101.346C278.528 102.756 279.097 113.51 286.319 113.647C295.1 113.812 294.19 99.2078 284.75 101.346Z" fill="#FAFAFA"/>
<path d="M147.656 190.305C141.531 196.555 130.846 195.167 126.723 187.473C120.598 176.042 131.602 164.339 143.465 169.025C151.853 172.34 153.832 184.004 147.656 190.305Z" fill="#76849D"/>
<path d="M98.8222 161.083C115.473 159.024 118.681 184.615 102.587 186.463C84.2979 188.567 82.7112 163.073 98.8222 161.083Z" fill="#76849D"/>
<path d="M134.011 144.644C141.546 152.691 131.509 165.055 122.29 159.498C110.308 152.276 124.332 134.311 134.011 144.644Z" fill="#76849D"/>
<path d="M267.655 122.638C266.114 124.293 262.457 126.01 260.176 126.243C245.561 127.744 240.835 108.386 252.886 102.461C265.437 96.2902 277.095 112.492 267.655 122.632V122.638Z" fill="#0E5BCA"/>
<path d="M276.788 76.3253C292.358 72.7539 290.055 97.9299 275.815 91.8392C268.945 88.8991 270.367 77.7925 276.788 76.3253Z" fill="#0E5BCA"/>
<path d="M284.748 101.347C294.193 99.2085 295.103 113.807 286.317 113.648C279.095 113.511 278.526 102.757 284.748 101.347Z" fill="#0E5BCA"/>
</svg>
