<svg width="50" height="50" viewBox="0 0 469 404" fill="none" xmlns="http://www.w3.org/2000/svg">
<path d="M0 145C4.22 139.03 6.62 131.71 11.96 126.46C16.38 122.12 29.47 115 35.5 115H72V0H316V115H352.5C354.38 115 363.18 118.08 365.38 119.12C377.09 124.67 383.67 135.25 388 147V274C382.85 285.33 376.55 295.87 364.69 301.19C362.15 302.33 353.85 305 351.5 305H327V247.5C327 246.91 324.7 240.41 324.18 239.32C318.73 228 307.7 222.8 295.55 221.95C228.52 217.28 156.11 225.53 88.52 222.01C77.04 220.98 59 234.99 59 246.49V304.99H35.5C33.62 304.99 24.82 301.91 22.62 300.87C10.74 295.24 4.5 284.83 0 272.99V144.99L0 145ZM302 14H86V115H302V14ZM310.65 155.36C301.92 146.62 287.03 160.52 296.96 169.55C306.97 178.65 319.01 163.72 310.65 155.36ZM330.28 155.29C322.31 163.25 334.03 178.65 344.04 169.55C354.17 160.33 338.77 146.81 330.28 155.29Z" fill="#76859C"/>
<path d="M83.7307 236.23L299.551 235.95C307.861 236.34 312.981 243.8 314.001 251.5C312.061 281.58 316.581 314.84 314.031 344.54C313.201 354.29 307.611 361.16 297.541 362.05H88.4607C78.9207 361.2 73.2807 356.05 72.0007 346.51C74.0407 315.84 69.2907 281.72 71.9607 251.47C72.6407 243.82 76.6807 238.89 83.7307 236.24V236.23ZM274.001 282H114.001V295H274.001V282ZM274.001 319H114.001V332H274.001V319Z" fill="#175CC8"/>
<path d="M275 30H113V44H275V30Z" fill="#175CC8"/>
<path d="M275 58H113V72H275V58Z" fill="#175CC8"/>
<path d="M275 85H113V99H275V85Z" fill="#175CC8"/>
<path d="M359 187.915C416.016 187.915 462.085 234.793 462.085 292.432C462.085 350.07 416.016 396.948 359 396.948C301.984 396.948 255.915 350.07 255.915 292.432C255.915 234.793 301.984 187.915 359 187.915Z" fill="#76859C" stroke="white" stroke-width="12.1697"/>
<path d="M338.146 312.764C341.165 309.746 348.116 308.901 352.168 309.375C358.229 310.087 364.501 316.379 369.928 316.33C373.667 316.297 376.887 310.8 379.765 312.665L399.733 346.638C400.627 348.058 400.112 349.701 398.563 350.327L320.896 350.529C318.759 350.661 317.19 348.981 318.138 346.918L338.142 312.764H338.146Z" fill="#175CC8"/>
<path d="M349.125 240.562V285.24L313.225 346.522C312.052 349.199 310.145 353.288 313.777 354.762C343.422 355.413 373.19 354.832 402.879 355.055C405.572 355.12 406.861 352.872 406.264 350.401C394.973 328.14 381.302 306.958 368.89 285.24V240.562H373.42V283.181C384.143 303.079 397.361 322.248 407.932 342.145C411.959 349.73 413.668 358.876 402.472 359.996H315.136C308.72 359.44 306.336 355.248 307.156 349.1C318.039 326.374 332.402 305.286 344.595 283.177V240.562H349.125Z" fill="#175CC8"/>
<path d="M337.063 225H380.947C381.869 225.296 382.684 225.749 382.878 226.775C383.072 227.8 383.063 236.131 382.808 236.983C382.458 238.14 380.473 238.49 379.403 238.519L337.149 238.325C336.54 238.169 335.943 238 335.564 237.44C334.975 236.584 334.872 228.113 335.127 226.775C335.325 225.754 336.136 225.296 337.059 225H337.063Z" fill="#175CC8"/>
</svg>
