<svg viewBox="0 0 358 272" fill="none" xmlns="http://www.w3.org/2000/svg">
<path d="M357.524 271.778H298.169V212.47H319.472C319.547 212.47 320.518 211.499 320.518 211.424V190.14H186.444V212.47H208.793V271.778H148.741V212.47H171.089V190.14H37.0061V211.424C37.0061 211.499 37.9769 212.47 38.0523 212.47H59.3549V271.778H0V212.47H22.3488V174.795H171.08V152.465V155.962C171.089 150.629 171.08 154.895 180.894 152.467C180.894 155.962 163.286 177.264 180.894 152.465H186.444V174.795H335.175V212.47H357.524V271.778Z" fill="#76849D"/>
<path d="M123.168 153.209C119.723 152.594 116.718 148.433 116.994 144.92L117.362 19.4317C119.07 12.4204 132.672 12.851 138.381 13.6349C142.272 14.172 142.156 20.593 148.519 21.5753C167.549 20.3172 189.048 23.4092 207.784 21.6479C211.964 21.2559 213.053 20.2979 215.666 17.2398C217.137 15.522 216.101 14.0123 219.281 13.6252C224.642 12.972 238.974 12.4494 240.498 19.243L240.663 83.3855C203.574 84.6678 188.584 129.867 217.514 153.204H123.168V153.209ZM125.878 46.3836C124.194 48.0433 125.346 50.0949 126.425 51.6288C127.015 52.4659 133.862 59.3224 134.385 59.5643C136.098 60.3531 137.554 60.1547 139.112 59.2547C140.065 58.703 154.098 44.6658 154.649 43.7174C156.769 40.0593 154.335 36.0238 150.29 37.9012C147.682 39.1109 138.56 50.9078 136.804 51.2175C133.639 49.9255 129.914 42.4061 125.878 46.3836ZM230.168 37.5335H165.822C163.461 37.5335 163.466 44.7626 165.822 44.7626H230.168C233.037 44.7626 233.802 38.1335 230.168 37.5335ZM165.822 59.9418H230.889C232.723 59.9418 235.152 53.3901 227.308 52.6788C208.287 50.9514 186.619 53.9998 167.312 52.7611C163.107 52.4514 163.054 59.1676 165.817 59.9418H165.822ZM154.441 76.7516C153.991 76.2919 152.733 75.8854 152.09 75.9242C148.412 76.1322 140.39 87.213 136.809 89.5356C134.578 89.9275 131.278 81.1887 126.73 84.4791C125.835 85.1275 124.785 87.2372 125.075 88.3549C125.249 89.0227 133.891 97.8244 134.699 98.3034C135.735 98.9179 136.185 99.247 137.472 98.884C140.191 98.1195 151.475 83.9565 154.978 81.6194C155.67 80.371 155.39 77.7193 154.441 76.7516ZM166.708 76.0113C162.696 76.8822 163.059 82.3984 166.567 83.0613C171.808 82.2532 198.014 84.4742 200.598 82.4274C203.008 80.521 201.967 76.4613 198.309 75.9C193.964 75.2322 170.656 75.1548 166.708 76.0113ZM166.703 91.1856C162.299 92.2066 162.42 97.7082 166.562 98.9663C172.219 98.0227 197.458 100.544 200.579 98.3131C203.835 95.9856 202.026 91.6598 198.314 91.0743C189.092 89.6275 176.312 91.9259 166.703 91.1856ZM166.703 114.324C162.145 115.384 162.648 121.355 166.562 122.105C169.378 122.647 188.254 122.633 191.109 122.105C195.464 121.297 195.875 115.113 190.364 114.213C187.175 113.691 169.587 113.657 166.703 114.324ZM150.072 115.031C147.57 115.791 138.551 127.544 136.809 127.849C134.007 126.973 132.014 122.178 128.96 122.173C126.149 122.168 124.436 125.158 125.51 127.699C125.878 128.565 133.654 136.588 134.389 136.926C135.788 137.57 137.307 137.57 138.706 136.926C139.751 136.447 154.485 121.708 154.969 120.663C156.706 116.889 154.098 113.807 150.077 115.031H150.072ZM193.48 130.97C192.672 130.167 190.838 130.142 189.711 130.046C185.221 129.663 170.467 129.334 166.558 130.089C162.648 130.844 162.599 136.52 166.558 137.289C170.283 138.015 186.179 137.754 190.413 137.304C194.148 136.907 195.934 133.413 193.475 130.97H193.48Z" fill="#76849D"/>
<path d="M230.168 37.5352C233.802 38.1352 233.037 44.7643 230.168 44.7643H165.822C163.465 44.7643 163.461 37.5352 165.822 37.5352H230.168Z" fill="white"/>
<path d="M165.824 59.944C163.056 59.1698 163.114 52.4488 167.319 52.7633C186.621 54.002 208.293 50.9536 227.315 52.681C235.158 53.3923 232.729 59.944 230.895 59.944H165.824Z" fill="white"/>
<path d="M166.702 91.1854C176.312 91.9306 189.091 89.6273 198.314 91.0741C202.03 91.6596 203.835 95.9855 200.578 98.3129C197.457 100.544 172.219 98.0274 166.562 98.9661C162.42 97.7081 162.299 92.2064 166.702 91.1854Z" fill="white"/>
<path d="M150.074 115.038C154.1 113.814 156.708 116.896 154.966 120.67C154.487 121.716 139.748 136.454 138.703 136.933C137.304 137.577 135.785 137.577 134.386 136.933C133.651 136.595 125.875 128.572 125.507 127.706C124.428 125.166 126.146 122.175 128.957 122.18C132.011 122.19 134.009 126.985 136.806 127.856C138.548 127.551 147.567 115.798 150.069 115.038H150.074Z" fill="white"/>
<path d="M125.881 46.3881C129.917 42.4107 133.643 49.9301 136.807 51.222C138.568 50.9172 147.685 39.1203 150.293 37.9058C154.338 36.0284 156.772 40.0639 154.653 43.722C154.101 44.6704 140.064 58.7124 139.115 59.2592C137.552 60.1592 136.101 60.3576 134.388 59.5689C133.865 59.327 127.018 52.4704 126.428 51.6333C125.349 50.0995 124.197 48.0478 125.881 46.3881Z" fill="white"/>
<path d="M154.445 76.7558C155.393 77.7187 155.674 80.3703 154.982 81.6236C151.479 83.9607 140.195 98.1237 137.475 98.8882C136.188 99.2511 135.733 98.9221 134.703 98.3076C133.895 97.8285 125.253 89.0268 125.079 88.3591C124.788 87.2413 125.838 85.1316 126.733 84.4833C131.277 81.1929 134.577 89.9317 136.813 89.5398C140.398 87.2171 148.416 76.1412 152.093 75.9283C152.737 75.8896 153.995 76.2961 154.445 76.7558Z" fill="white"/>
<path d="M166.709 76.0179C170.657 75.1615 193.966 75.2389 198.311 75.9066C201.969 76.4679 203.004 80.5276 200.6 82.4341C198.02 84.4809 171.814 82.2551 166.569 83.068C163.061 82.4099 162.698 76.8889 166.709 76.0179Z" fill="white"/>
<path d="M166.702 114.327C169.586 113.659 187.175 113.693 190.363 114.215C195.875 115.115 195.468 121.299 191.109 122.107C188.249 122.64 169.378 122.654 166.562 122.107C162.647 121.353 162.144 115.382 166.702 114.327Z" fill="white"/>
<path d="M193.482 130.974C195.94 133.418 194.154 136.911 190.419 137.308C186.185 137.758 170.29 138.019 166.564 137.294C162.606 136.524 162.591 130.863 166.564 130.094C170.536 129.324 185.222 129.668 189.717 130.05C190.845 130.147 192.679 130.171 193.487 130.974H193.482Z" fill="white"/>
<circle cx="235.986" cy="112.484" r="50.6824" fill="#0E5BCA" stroke="white" stroke-width="5.12679"/>
<path d="M241.039 97.5547C257.087 96.1353 264.056 116.564 251.075 125.092C240.221 132.217 226.126 123.216 227.863 110.43C228.754 103.85 234.354 98.1504 241.044 97.5603L241.039 97.5547ZM242.492 99.837C234.287 99.9762 228.464 107.97 230.552 115.846C232.867 124.586 243.85 128.193 250.819 122.298C260.021 114.516 254.46 99.631 242.492 99.837Z" fill="white"/>
<path d="M234.979 94.6295C230.381 98.9881 224.164 100.87 219.304 104.672C212.185 110.238 213.738 116.762 220.64 121.482C221.069 121.777 223.657 123.191 223.702 123.364C223.746 123.536 223.596 123.598 223.485 123.676C223.123 123.943 221.124 125.101 220.757 125.229C220.523 125.312 220.468 125.318 220.228 125.24C219.839 125.117 218.603 124.227 218.185 123.937C209.657 117.959 208.6 108.824 217.039 102.133C222.243 98.0084 234.389 93.9838 235.692 87.1203C235.92 85.9068 235.575 83.9864 237.278 83.7582C239.917 83.4019 239.26 87.1426 238.837 88.6622C238.169 91.0558 236.755 92.9485 234.985 94.6295H234.979Z" fill="white"/>
<path d="M231.109 124.044C231.293 124.25 231.644 124.35 231.582 124.634C228.565 126.432 225.365 127.952 222.375 129.789C219.141 131.782 215.367 134.426 214.788 138.5C214.644 139.513 214.944 141.039 213.553 141.406C210.775 142.141 211.215 138.667 211.582 137.036C213.341 129.271 223.227 125.748 229.267 121.979C229.339 121.951 229.384 121.985 229.445 122.024C229.573 122.107 230.825 123.732 231.109 124.05V124.044Z" fill="white"/>
<path d="M261.723 129.491C263.972 131.89 266.16 134.362 268.431 136.744C269.872 139.004 267.239 141.225 265.241 139.533L252.622 125.968C252.343 125.528 253.151 125.283 253.49 124.971C253.802 124.682 255.333 123.006 255.539 123.04C257.632 125.155 259.68 127.326 261.717 129.491H261.723Z" fill="white"/>
<path d="M223.699 96.4426C222.998 96.6096 220.855 98.2461 220.321 98.1626C219.959 98.1069 217.287 96.1531 216.819 95.7746C214.632 94.0044 212.528 91.5886 211.743 88.8276C211.32 87.3302 210.529 83.8122 212.945 83.7398C214.904 83.6786 214.587 85.4821 214.788 86.7179C215.389 90.4474 218.283 92.7408 221.228 94.7058C221.829 95.1066 223.121 95.7022 223.56 96.1086C223.683 96.2199 223.744 96.2422 223.699 96.437V96.4426Z" fill="white"/>
<path d="M238.749 141.021C238.042 141.728 236.901 141.583 236.249 140.871C235.598 140.158 235.96 139.791 235.837 139.012C235.047 133.896 230.983 131.452 226.853 129.053L226.77 128.775C227.521 128.658 229.714 126.944 230.276 127.06C230.571 127.122 232.887 128.803 233.299 129.12C235.804 131.057 238.036 133.518 238.854 136.657C239.138 137.731 239.578 140.186 238.743 141.021H238.749Z" fill="white"/>
<path d="M234.52 138.93H216.084V140.399H234.52V138.93Z" fill="white"/>
<path d="M234.387 86.2899H216.084V84.8203H234.32C234.693 84.8203 234.442 86.0394 234.387 86.2899Z" fill="white"/>
<path d="M233.588 136.526H216.889C217.039 136.097 217.584 135.145 218.03 135.062L232.464 135.051C232.981 135.112 233.438 136.03 233.594 136.526H233.588Z" fill="white"/>
<path d="M233.584 88.697C233.74 88.8473 232.844 90.2723 232.454 90.1721L218.02 90.161C217.653 90.0886 216.968 89.1256 217.018 88.6914H233.584V88.697Z" fill="white"/>
<path d="M226.371 111.941H216.084V113.277H226.371V111.941Z" fill="white"/>
<path d="M226.769 115.816C226.813 115.867 226.852 116.919 227.036 117.152H217.751C217.673 117.152 216.921 116.05 217.016 115.816H226.769Z" fill="white"/>
<path d="M226.902 108.074C226.952 108.124 226.702 109.41 226.635 109.41H217.016C216.921 109.176 217.673 108.074 217.751 108.074H226.902Z" fill="white"/>
<path d="M229.847 132.651H220.629C220.98 132.284 222.26 131.271 222.705 131.187C223.251 131.087 227.398 131.093 227.876 131.215C228.355 131.338 229.535 132.239 229.847 132.651Z" fill="white"/>
<path d="M229.842 92.5742C229.914 92.8859 229.781 92.7969 229.675 92.8804C229.413 93.0863 228.116 93.9603 227.877 94.0159C227.409 94.1217 222.823 94.105 222.5 93.9714C222.277 93.8823 221.164 93.0808 220.93 92.8804C220.835 92.7969 220.68 92.8859 220.757 92.5742H229.842Z" fill="white"/>
<path d="M227.904 119.555C227.971 119.577 228.584 120.596 228.623 120.707C228.695 120.902 228.361 121.024 228.305 121.024H222.427C222.321 121.024 220.835 120.011 220.662 119.861C220.568 119.777 220.412 119.866 220.49 119.555H227.904Z" fill="white"/>
<path d="M228.177 104.189C228.277 104.206 228.55 104.311 228.494 104.501C228.461 104.623 227.843 105.658 227.776 105.658H220.495C220.423 105.347 220.556 105.436 220.662 105.352C220.857 105.196 222.327 104.189 222.432 104.189C224.074 104.189 226.668 103.966 228.177 104.189Z" fill="white"/>
<path d="M226.772 101.925C226.65 101.764 226.889 101.625 226.995 101.547C227.212 101.38 229.784 99.9716 229.945 99.9438C230.363 99.877 231.02 100.356 231.309 100.673C231.348 100.907 229.272 102.783 228.96 103.117L226.772 101.925Z" fill="white"/>
<path d="M235.856 109.138C235.438 107.88 234.409 106.989 233.735 105.887C233.763 105.575 235.205 104 235.544 103.944C235.7 103.922 235.761 104.033 235.862 104.117C236.351 104.534 237.543 106.26 237.916 106.872C240.771 111.609 240.972 117.905 238.038 122.614C237.643 122.731 236.101 121.629 235.711 121.34C236.084 120.165 236.908 119.102 236.925 117.816H232.85C232.377 116.959 231.954 116.001 231.848 115.01H237.326C237.403 114.649 237.181 111.938 236.858 111.938H231.581C231.525 110.986 231.748 110.045 231.982 109.132H235.856V109.138Z" fill="white"/>
<path d="M242.27 123.834C242.716 122.799 243.3 121.858 243.706 120.795C245.872 115.095 244.881 109.033 241.257 104.207C240.979 103.834 239.364 102.131 239.331 101.991C239.292 101.813 239.426 101.752 239.559 101.685C240.005 101.468 242.242 101.106 242.615 101.379C242.805 101.518 243.645 102.665 243.851 102.949C247.581 108.12 248.61 114.622 246.718 120.728C246.54 121.296 245.894 123.244 245.426 123.445C245.07 123.601 242.437 123.979 242.276 123.829L242.27 123.834Z" fill="white"/>
<rect x="149.043" width="59.2392" height="16.3044" rx="8.15219" fill="#76849D"/>
</svg>
