<svg width="50" height="50" viewBox="0 0 370 326" fill="none" xmlns="http://www.w3.org/2000/svg">
<path d="M0 165.778L5.14945 162.124H290.362C300.495 161.127 300.495 174.914 290.362 173.918L3.48834 173.419L0.166111 170.429V165.778H0Z" fill="#76859C"/>
<path d="M46.5112 0C51.3284 3.15611 49.9995 12.7906 44.6839 12.7906H12.7906V44.85C12.7906 49.9995 3.15611 51.4945 0 46.6773V0H46.5112Z" fill="#76859C"/>
<path d="M0 252.323C3.15611 247.505 12.7906 248.834 12.7906 254.15V286.209H44.85C49.9995 286.209 51.4945 295.844 46.6773 299H0V252.323Z" fill="#175CC8"/>
<path d="M294.34 0C296.001 2.32556 297.496 3.15611 297.828 6.31223C298.659 12.1261 298.825 39.5345 297.828 44.85C296.333 52.6573 285.038 49.9995 285.038 44.85V12.7906H252.978C247.829 12.7906 246.334 3.15611 251.151 0H294.174H294.34Z" fill="#76859C"/>
<path d="M294.356 299H251.333C246.516 295.844 247.844 286.209 253.16 286.209H285.22V254.15C285.22 249.167 296.515 246.343 298.01 254.15C299.007 259.466 298.841 286.874 298.01 292.688C297.512 296.01 296.183 296.674 294.522 299H294.356Z" fill="#175CC8"/>
<path d="M161.618 56.1436H136.037V149.498H161.618V56.1436Z" fill="#76859C"/>
<path d="M74.4144 56.1436H49.9961V149.498H74.4144V56.1436Z" fill="#76859C"/>
<path d="M247.825 56.1436H223.406V149.498H247.825V56.1436Z" fill="#76859C"/>
<path d="M161.618 186.875H136.037V243.021H161.618V186.875Z" fill="#175CC8"/>
<path d="M74.4144 186.875H49.9961V243.021H74.4144V186.875Z" fill="#175CC8"/>
<path d="M247.825 186.875H223.406V243.021H247.825V186.875Z" fill="#175CC8"/>
<path d="M37.2222 56.1436H24.4316V149.498H37.2222V56.1436Z" fill="#76859C"/>
<path d="M124.427 56.1436H111.637V149.498H124.427V56.1436Z" fill="#76859C"/>
<path d="M186.203 56.1436H173.412V149.498H186.203V56.1436Z" fill="#76859C"/>
<path d="M273.41 56.1436H260.619V149.498H273.41V56.1436Z" fill="#76859C"/>
<path d="M98.8368 56.1436H87.209V149.498H98.8368V56.1436Z" fill="#76859C"/>
<path d="M210.636 56.1436H199.008V149.498H210.636V56.1436Z" fill="#76859C"/>
<path d="M37.2222 186.875H24.4316V243.021H37.2222V186.875Z" fill="#175CC8"/>
<path d="M124.427 186.875H111.637V243.021H124.427V186.875Z" fill="#175CC8"/>
<path d="M186.203 186.875H173.412V243.021H186.203V186.875Z" fill="#175CC8"/>
<path d="M273.41 186.875H260.619V243.021H273.41V186.875Z" fill="#175CC8"/>
<path d="M98.8368 186.875H87.209V243.021H98.8368V186.875Z" fill="#175CC8"/>
<path d="M210.636 186.875H199.008V243.021H210.636V186.875Z" fill="#175CC8"/>
<path d="M272 132.542C323.138 132.542 364.458 174.588 364.458 226.284C364.458 277.981 323.138 320.025 272 320.025C220.862 320.025 179.542 277.981 179.542 226.284C179.542 174.588 220.862 132.542 272 132.542Z" fill="#175CC8" stroke="white" stroke-width="10.9151"/>
<path d="M210 261.833C219.699 242.038 231.628 223.387 242.739 204.364L242.863 186.195C242.632 185.227 238.546 186.174 238.538 182.719C238.525 178.228 243.195 179.746 246.258 179.516L243.699 168H267.583L265.024 179.516H271.635C272.339 179.516 273.631 182.096 273.478 183.052C273.017 185.952 269.025 185.419 268.842 186.195L268.957 203.942C274.719 214.166 281.001 224.078 286.845 234.25C290.269 240.213 301.069 257.286 301.649 262.954C302.361 269.923 299.653 275.698 292.121 276.351H219.579C214.167 275.886 212.324 273.105 210 268.657V261.833ZM225.781 246.905H285.919L262.26 206.352C258.52 206.791 253.901 205.878 250.284 206.365C249.691 206.446 249.171 206.45 248.787 207L225.781 246.905Z" fill="#76859C"/>
<path d="M346.484 207.666V210.225C344.841 211.555 343.801 212.6 341.63 211.449C340.755 210.984 340.218 209.457 339.233 209.986L300.834 249.033L299.802 248.585L280.012 215.049L311.731 182.919C312.456 181.648 310.776 181.085 310.413 179.968C309.172 176.172 313.079 174.261 315.779 176.735L346.479 207.666H346.484ZM287.198 217.475H322.812C324.139 215.808 335.091 205.81 334.938 204.953C329.952 199.741 324.906 194.478 319.626 189.547C318.837 188.81 318.509 187.227 316.909 187.283L287.203 217.475H287.198Z" fill="#76859C"/>
<path d="M225.781 246.905L248.787 207C249.171 206.45 249.691 206.442 250.284 206.365C253.901 205.879 258.52 206.791 262.261 206.352L285.919 246.905H225.781ZM256.183 223.14C252.903 226.419 257.646 231.704 261.165 228.761C265.033 225.532 259.599 219.719 256.183 223.14ZM246.983 229.934C241.481 231.201 243.008 241.339 250.545 239.036C255.275 237.59 254.217 228.27 246.983 229.934ZM259.194 240.789C263.83 245.711 271.61 238.2 266.317 233.453C261.711 229.315 254.835 236.161 259.194 240.789Z" fill="#F9F9F9"/>
<path d="M287.2 217.476L316.906 187.283C318.506 187.223 318.838 188.81 319.623 189.548C324.903 194.478 329.949 199.741 334.935 204.953C335.088 205.815 324.135 215.808 322.809 217.476H287.195H287.2ZM316.514 197.076C312.475 197.912 313.601 204.309 318.024 203.311C321.5 202.526 320.881 196.171 316.514 197.076ZM307.548 206.902C302.865 207.982 303.343 216.081 308.738 216.23C316.288 216.443 315.277 205.12 307.548 206.902ZM318.011 207.342C315.772 209.577 319.759 213.249 321.777 210.472C323.649 207.896 319.943 205.414 318.011 207.342Z" fill="#F6F6F6"/>
<path d="M259.195 240.788C254.836 236.161 261.711 229.315 266.317 233.452C271.61 238.204 263.827 245.715 259.195 240.788Z" fill="#175CC8"/>
<path d="M246.982 229.934C254.216 228.271 255.269 237.59 250.544 239.036C243.011 241.339 241.48 231.201 246.982 229.934Z" fill="#175CC8"/>
<path d="M256.183 223.14C259.6 219.723 265.033 225.532 261.165 228.761C257.646 231.7 252.903 226.42 256.183 223.14Z" fill="#175CC8"/>
<path d="M307.548 206.902C315.277 205.12 316.287 216.443 308.738 216.23C303.343 216.081 302.865 207.981 307.548 206.902Z" fill="#175CC8"/>
<path d="M316.513 197.076C320.881 196.171 321.504 202.531 318.023 203.311C313.596 204.309 312.474 197.907 316.513 197.076Z" fill="#175CC8"/>
<path d="M318.011 207.342C319.943 205.409 323.649 207.896 321.777 210.472C319.755 213.253 315.772 209.581 318.011 207.342Z" fill="#175CC8"/>
</svg>
