<svg width="50" height="50" viewBox="0 0 214 264" fill="none" xmlns="http://www.w3.org/2000/svg">
<path d="M107.547 0V241.98C107.547 243.55 102.009 244.785 100.571 245.177C70.4576 253.374 35.3596 254.711 4.86866 262.981C3.32813 263.649 0 261.978 0 260.873V21.0733C0 20.2449 4.04027 17.9196 5.45 17.8033L107.547 0ZM94.4667 31.9733L18.8933 45.0533V71.94C18.8933 72.5795 21.1751 74.3671 22.3813 74.0473L94.4667 58.86V31.9733ZM97.3879 90.1067C87.9412 92.1123 18.3556 101.312 16.2047 104.843C15.4344 106.108 16.2337 108.767 16.0012 110.439C43.2803 106.98 70.2977 100.963 97.1844 95.702L97.3879 90.1067ZM97.3733 120.627L18.4137 133.939C15.26 134.913 15.9285 138.328 15.9867 140.959L94.9463 127.646C98.1 126.673 97.446 123.257 97.3733 120.627ZM97.3733 151.147C87.9557 153.428 18.3411 162.352 16.1901 165.883C15.4199 167.148 16.2192 169.807 15.9867 171.479L94.9463 158.166C98.0855 157.193 97.446 153.777 97.3588 151.147H97.3733ZM97.3733 181.667L16.2047 196.403L15.9867 201.999L94.9463 188.686C98.0855 187.713 97.446 184.297 97.3733 181.667ZM97.3733 212.187L16.9168 226.662L15.9867 232.519L94.9172 219.163C98.0855 218.218 97.446 214.977 97.3733 212.187Z" fill="#76859C"/>
<path d="M213.64 17.44V261.6L113.36 244.16V0L213.64 17.44ZM202.014 70.4867C203.104 66.5772 202.014 52.6107 202.014 47.2333C202.014 45.8672 198.322 44.2104 196.825 43.7017C185.431 39.8649 146.802 33.1796 134.245 32.1332C132.268 31.9733 124.987 31.392 124.987 34.1533V57.4067C124.987 57.988 126.498 60.7203 127.559 61.0109L197.261 73.7567C198.831 74.0764 201.752 71.4168 201.999 70.4867H202.014ZM204.92 104.655C202.784 101.399 137.297 93.7691 128.388 90.2084C126.208 89.6707 123.04 90.0631 122.095 92.2867C120.409 96.2397 123.621 96.0653 126.135 96.8792C140.305 101.37 183.658 109.32 198.613 110.337C202.421 110.599 207.478 108.549 204.92 104.655ZM204.92 135.175C202.784 131.919 137.297 124.449 128.388 120.728C126.208 120.191 123.04 120.583 122.095 122.807C120.409 126.76 123.621 126.585 126.135 127.399C140.436 131.934 182.001 139.607 197.13 140.828C200.124 141.075 208.263 140.261 204.906 135.175H204.92ZM204.92 165.695L122.08 151.147C122.284 153.675 120.889 156.887 123.853 157.381L197.13 171.348C200.895 173.15 207.42 169.502 204.906 165.695H204.92ZM204.92 196.215L126.949 181.739C120.758 182.277 119.159 186.259 126.135 188.439C141.148 193.148 181.333 200.589 197.13 201.868C200.139 202.115 208.219 201.33 204.906 196.215H204.92ZM124.493 212.317C121.179 213.756 120.918 218.015 124.536 219.177L197.13 232.403C205.473 233.856 208.263 228.086 199.427 225.674L124.478 212.332L124.493 212.317Z" fill="#76859C"/>
<path d="M94.4669 31.9736V58.8603L22.3816 74.0476C21.1753 74.3674 18.8936 72.5798 18.8936 71.9403V45.0536L94.4669 31.9736ZM88.6681 39.2258L26.1893 49.4136V65.4003L86.2556 54.9944C90.8045 52.2622 87.9414 43.9782 88.6681 39.2258Z" fill="#175CC8"/>
<path d="M97.3722 151.147C97.4449 153.763 98.0989 157.178 94.9597 158.167L16.0001 171.479C16.2471 169.808 15.4333 167.134 16.2035 165.884C18.3545 162.367 87.9691 153.429 97.3867 151.147H97.3722Z" fill="#175CC8"/>
<path d="M97.3734 120.627C97.4461 123.243 98.1001 126.658 94.9464 127.647L15.9868 140.959C15.9286 138.343 15.2601 134.928 18.4138 133.939L97.3734 120.627Z" fill="#175CC8"/>
<path d="M97.5235 90.374L97.32 95.9693C70.4188 101.23 43.4159 107.247 16.1368 110.706C16.3839 109.035 15.57 106.361 16.3403 105.111C18.4912 101.594 88.0913 92.3796 97.5235 90.374Z" fill="#175CC8"/>
<path d="M97.373 212.187C97.4457 214.992 98.0997 218.218 94.9169 219.163L15.9863 232.519L16.9165 226.662L97.373 212.187Z" fill="#175CC8"/>
<path d="M97.373 181.667C97.4457 184.283 98.0997 187.698 94.9459 188.687L15.9863 201.999L16.2043 196.404L97.373 181.667Z" fill="#175CC8"/>
<path d="M202.013 70.487C201.752 71.4172 198.845 74.0768 197.275 73.757L127.573 61.0113C126.512 60.7206 125.001 57.9884 125.001 57.407V34.1537C125.001 31.3924 132.282 31.9737 134.259 32.1336C146.816 33.18 185.445 39.8653 196.839 43.7021C198.336 44.2108 202.028 45.853 202.028 47.2337C202.028 52.611 203.118 66.5776 202.028 70.487H202.013ZM194.761 65.4004C194.194 61.738 196.2 52.0588 193.366 50.0677L132.268 39.2258L132.34 55.1398L194.761 65.3858V65.4004Z" fill="#175CC8"/>
<path d="M204.92 165.695C207.434 169.503 200.909 173.15 197.145 171.348L123.868 157.382C120.888 156.888 122.298 153.676 122.095 151.147L204.935 165.695H204.92Z" fill="#175CC8"/>
<path d="M205.057 104.922C207.63 108.817 202.557 110.866 198.75 110.605C183.795 109.588 140.442 101.638 126.272 97.147C123.743 96.3477 120.531 96.5221 122.232 92.5545C123.176 90.3309 126.359 89.9385 128.525 90.4762C137.419 94.0224 202.906 101.667 205.057 104.922Z" fill="#175CC8"/>
<path d="M205.056 135.442C208.414 140.529 200.275 141.343 197.281 141.096C182.152 139.875 140.586 132.187 126.286 127.667C123.757 126.868 120.545 127.042 122.245 123.075C123.19 120.851 126.373 120.459 128.538 120.996C137.447 124.717 202.92 132.187 205.071 135.442H205.056Z" fill="#175CC8"/>
<path d="M204.92 196.215C208.233 201.331 200.153 202.115 197.144 201.868C181.332 200.589 141.162 193.148 126.149 188.44C119.173 186.245 120.757 182.263 126.963 181.74L204.934 196.215H204.92Z" fill="#175CC8"/>
<path d="M124.492 212.318L199.441 225.659C208.277 228.072 205.486 233.842 197.144 232.388L124.55 219.163C120.932 218.015 121.179 213.742 124.507 212.303L124.492 212.318Z" fill="#175CC8"/>
<path d="M194.761 65.4002L132.34 55.1542L132.268 39.2402L193.366 50.0821C196.2 52.0732 194.209 61.7524 194.761 65.4148V65.4002Z" fill="#175CC8"/>
<path d="M100 77.4668L14 86.4668V28.9668L97.5 19.4668L100 77.4668Z" fill="#76859C" stroke="#76859C" stroke-width="3"/>
<path d="M206 77.4668L120 86.4668V28.9668L203.5 19.4668L206 77.4668Z" fill="#76859C" stroke="#76859C" stroke-width="3"/>
<path d="M163.969 25.9287C166.31 25.9864 168.622 26.4748 170.788 27.3721C173.099 28.3291 175.197 29.7326 176.966 31.501C178.734 33.2694 180.138 35.3682 181.095 37.6787C182.052 39.9892 182.544 42.4659 182.544 44.9668C182.544 52.6367 177.895 59.3061 173.853 63.7266L173.85 63.7295C172.077 65.6595 170.171 67.4629 168.146 69.126L168.141 69.1299C166.924 70.1203 165.665 71.0576 164.367 71.9385L163.493 72.5312L162.624 71.9316C161.349 71.0527 160.079 70.1364 158.852 69.124V69.123C156.828 67.4603 154.922 65.6589 153.149 63.7285L153.147 63.7266C149.105 59.3045 144.456 52.6369 144.456 44.9668C144.456 42.4659 144.948 39.9892 145.905 37.6787C146.862 35.3682 148.266 33.2694 150.034 31.501C151.803 29.7326 153.901 28.3291 156.212 27.3721C158.522 26.415 160.999 25.9229 163.5 25.9229L163.969 25.9287ZM163.5 40.1914C162.234 40.1914 161.019 40.6943 160.123 41.5898C159.227 42.4854 158.725 43.7003 158.725 44.9668L158.73 45.2031C158.789 46.3836 159.283 47.5041 160.123 48.3438C161.019 49.2393 162.234 49.7422 163.5 49.7422C164.766 49.7422 165.981 49.2393 166.877 48.3438C167.773 47.4482 168.275 46.2333 168.275 44.9668L168.27 44.7305C168.211 43.55 167.717 42.4295 166.877 41.5898C165.981 40.6943 164.766 40.1914 163.5 40.1914Z" fill="#175CC8" stroke="#FCFDFE" stroke-width="3.08824"/>
<path d="M63.4869 27.4668C66.2404 28.8924 65.9835 33.2234 65.6651 35.9768C65.3069 39.0596 62.1807 38.6145 62.0215 39.2839C61.8949 39.823 61.8949 46.9545 62.0215 47.4864C78.119 54.4587 78.0683 78.1833 61.4064 84.5477C43.518 91.3825 27.0515 71.8478 37.0088 55.4464C39.2521 51.7522 42.7546 49.281 46.4198 47.1282C46.5862 46.6433 46.5935 39.7542 46.4307 39.273C46.1086 38.3323 43.5578 38.9329 43.2141 35.9768C42.8957 33.2234 42.6388 28.8888 45.3922 27.4668H63.4833H63.4869ZM62.7633 30.3614H46.3004C45.5949 30.3614 45.3126 35.4124 46.3474 35.738C47.7585 36.1831 48.692 34.8733 48.9743 37.0804C49.1733 38.6435 49.2854 47.4068 48.9417 48.561C48.6884 49.4149 45.9639 50.3737 44.9183 51.0503C41.0938 53.5324 38.2101 58.3519 37.7976 62.9217C40.9599 62.4694 44.1548 61.8796 47.3786 62.2053C49.8426 62.4549 53.0086 64.7416 54.9298 64.6186C56.6774 64.5064 58.255 61.724 59.8977 60.606C62.4847 58.8476 65.799 58.0335 68.907 58.218C67.4525 53.6011 63.5159 51.1806 59.5575 48.9373L59.5503 36.3821C59.9266 35.2387 62.0469 36.2337 62.5968 35.4486C63.1142 34.7105 62.5462 31.4649 62.756 30.3614H62.7633ZM66.2838 62.9868C63.856 63.6779 64.7714 68.0957 67.8432 67.1188C70.4158 66.2975 69.1965 62.1582 66.2838 62.9868ZM42.3927 68.7904C39.7551 69.5828 40.5945 74.2033 43.6881 73.7148C46.7816 73.2263 46.4777 67.5602 42.3927 68.7904ZM61.0627 72.0757C58.7181 74.9848 63.4435 78.5994 65.3177 75.4334C67.192 72.2675 62.8537 69.8542 61.0627 72.0757ZM52.5418 74.5723C48.4243 75.3575 49.1009 81.8087 53.5006 81.3709C58.2984 80.8933 56.8149 73.7546 52.5418 74.5723Z" fill="#175CC8"/>
<path d="M62.7631 30.3618C62.5533 31.4654 63.1249 34.7109 62.6039 35.449C62.0539 36.2342 59.9301 35.2392 59.5574 36.3825L59.5646 48.9377C63.5229 51.1846 67.4596 53.6016 68.9141 58.2184C65.8024 58.0339 62.4881 58.8444 59.9047 60.6065C58.2621 61.7245 56.6845 64.5105 54.9369 64.6191C53.0157 64.7421 49.8497 62.4554 47.3857 62.2057C44.1619 61.8801 40.9634 62.4698 37.8047 62.9221C38.2172 58.3559 41.1009 53.5365 44.9253 51.0508C45.971 50.3705 48.6919 49.4117 48.9488 48.5614C49.2925 47.4072 49.1803 38.6439 48.9813 37.0808C48.6991 34.8737 47.7656 36.1835 46.3545 35.7385C45.3197 35.4128 45.6019 30.3618 46.3075 30.3618H62.7704H62.7631Z" fill="#FCFCFC"/>
<path d="M52.5417 74.5729C56.8148 73.7588 58.2983 80.8975 53.5006 81.3715C49.1008 81.8093 48.4242 75.3581 52.5417 74.5729Z" fill="#F6F6F6"/>
<path d="M61.0631 72.0758C62.8541 69.8542 67.12 72.3906 65.3181 75.4335C63.5163 78.4764 58.7185 74.9848 61.0631 72.0758Z" fill="#F6F6F6"/>
<path d="M42.3921 68.7905C46.477 67.5639 46.8678 73.2155 43.6874 73.7149C40.507 74.2142 39.7544 69.5792 42.3921 68.7905Z" fill="#F5F5F5"/>
<path d="M66.2839 62.9868C69.1965 62.1546 70.4195 66.2975 67.8433 67.1188C64.7715 68.0993 63.8561 63.6779 66.2839 62.9868Z" fill="#F0F0F0"/>
</svg>
