<svg viewBox="0 0 372 278" fill="none" xmlns="http://www.w3.org/2000/svg">
<path d="M0 82.7695H371.1C372.868 82.7695 371.489 87.458 371.465 88.8126C370.451 142.859 372.309 197.028 371.514 251.083C368.983 264.921 357.732 276.058 343.554 277.469L27.1735 277.445C15.428 276.772 0.00811148 261.936 0.00811148 250.263V82.7695H0ZM273.081 109.773C270.323 109.911 267.014 112.19 266.162 114.907L217.785 233.635C215.335 243.093 227.632 247.676 232.151 239.078C247.919 198.593 265.91 158.807 280.722 118.054C281.517 113.666 277.299 109.562 273.081 109.773ZM36.2908 117.032C28.739 118.387 27.871 129.224 35.0984 131.625C38.1645 132.639 51.2402 132.752 54.7038 132.209C62.5233 130.968 63.2209 119.425 56.0098 117.203C53.2681 116.359 39.4218 116.473 36.2826 117.032H36.2908ZM75.2015 117.008C67.2117 119.888 67.7633 130.173 75.891 132.201C90.224 130.911 108.118 134.123 122.005 132.177C131.268 130.879 131.43 119.109 122.84 116.886L75.2015 117.008ZM204.936 155.489C207.402 152.966 214.678 145.869 216.13 143.573C220.421 136.776 213.186 129.922 206.234 132.866L166.658 171.963C164.079 175.581 164.095 178.169 166.658 181.762C170.739 187.481 198.553 215.133 204.393 219.464C212.448 225.434 221.168 217.071 215.652 209.017C205.18 198.123 193.264 188.397 184.09 176.425C189.719 168.719 198.163 162.416 204.936 155.489ZM293.968 219.383C301.852 213.518 324.597 191.131 330.559 183.368C334.469 178.282 334.55 175.362 330.551 170.365C324.597 162.919 301.788 139.688 294.463 134.261C286.603 128.437 278.321 134.894 282.385 143.906L314.669 176.563L313.963 178.096L282.085 210.314C279.157 218.118 284.891 223.909 292.646 220.908C293.481 220.584 293.571 219.667 293.968 219.375V219.383ZM35.4553 151.887C28.7552 153.388 28.4145 163.998 34.8388 165.953C37.475 166.756 52.4407 166.748 55.515 166.269C62.5719 165.166 62.6531 153.907 56.8209 152.082C54.3956 151.32 38.1239 151.295 35.4553 151.887ZM135.989 153.623C134.959 152.593 133.328 151.798 131.844 151.677L75.0474 151.733C67.7146 154.783 67.9904 163.106 75.0474 166.302L131.763 166.277C137.465 165.182 140.207 157.866 135.981 153.631L135.989 153.623ZM35.4553 185.956C28.812 187.44 28.0089 198.82 35.6662 200.808C38.7404 201.611 51.4187 201.668 54.7038 201.148C62.5233 199.907 63.2209 188.365 56.0098 186.142C53.5601 185.388 38.1239 185.364 35.4553 185.956ZM75.2015 185.956C67.2117 188.835 67.7633 199.121 75.891 201.148C91.2379 199.599 111.322 203.403 126.085 201.148C135.007 199.778 135.007 187.205 126.085 185.842L75.2015 185.964V185.956ZM35.4553 220.835C28.7552 222.336 28.4145 232.945 34.8388 234.9C37.475 235.703 52.4407 235.695 55.515 235.217C62.5719 234.113 62.6531 222.855 56.8209 221.03C54.3956 220.267 38.1239 220.243 35.4553 220.835ZM75.2015 220.835C67.4956 223.861 67.8444 233.181 75.891 235.217L148.051 235.282C156.146 234.835 156.414 221.906 148.797 220.713L75.2015 220.835Z" fill="#76849D"/>
<path d="M371.506 67.3577H0V27.2059C0 15.8498 15.3956 0.267679 27.141 0L345.135 0.0405574C354.893 -0.170341 371.506 15.6389 371.506 24.7725V67.3577ZM36.2908 31.8619C27.8467 33.3706 27.8061 45.9191 37.7021 47.0952C84.2539 46.6491 131.033 47.8983 177.439 46.4625C185.047 42.2932 182.914 33.0381 174.827 31.6429L36.2989 31.8538L36.2908 31.8619ZM196.874 31.8376C189.638 33.4598 189.671 45.2783 197.701 46.8925C202.008 47.7604 223.755 47.7442 228.289 47.0304C236.32 45.765 236.433 33.5085 228.979 31.8376C225.661 31.0913 200.191 31.0913 196.874 31.8376ZM250.409 31.8376C244.082 33.249 242.355 44.7835 250.588 46.7221C254.725 47.7036 277.34 47.7361 281.825 47.0222C289.985 45.7244 290.229 33.5734 282.515 31.8294C279.23 31.0832 253.727 31.0913 250.409 31.8294V31.8376ZM303.945 31.8376C296.904 33.4112 296.393 45.1972 304.773 46.8925C309.047 47.7604 330.851 47.7442 335.361 47.0304C343.156 45.7974 343.919 33.614 336.05 31.8376C332.773 31.0994 307.238 31.0994 303.945 31.8376Z" fill="#0E5BCA"/>
<path d="M273.08 109.773C277.298 109.563 281.524 113.659 280.721 118.055C265.91 158.807 247.919 198.594 232.15 239.078C227.624 247.677 215.327 243.094 217.784 233.636L266.161 114.908C267.013 112.191 270.331 109.911 273.08 109.773Z" fill="#F6F6F6"/>
<path d="M293.968 219.382C293.57 219.674 293.481 220.59 292.646 220.915C284.891 223.924 279.156 218.125 282.085 210.321L313.963 178.103L314.668 176.569L282.385 143.913C278.321 134.893 286.611 128.444 294.463 134.268C301.787 139.695 324.597 162.934 330.551 170.372C334.55 175.369 334.469 178.289 330.559 183.375C324.597 191.13 301.844 213.517 293.968 219.39V219.382Z" fill="#F5F5F5"/>
<path d="M204.937 155.488C198.156 162.424 189.712 168.718 184.091 176.424C193.265 188.389 205.18 198.122 215.652 209.016C221.168 217.071 212.448 225.434 204.394 219.464C198.553 215.132 170.739 187.48 166.659 181.762C164.096 178.168 164.08 175.581 166.659 171.963L206.235 132.866C213.186 129.921 220.422 136.775 216.131 143.573C214.679 145.876 207.395 152.974 204.937 155.488Z" fill="#F5F5F5"/>
<path d="M75.2017 220.837L148.797 220.715C156.414 221.907 156.146 234.845 148.051 235.283L75.8911 235.218C67.8446 233.182 67.4958 223.862 75.2017 220.837Z" fill="#FAFAFA"/>
<path d="M135.988 153.623C140.214 157.857 137.465 165.174 131.77 166.269L75.0549 166.293C67.9979 163.097 67.7221 154.783 75.0549 151.725L131.851 151.668C133.336 151.79 134.966 152.576 135.996 153.615L135.988 153.623Z" fill="#FAFAFA"/>
<path d="M75.2005 185.958L126.084 185.836C135.006 187.207 135.006 199.78 126.084 201.142C111.321 203.405 91.2369 199.601 75.8899 201.142C67.7622 199.114 67.2107 188.829 75.2005 185.949V185.958Z" fill="#F3F3F3"/>
<path d="M75.2005 117.008L122.839 116.887C131.421 119.109 131.259 130.879 122.004 132.177C108.109 134.124 90.2229 130.92 75.8899 132.201C67.7622 130.173 67.2107 119.888 75.2005 117.008Z" fill="#F4F4F4"/>
<path d="M35.4549 185.954C38.1235 185.362 53.5597 185.386 56.0093 186.14C63.2205 188.363 62.5229 199.906 54.7034 201.147C51.4183 201.666 38.7481 201.609 35.6658 200.806C28.0085 198.811 28.8116 187.438 35.4549 185.954Z" fill="#F3F3F3"/>
<path d="M36.2921 117.03C39.4231 116.471 53.2775 116.349 56.0192 117.201C63.2303 119.423 62.5327 130.966 54.7132 132.207C51.2496 132.758 38.1739 132.645 35.1078 131.623C27.8724 129.222 28.7403 118.385 36.3002 117.03H36.2921Z" fill="#F3F3F3"/>
<path d="M35.4542 151.886C38.1229 151.286 54.4026 151.318 56.8198 152.081C62.652 153.906 62.5709 165.164 55.5139 166.268C52.4315 166.746 37.474 166.754 34.8377 165.951C28.4134 163.996 28.7622 153.387 35.4542 151.886Z" fill="#F6F6F6"/>
<path d="M35.4542 220.835C38.1229 220.235 54.4026 220.267 56.8198 221.03C62.652 222.855 62.5709 234.114 55.5139 235.217C52.4315 235.695 37.474 235.704 34.8377 234.901C28.4134 232.946 28.7622 222.336 35.4542 220.835Z" fill="#F6F6F6"/>
<path d="M36.2899 31.8632L174.818 31.6523C182.905 33.0394 185.038 42.2946 177.43 46.472C131.024 47.9077 84.245 46.6586 37.6932 47.1047C27.7972 45.9204 27.8459 33.3801 36.2818 31.8714L36.2899 31.8632Z" fill="#F4F4F4"/>
<path d="M250.41 31.8379C253.719 31.0998 279.222 31.0916 282.515 31.8379C290.237 33.5819 289.986 45.741 281.825 47.0307C277.332 47.7445 254.725 47.704 250.588 46.7306C242.355 44.7838 244.083 33.2574 250.41 31.846V31.8379Z" fill="#F3F3F3"/>
<path d="M303.946 31.8349C307.239 31.0967 332.774 31.0967 336.051 31.8349C343.919 33.6194 343.165 45.8028 335.361 47.0277C330.851 47.7415 309.048 47.7577 304.773 46.8898C296.394 45.1945 296.905 33.4085 303.946 31.8349Z" fill="#F3F3F3"/>
<path d="M196.874 31.837C200.192 31.0908 225.662 31.0908 228.979 31.837C236.442 33.508 236.32 45.7644 228.29 47.0298C223.756 47.7436 202.009 47.7518 197.701 46.8919C189.671 45.2778 189.639 33.4593 196.874 31.837Z" fill="#F3F3F3"/>
</svg>
