<svg width="50" height="50" viewBox="0 0 1135 1131" fill="none" xmlns="http://www.w3.org/2000/svg">
<path d="M296.684 0.0966264C270.917 4.50913 252.365 22.9966 248.919 48.9562L248.823 829.325C250.98 845.397 270.885 847.201 273.236 829.325C274.041 568.215 270.982 306.621 274.75 45.7676C279.291 28.3109 294.332 24.8968 310.437 23.4797L863.417 23.834C876.429 25.3799 889.151 31.4995 892.758 45.2201C897.493 63.3532 889.215 108.026 895.077 120.168C900.327 130.99 916.302 127.802 918.17 114.242C920.232 98.9754 919.459 46.5406 914.37 33.2387C907.574 15.4277 889.151 2.28677 870.309 0H296.684V0.0966264ZM855.268 156.467H959.139V127.479C950.121 128.768 935.692 125.096 927.768 128.736C920.586 132.021 921.778 139.332 907.22 139.783C889.827 140.298 890.407 130.346 882.548 127.995C874.689 125.644 863.449 128.575 855.236 127.479V156.467H855.268ZM985.711 180.623H828.696V226.519H985.711V180.623ZM127.463 217.34C119.99 219.53 118.315 232.381 123.308 237.438C128.3 242.494 172.296 242.752 177.868 238.758C187.047 232.188 184.02 219.015 172.811 216.889C167.078 215.826 132.39 215.858 127.463 217.308V217.34ZM316.009 274.252C320.743 269.517 322.482 227.357 312.433 224.49C289.823 218.113 292.658 253.993 295.428 268.325C297.296 277.956 310.243 280.049 316.009 274.252ZM891.502 250.675H852.852V616.623C852.852 630.215 832.98 631.954 823.897 635.98C748.434 669.573 695.613 729.867 683.728 813.479C734.23 819.92 740.028 868.265 796.166 864.303C835.621 861.501 851.145 816.12 891.47 813.479V250.675H891.502ZM963.97 250.675H915.658V809.872C920.103 815.347 927.865 812.867 934.564 815.121C978.882 830.163 983.07 870.423 1040.08 864.206C1072.93 860.631 1094.41 813.092 1130.58 813.382C1121.34 725.068 1052.12 652.213 968.093 627.606C966.74 626.672 964.002 622.485 964.002 621.422V250.643L963.97 250.675ZM188.078 268.1C136.288 273.221 142.536 352.646 194.52 349.812C248.146 346.881 242.8 262.689 188.078 268.1ZM342.451 285.009C330.534 288.423 330.534 307.136 342.451 310.55C354.368 313.964 398.654 313.932 387.865 291.741C383.42 282.593 350.922 282.594 342.451 285.009ZM335.269 335.801C286.281 344.852 306.153 425.533 357.686 406.498C398.88 391.296 382.679 327.041 335.269 335.801ZM162.569 407.11C169.913 414.453 203.763 412.585 197.805 392.487C195.196 383.695 172.94 384.403 166.08 386.432C157.899 388.848 157.738 402.279 162.537 407.11H162.569ZM1123.4 716.887V500.706C1123.4 483.443 1093.16 451.17 1076.31 451.17H988.126V499.483H1042.49C1055.83 499.483 1072.41 522.415 1074.54 535.072C1080.76 572.112 1070.71 621.229 1075.6 659.621C1093.41 677.303 1108.81 696.531 1123.43 716.887H1123.4ZM234.458 487.405H175.259C165.114 487.405 162.473 518.807 177.675 518.807H234.426V487.405H234.458ZM287.601 518.807H346.799C351.792 518.807 359.232 508.114 359.457 502.671C359.65 498.452 351.405 487.405 349.215 487.405H287.633V518.807H287.601ZM26.7158 670.99V532.109C26.7158 518.292 2.81737 511.238 0.111898 534.493L0.0474837 1111.98C-0.210181 1119.26 2.39867 1126.57 9.67769 1128.92L516.021 1130.12C522.688 1130.37 528.807 1128.02 532.833 1122.77L534.154 532.045C531.48 512.334 509.869 521.577 509.869 527.342V671.055H357.686V880.021C357.686 927.946 309.18 971.266 262.221 970.783C213.233 970.268 166.853 927.656 166.853 877.605V671.087H26.7158V670.99ZM234.458 542.963H190.977V741.043H234.458V542.963ZM333.498 542.963H287.601V741.043H333.498V542.963ZM234.458 765.199H190.977V882.372C190.977 915.095 228.242 945.628 259.741 946.53C291.852 947.432 333.498 918.477 333.498 884.787V765.231H287.601V836.475C287.601 837.087 282.48 845.912 281.385 847.169C267.31 863.079 234.458 851.71 234.458 834.06V765.199ZM891.502 837.667C866.09 843.142 851.242 868.619 828.793 880.021C805.152 892.034 772.171 892.131 748.466 880.439C724.761 868.748 708.979 839.857 681.344 837.635V872.677C681.344 882.63 690.266 912.035 694.034 922.793C710.783 970.622 745.374 1012.2 787.728 1039.26L1023.01 1040.45C1076.63 1012.49 1118.21 952.618 1129.52 893.323C1131.03 885.399 1136.8 843.593 1134.38 839.986C1125.82 827.167 1087.36 867.234 1079.69 872.516C1051.58 891.938 1014.83 895.352 984.422 878.829C960.943 866.075 944.903 836.83 915.626 837.699V969.366C915.626 981.573 891.47 977.772 891.47 969.366V837.699L891.502 837.667ZM766.664 1100.19C770.883 1104.06 778.259 1105.41 783.895 1105.93C863.642 1113.21 954.372 1100.16 1035.28 1105.86C1059.56 1103.67 1064.91 1067.83 1037.69 1064.7H779.128C761.51 1064.7 754.618 1089.18 766.664 1100.23V1100.19Z" fill="#FDFDFD"/>
<path d="M26.7177 670.991H166.823V877.509C166.823 927.56 213.202 970.204 262.191 970.687C309.15 971.17 357.655 927.818 357.655 879.924V670.959H509.839V527.246C509.839 521.513 531.418 512.237 534.123 531.949L532.803 1122.68C528.777 1127.93 522.657 1130.28 515.99 1130.02L9.64742 1128.83C2.3684 1126.48 -0.240454 1119.17 0.0172103 1111.89L0.0816248 534.396C2.81931 511.142 26.6855 518.196 26.6855 532.013V670.894L26.7177 670.991ZM75.6095 800.854C78.3794 803.624 86.3992 804.59 90.232 803.463C105.144 799.147 103.019 751.64 80.5051 762.107C70.2308 766.874 69.8765 795.153 75.6095 800.854ZM81.568 830.807C75.7383 832.579 73.1939 840.598 72.582 846.042C69.329 874.095 69.9087 940.701 72.5175 969.398C74.6433 992.814 96.2227 991.976 99.057 973.972C95.8684 933.551 103.824 885.497 99.2502 846.042C98.123 836.218 92.712 827.425 81.568 830.807ZM509.839 1030.92H27.9416C22.6273 1030.92 24.4953 1050.53 24.3343 1055.07H509.871V1030.92H509.839Z" fill="#76859C"/>
<path d="M891.503 837.667V969.334C891.503 977.74 915.659 981.541 915.659 969.334V837.667C944.936 836.766 960.944 866.01 984.456 878.797C1014.86 895.32 1051.61 891.906 1079.73 872.484C1087.36 867.202 1125.85 827.135 1134.42 839.954C1136.83 843.561 1131.07 885.4 1129.55 893.291C1118.25 952.618 1076.67 1012.49 1023.04 1040.42L787.761 1039.23C745.408 1012.17 710.816 970.59 694.068 922.761C690.3 912.004 681.378 882.598 681.378 872.645V837.603C709.012 839.825 724.666 868.651 748.5 880.407C772.334 892.163 805.218 892.002 828.826 879.989C851.275 868.555 866.123 843.111 891.536 837.635L891.503 837.667Z" fill="#175CC8"/>
<path d="M963.971 250.675V621.454C963.971 622.549 966.709 626.704 968.062 627.638C1052.09 652.245 1121.31 725.1 1130.55 813.414C1094.38 813.092 1072.9 860.664 1040.05 864.239C983.038 870.423 978.851 830.163 934.533 815.154C927.834 812.899 920.072 815.347 915.627 809.904V250.675H963.939H963.971Z" fill="#175CC8"/>
<path d="M891.505 250.675V813.511C851.18 816.152 835.656 861.566 796.201 864.335C740.062 868.297 734.265 819.953 683.763 813.511C695.647 729.899 748.469 669.573 823.932 636.013C833.015 631.986 852.887 630.215 852.887 616.655V250.708H891.537L891.505 250.675ZM806.314 668.994C794.043 671.635 743.444 715.953 741.673 727.902C740.707 734.376 745.924 742.911 752.752 743.587C761.899 744.489 775.491 722.491 782.802 715.663C790.951 708.03 822.676 689.349 823.385 681.49C824.19 672.665 814.817 667.19 806.314 669.026V668.994ZM726.503 755.988C717.517 758.725 696.195 813.221 727.952 803.398C733.041 801.82 743.605 774.443 744.056 768.516C744.958 757.211 736.713 752.863 726.471 755.988H726.503Z" fill="#175CC8"/>
<path d="M296.683 0.0986328H870.341C889.183 2.3532 907.606 15.5263 914.402 33.3373C919.491 46.6393 920.264 99.074 918.202 114.341C916.366 127.9 900.359 131.089 895.109 120.267C889.215 108.092 897.493 63.4519 892.79 45.3187C889.215 31.5981 876.493 25.4464 863.449 23.9326L310.468 23.5783C294.332 24.9632 279.291 28.3773 274.782 45.8663C271.014 306.687 274.041 568.281 273.268 829.424C270.917 847.299 251.012 845.463 248.854 829.424L248.951 49.0549C252.397 23.063 270.917 4.57555 296.716 0.195253L296.683 0.0986328Z" fill="#175CC8"/>
<path d="M234.458 765.2V834.061C234.458 851.711 267.311 863.081 281.386 847.17C282.481 845.946 287.602 837.089 287.602 836.477V765.232H333.498V884.789C333.498 918.478 291.885 947.433 259.742 946.532C228.242 945.662 190.978 915.096 190.978 882.373V765.2H234.458Z" fill="#175CC8"/>
<path d="M1123.4 716.888C1108.78 696.532 1093.38 677.336 1075.57 659.622C1070.68 621.262 1080.69 572.113 1074.51 535.073C1072.38 522.383 1055.8 499.483 1042.46 499.483H988.096V451.171H1076.28C1093.13 451.171 1123.37 483.412 1123.37 500.707V716.888H1123.4Z" fill="#175CC8"/>
<path d="M766.665 1100.19C754.62 1089.18 761.512 1064.67 779.13 1064.67H1037.7C1064.91 1067.83 1059.57 1103.64 1035.28 1105.83C954.374 1100.16 863.612 1113.17 783.897 1105.9C778.26 1105.38 770.885 1104.03 766.665 1100.16V1100.19Z" fill="#175CC8"/>
<path d="M333.498 542.964H287.602V741.043H333.498V542.964Z" fill="#175CC8"/>
<path d="M234.458 542.964H190.978V741.043H234.458V542.964Z" fill="#175CC8"/>
<path d="M985.71 180.624H828.695V226.52H985.71V180.624Z" fill="#175CC8"/>
<path d="M188.079 268.101C242.833 262.69 248.147 346.882 194.521 349.813C142.537 352.647 136.256 273.222 188.079 268.101Z" fill="#76859C"/>
<path d="M335.27 335.801C382.681 327.041 398.881 391.296 357.687 406.498C306.154 425.533 286.282 344.852 335.27 335.801Z" fill="#76859C"/>
<path d="M855.27 156.468V127.481C863.483 128.544 874.981 125.71 882.55 127.996C890.119 130.283 889.797 140.332 907.221 139.784C921.779 139.334 920.62 132.055 927.77 128.737C935.693 125.098 950.122 128.737 959.141 127.481V156.468H855.27Z" fill="#175CC8"/>
<path d="M287.603 518.807V487.404H349.184C351.374 487.404 359.62 498.452 359.427 502.671C359.169 508.082 351.761 518.807 346.769 518.807H287.57H287.603Z" fill="#175CC8"/>
<path d="M234.458 487.404V518.807H177.708C162.505 518.807 165.146 487.404 175.292 487.404H234.49H234.458Z" fill="#175CC8"/>
<path d="M127.464 217.341C132.392 215.892 167.08 215.827 172.813 216.922C184.054 219.048 187.081 232.189 177.87 238.792C172.298 242.785 128.398 242.657 123.309 237.471C118.22 232.286 119.992 219.563 127.464 217.373V217.341Z" fill="#76859C"/>
<path d="M342.454 285.009C350.925 282.561 383.423 282.594 387.868 291.741C398.69 313.932 354.693 314.093 342.454 310.55C330.215 307.007 330.537 288.423 342.454 285.009Z" fill="#76859C"/>
<path d="M316.009 274.252C310.243 280.049 297.296 277.956 295.428 268.325C292.658 253.993 289.823 218.113 312.434 224.49C322.482 227.324 320.711 269.485 316.009 274.252Z" fill="#76859C"/>
<path d="M162.567 407.111C157.768 402.28 157.929 388.849 166.11 386.433C172.971 384.404 195.226 383.728 197.835 392.488C203.794 412.586 169.911 414.454 162.6 407.111H162.567Z" fill="#76859C"/>
<path d="M509.838 1030.92V1055.07H24.3013C24.4623 1050.53 22.6265 1030.92 27.9086 1030.92H509.806H509.838Z" fill="#FAFAFA"/>
<path d="M81.5654 830.807C92.7094 827.457 98.1203 836.25 99.2476 846.041C103.821 885.496 95.8658 933.55 99.0544 973.971C96.2201 991.976 74.6407 992.813 72.5149 969.398C69.9061 940.7 69.3263 874.094 72.5794 846.041C73.2235 840.598 75.7357 832.546 81.5654 830.807Z" fill="#F2F2F2"/>
<path d="M75.6111 800.853C69.9103 795.153 70.2646 766.874 80.5067 762.107C103.02 751.639 105.146 799.179 90.2336 803.462C86.4008 804.557 78.381 803.591 75.6111 800.853Z" fill="#F2F2F2"/>
<path d="M806.314 668.994C814.784 667.19 824.157 672.665 823.384 681.458C822.675 689.317 790.95 707.997 782.802 715.631C775.523 722.459 761.899 744.457 752.752 743.555C745.924 742.879 740.706 734.344 741.672 727.87C743.444 715.921 794.042 671.602 806.314 668.961V668.994Z" fill="#F7F7F7"/>
<path d="M726.498 755.988C736.741 752.864 744.954 757.212 744.084 768.517C743.633 774.443 733.069 801.82 727.98 803.398C696.223 813.222 717.545 758.726 726.531 755.988H726.498Z" fill="#F7F7F7"/>
</svg>
