<svg viewBox="0 0 231 345" fill="none" xmlns="http://www.w3.org/2000/svg">
<path d="M107.468 0.0024744C112.904 0.0576397 118.629 0.0515102 124.017 0.0024744C141.811 -0.163021 165.655 9.48477 180.237 19.482C233.667 56.1117 246.968 130.223 209.713 183.47C200.243 197.004 187.243 207.05 176.412 219.432C156.228 242.503 140.273 270.257 127.585 298.097C123.594 306.844 120.395 316.271 116.319 324.865C115.975 325.582 116.404 326.366 115.129 326.097C99.1683 285.887 79.3946 246.23 49.8628 214.215C40.1721 203.709 29.4946 195.392 21.1524 183.47C-17.825 127.753 -1.25087 50.0067 57.0221 15.4488C70.5866 7.40688 91.5984 -0.156892 107.468 0.0024744ZM107.345 26.5431C40.3131 31.7777 4.55987 109.984 41.2509 165.823C76.4402 219.383 154.989 219.229 189.854 165.449C230.597 102.61 181.965 20.7201 107.339 26.5431H107.345Z" fill="#76849D"/>
<path d="M114.829 338.355L140.358 283.288C155.756 284.042 172.851 287.003 187.304 292.537C206.097 299.74 223.272 314.26 198.374 329.039C162.645 350.247 76.9674 349.198 39.4551 332.508C28.8817 327.806 13.4845 318.275 23.2426 305.305C32.3694 293.181 61.4292 286.623 76.0051 284.514C78.9289 284.091 89.3796 282.258 91.2859 283.742C100.168 301.456 108.301 319.611 114.835 338.355H114.829Z" fill="#0E5BCA"/>
<path d="M139.954 134.237C137.919 134.249 135.86 134.231 133.825 134.237V168.562H97.0481V134.85H63.3359V97.4602H97.0481V63.748H133.825V97.4602H167.537V134.243C166.336 134.163 165.055 134.36 163.859 134.243C157.074 133.569 150.258 133.532 143.319 133.618C142.284 133.63 140.592 133.226 139.954 134.243V134.237Z" fill="#0E5BCA"/>
<path d="M163.86 134.237C156.051 135.935 147.862 134.188 139.955 134.237C140.593 133.22 142.278 133.624 143.32 133.612C150.265 133.526 157.075 133.563 163.86 134.237Z" fill="#040404"/>
</svg>
