<svg viewBox="0 0 335 335" fill="none" xmlns="http://www.w3.org/2000/svg">
<path d="M335.008 335H279.391V279.427H299.352C299.423 279.427 300.332 278.518 300.332 278.447V258.504H174.703V279.427H195.644V335H139.374V279.427H160.315V258.504H34.6772V278.447C34.6772 278.518 35.5869 279.427 35.6576 279.427H55.6184V335H0.00195312V279.427H20.9431V244.125H160.307V223.201H70.0149V132.98H105.67C122.028 156.253 143.128 176.02 167.293 191.061C191.846 176.444 212.841 156.218 229.339 132.98H264.995V223.201H174.703V244.125H314.066V279.427H335.008V335Z" fill="#76849D"/>
<path d="M174.703 0.278372C198.02 2.43343 221.673 18.879 231.282 40.1823C252.471 87.1873 214.272 138.29 178.943 166.315C177.335 167.596 168.954 174.096 167.788 174.193C166.18 174.326 157.949 167.799 156.076 166.315C120.747 138.273 82.5392 87.1873 103.737 40.1823C113.196 19.197 136.69 2.59241 159.653 0.278372C163.478 -0.110245 170.852 -0.0749162 174.703 0.278372ZM188.217 87.6466C216.065 60.3374 171.153 20.5306 145.584 49.2971C120.014 78.0636 162.559 112.81 188.217 87.6466Z" fill="#0E5BCA"/>
</svg>
