<svg viewBox="0 0 302 313" fill="none" xmlns="http://www.w3.org/2000/svg">
<path d="M205.829 136.659H77.906C77.6255 116.14 79.8698 95.1402 85.5606 75.543H198.215C203.425 95.4207 205.869 116.1 205.829 136.659Z" fill="#76849D"/>
<path d="M205.834 148.204V163.112C205.834 164.154 203.469 164.475 202.507 164.595C189.923 166.078 166.599 160.467 157.341 169.444C155.538 171.168 151.931 177.139 151.931 179.423V209.721H84.6033C81.0365 189.402 76.9888 168.964 77.8705 148.164H205.794L205.834 148.204Z" fill="#76849D"/>
<path d="M194.289 63.5608H88.4883C94.7001 40.9979 114.377 0 141.87 0C169.362 0 189.961 41.038 194.289 63.5608Z" fill="#76849D"/>
<path d="M65.4043 148.205C66.326 168.884 68.0092 189.684 73.0989 209.762H16.832C6.13165 191.608 0.120228 169.365 0 148.205H65.4043Z" fill="#76849D"/>
<path d="M267.39 75.1055C276.568 94.342 283.541 115.021 283.741 136.662H218.337C217.015 115.943 215.372 95.3439 210.643 75.1055H267.39Z" fill="#76849D"/>
<path d="M73.0989 75.1055C68.0092 95.1836 66.326 115.983 65.4043 136.662H0C0.280533 115.382 6.09157 93.4203 16.832 75.1055H73.0989Z" fill="#76849D"/>
<path d="M151.969 221.305V282.381C151.969 283.543 146.799 284.505 145.597 284.665C115.379 288.352 95.1409 245.19 88.4883 221.305H151.969Z" fill="#76849D"/>
<path d="M75.5037 221.305C81.4751 238.417 87.8872 254.768 98.267 269.717C100.271 272.602 102.876 275.007 104.839 277.572C105.401 278.333 106.763 279.255 105.28 280.016C77.7079 273.043 52.7405 257.053 34.1051 235.772C30.4982 231.644 26.2902 226.354 24.0059 221.345H75.4636L75.5037 221.305Z" fill="#76849D"/>
<path d="M259.697 63.5619H208.239C200.424 43.2834 193.09 22.4839 177.941 6.33318C185.075 5.69196 193.13 9.49919 199.743 12.4248C223.668 23.0449 245.79 41.52 259.697 63.5619Z" fill="#76849D"/>
<path d="M24.0452 63.559C23.0032 62.6372 33.8238 49.5724 35.1062 48.1698C50.0947 31.2977 77.2262 12.0611 99.2681 6.53064C100.11 6.33026 106.001 4.56691 104.839 7.29209C103.837 9.6165 97.0639 16.8703 94.8197 20.3569C86.2033 33.9828 81.0735 48.5705 75.503 63.559H24.0452Z" fill="#76849D"/>
<path d="M283.741 148.205L282.779 164.556H217.375V149.648C217.375 149.648 218.697 148.205 218.818 148.205H283.741Z" fill="#76849D"/>
<rect x="166.998" y="188.066" width="135.002" height="124.857" rx="11.7054" fill="#0E5BCA"/>
<path d="M227.652 204.254C255.212 199.608 276.37 223.486 266.95 249.904L235.865 302.411C227.027 286.842 214.58 271.347 206.579 255.513C196.429 235.414 203.636 208.308 227.652 204.254ZM234.076 216.945C207.161 218.448 209.193 261.842 238.955 257.884C262.928 254.698 260.388 215.484 234.076 216.945Z" fill="white"/>
<path d="M234.077 216.954C260.378 215.493 262.929 254.707 238.956 257.893C209.204 261.851 207.172 218.457 234.077 216.954ZM231.875 224.363C217.756 227.263 218.836 249.595 233.707 250.632C255.52 252.156 252.44 220.14 231.875 224.363Z" fill="white"/>
<path d="M231.874 224.359C252.439 220.136 255.519 252.153 233.705 250.628C218.824 249.591 217.744 227.259 231.874 224.359Z" fill="#0E5BCA"/>
</svg>
