<svg viewBox="0 0 151 150" fill="none" xmlns="http://www.w3.org/2000/svg">
<g clip-path="url(#clip0_938_374)">
<path d="M16.0195 17.1289V32.1289H134.019V17.1289H141.019V139.629L150.019 149.129H125.019C126.529 143.139 135.619 141.299 134.019 134.129H16.0195C14.4195 141.299 23.5095 143.139 25.0195 149.129H0.0194822C-0.430518 146.219 9.01948 139.739 9.01948 138.629V17.1289H16.0195ZM134.019 40.1289H16.0195V79.1289H134.019V40.1289ZM134.019 87.1289H16.0195V126.129H134.019V87.1289Z" fill="#0E5BCA"/>
<path d="M57.0195 31.1284H29.5195C29.4095 31.1284 28.0195 29.7384 28.0195 29.6284V1.62839C28.0195 -1.63161 40.72 -1.03021 43 -1.00021C44.9 -0.980208 57.0195 -1.67161 57.0195 1.62839V31.1284ZM46.0195 3.12839H39.0095V10.1384H46.0195V3.12839Z" fill="#76849D"/>
<path d="M122.02 1.12891V29.6289C122.02 29.7389 120.63 31.1289 120.52 31.1289H93.0195V1.12891H122.02ZM111.02 3.12891H104.01V10.1389H111.02V3.12891Z" fill="#76849D"/>
<path d="M89.0195 1.12891V31.1289H61.0195V1.12891H89.0195ZM79.0195 10.1389C81.3595 -1.28109 68.6295 -1.16109 71.0095 10.1389H79.0195Z" fill="#76849D"/>
<path d="M134.02 87.1289V126.129H16.0195V87.1289H134.02ZM57.0195 95.1289H29.0195V125.129H55.5195C55.6295 125.129 57.0195 123.739 57.0195 123.629V95.1289ZM89.0195 95.1289H61.0195V123.629C61.0195 123.739 62.4095 125.129 62.5195 125.129H87.5195C87.6295 125.129 89.0195 123.739 89.0195 123.629V95.1289ZM121.02 95.1289H93.0195V123.629C93.0195 123.739 94.4095 125.129 94.5195 125.129H121.02V95.1289Z" fill="#F4F4F4"/>
<path d="M134.02 40.1289V79.1289H16.0195V40.1289H134.02ZM57.0195 48.1289H29.5195C29.4095 48.1289 28.0195 49.5189 28.0195 49.6289V76.6289C28.0195 76.7389 29.4095 78.1289 29.5195 78.1289H55.5195C55.6295 78.1289 57.0195 76.7389 57.0195 76.6289V48.1289ZM89.0195 48.1289H61.0195V76.6289C61.0195 76.7389 62.4095 78.1289 62.5195 78.1289H87.5195C87.6295 78.1289 89.0195 76.7389 89.0195 76.6289V48.1289ZM121.02 48.1289H93.0195V76.6289C93.0195 76.7389 94.4095 78.1289 94.5195 78.1289H121.02V48.1289Z" fill="#F5F5F5"/>
<path d="M46.0198 3.12891H39.0098V10.1389H46.0198V3.12891Z" fill="white"/>
<path d="M111.02 3.12891H104.01V10.1389H111.02V3.12891Z" fill="white"/>
<path d="M79.0209 10.1412H71.0109C68.6309 -1.15885 81.3609 -1.27885 79.0209 10.1412Z" fill="white"/>
<path d="M57.0195 95.1289V123.629C57.0195 123.739 55.6295 125.129 55.5195 125.129H29.0195V95.1289H57.0195ZM46.0195 97.1289H39.0095V104.139H46.0195V97.1289Z" fill="#76849D"/>
<path d="M121.02 95.1289V125.129H94.5195C94.4095 125.129 93.0195 123.739 93.0195 123.629V95.1289H121.02ZM111.02 97.1289H104.01V104.139H111.02V97.1289Z" fill="#76849D"/>
<path d="M89.0195 95.1289V123.629C89.0195 123.739 87.6295 125.129 87.5195 125.129H62.5195C62.4095 125.129 61.0195 123.739 61.0195 123.629V95.1289H89.0195ZM79.0195 104.139C81.3595 92.7189 68.6295 92.8389 71.0095 104.139H79.0195Z" fill="#76849D"/>
<path d="M57.0195 48.1289V76.6289C57.0195 76.7389 55.6295 78.1289 55.5195 78.1289H29.5195C29.4095 78.1289 28.0195 76.7389 28.0195 76.6289V49.6289C28.0195 49.5189 29.4095 48.1289 29.5195 48.1289H57.0195ZM46.0195 50.1289H39.0095V57.1389H46.0195V50.1289Z" fill="#76849D"/>
<path d="M121.02 48.1289V78.1289H94.5195C94.4095 78.1289 93.0195 76.7389 93.0195 76.6289V48.1289H121.02ZM111.02 50.1289H104.01V57.1389H111.02V50.1289Z" fill="#76849D"/>
<path d="M89.0195 48.1289V76.6289C89.0195 76.7389 87.6295 78.1289 87.5195 78.1289H62.5195C62.4095 78.1289 61.0195 76.7389 61.0195 76.6289V48.1289H89.0195ZM79.0195 57.1389C81.3595 45.7189 68.6295 45.8389 71.0095 57.1389H79.0195Z" fill="#76849D"/>
<path d="M46.0198 97.1289H39.0098V104.139H46.0198V97.1289Z" fill="#F8F8F8"/>
<path d="M111.02 97.1289H104.01V104.139H111.02V97.1289Z" fill="#F8F8F8"/>
<path d="M79.0209 104.141H71.0109C68.6309 92.8412 81.3609 92.7212 79.0209 104.141Z" fill="white"/>
<path d="M46.0198 50.1289H39.0098V57.1389H46.0198V50.1289Z" fill="#F8F8F8"/>
<path d="M111.02 50.1289H104.01V57.1389H111.02V50.1289Z" fill="#F8F8F8"/>
<path d="M79.0209 57.1412H71.0109C68.6309 45.8412 81.3609 45.7212 79.0209 57.1412Z" fill="white"/>
</g>
<defs>
<clipPath id="clip0_938_374">
<rect width="150.02" height="149.13" fill="white"/>
</clipPath>
</defs>
</svg>
