<svg viewBox="0 0 332 377" fill="none" xmlns="http://www.w3.org/2000/svg">
<path d="M176.268 210.697H292.591C296.01 210.697 300.175 216.159 300.633 219.519C301.395 225.155 301.491 249.69 300.4 254.876C298.582 263.534 286.331 265.352 281.596 258.053C281.267 257.543 279.951 254.781 279.951 254.512V231.466H176.259V257.75C176.259 258.019 174.943 260.78 174.614 261.291C170.554 267.542 161.238 267.542 157.169 261.291C156.84 260.78 155.524 258.019 155.524 257.75V231.466H51.8418V254.512C51.8418 254.781 50.5259 257.543 50.1969 258.053C45.4612 265.352 33.2194 263.534 31.3927 254.876C30.3018 249.69 30.3971 225.163 31.1589 219.519C31.6178 216.159 35.7907 210.697 39.2018 210.697H155.524V190.897C155.524 190.334 158.286 186.04 159.083 185.373C163.039 182.057 169.212 182.248 172.987 185.746C173.731 186.429 176.268 190.377 176.268 190.897V210.697Z" fill="#76849D"/>
<path d="M74.5241 376.863H7.12515C3.96515 374.647 2.20767 372.881 0 369.721V360.63C3.99978 347.107 14.1897 336.45 28.8123 335.29C41.7207 334.268 60.8798 333.74 71.2862 342.12C80.6882 349.687 90.705 371.435 74.5154 376.855L74.5241 376.863Z" fill="#76849D"/>
<path d="M37.4344 280.313C64.8528 276.304 71.0343 313.549 47.8321 320.579C18.8467 329.366 10.3883 284.269 37.4344 280.313Z" fill="#76849D"/>
<path d="M198.95 376.86H131.551C117.456 369.622 126.763 349.623 136.079 342.126C147.602 332.854 180.431 332.464 192.664 339.988C203.911 346.905 216.317 370.41 198.95 376.86Z" fill="#76849D"/>
<path d="M161.862 280.313C189.281 276.304 195.462 313.549 172.26 320.579C143.274 329.366 134.816 284.269 161.862 280.313Z" fill="#76849D"/>
<path d="M323.376 376.86H255.977C241.882 369.622 251.189 349.623 260.505 342.126C272.028 332.854 304.857 332.464 317.09 339.988C328.336 346.905 340.743 370.41 323.376 376.86Z" fill="#76849D"/>
<path d="M286.288 280.313C313.706 276.304 319.888 313.549 296.686 320.579C267.7 329.366 259.242 284.269 286.288 280.313Z" fill="#76849D"/>
<path d="M126.953 19.0589C153.222 18.9098 179.514 19.1719 205.783 19.0589V155.402H180.07V126.137C180.07 125.011 178.311 124.989 177.547 124.939C169.674 124.397 156.21 124.275 148.422 124.939C147.69 125.002 146.239 125.147 146.239 126.137V155.402C139.816 155.375 133.376 155.439 126.953 155.402V118.865C131.816 119.425 137.692 118.458 142.677 118.856C143.825 118.639 143.798 117.974 143.889 117.025C144.21 113.766 144.3 104.908 143.889 101.766C143.74 100.645 143.473 100.388 142.366 100.243C139.315 99.8409 130.081 99.9041 126.958 100.257V90.4443C131.834 90.9957 137.688 90.042 142.682 90.4352C143.83 90.2183 143.803 89.5539 143.893 88.6047C144.214 85.3459 144.305 76.4872 143.893 73.3459C143.744 72.225 143.477 71.9674 142.37 71.8228C139.342 71.4205 130.054 71.4793 126.962 71.8363V19.0589H126.953ZM194.537 26.5798L130.673 26.3267C130.054 26.6928 129.945 27.3211 129.977 27.9991C130.655 38.6657 129.141 50.2996 129.981 60.8488C130.027 61.4092 130.04 61.9606 130.307 62.4714L193.932 62.8601C194.519 62.4533 194.985 61.9426 194.971 61.1923C194.284 50.5392 195.825 38.8736 194.971 28.3426C194.931 27.8137 194.912 26.955 194.537 26.5753V26.5798ZM154.94 71.9087C154.131 72.2928 153.783 72.7991 153.665 73.6804C153.272 76.677 153.34 85.5132 153.679 88.5911C153.733 89.0748 153.837 89.7708 154.185 90.1143C154.994 90.9143 169.697 90.3132 171.961 90.277C172.571 89.7347 172.585 89.0115 172.648 88.2612C172.942 84.9753 173.055 76.8352 172.648 73.6804C172.503 72.555 171.925 71.9674 170.786 71.8183C166.022 71.2081 159.857 72.2476 154.94 71.9087ZM183.355 71.9041C182.619 72.1572 182.519 72.6499 182.424 73.3414C182.049 76.1798 182.054 86.0917 182.424 88.9347C182.605 90.3087 183.021 90.3403 184.282 90.4623C187.568 90.7832 196.372 90.8736 199.541 90.4623C200.915 90.2815 200.946 89.8657 201.068 88.6047C201.385 85.3279 201.48 76.5007 201.068 73.3459C200.937 72.3516 200.639 71.8589 199.545 71.8228L183.36 71.9087L183.355 71.9041ZM154.94 100.329C154.131 100.713 153.783 101.219 153.665 102.101C153.272 105.097 153.34 113.934 153.679 117.011C153.733 117.495 153.837 118.191 154.185 118.535C154.994 119.335 169.697 118.734 171.961 118.697C172.571 118.155 172.585 117.432 172.648 116.682C172.942 113.396 173.055 105.256 172.648 102.101C172.503 100.975 171.925 100.388 170.786 100.239C166.022 99.6284 159.857 100.668 154.94 100.329ZM183.355 100.324C182.619 100.578 182.519 101.07 182.424 101.762C182.049 104.6 182.054 114.512 182.424 117.355C182.605 118.729 183.021 118.761 184.282 118.883C187.568 119.204 196.372 119.294 199.541 118.883C200.915 118.702 200.946 118.286 201.068 117.025C201.385 113.748 201.48 104.921 201.068 101.766C200.937 100.772 200.639 100.279 199.545 100.243L183.36 100.329L183.355 100.324Z" fill="#0E5BCA"/>
<path d="M87.0332 158.784C139.802 158.481 192.597 159.01 245.37 158.784V168.257H87.0332V158.784Z" fill="#0E5BCA"/>
<path d="M115.789 15.6747C115.219 14.2465 114.049 13.5369 113.651 11.8917C112.878 8.68264 113.619 6.2058 115.789 3.83292C148.489 2.88377 181.353 4.54252 214.071 3.83292C221.009 4.82727 220.566 14.938 213.732 15.6747C181.122 14.9877 148.381 16.5877 115.789 15.6747Z" fill="#0E5BCA"/>
<path d="M126.953 19.0608V71.8382C126.04 71.9422 125.479 71.9467 125.271 73.0314C125.687 75.6393 124.562 88.6518 125.569 89.9715C125.949 90.4732 126.433 90.3874 126.953 90.4461V100.259C126.433 100.317 125.949 100.231 125.569 100.733C124.562 102.053 125.687 115.065 125.271 117.673C125.479 118.758 126.044 118.762 126.953 118.866V155.404C124.815 155.391 122.663 155.413 120.525 155.404V19.0608C122.663 19.0518 124.815 19.0744 126.953 19.0608Z" fill="#0E5BCA"/>
<path d="M215.256 90.1065C221.791 90.0658 228.345 90.1382 234.881 90.1065V155.404C228.345 155.372 221.791 155.444 215.256 155.404V143.901C219.129 144.168 225.475 144.235 229.312 143.914C231.197 143.756 231.351 143.603 231.509 141.718C231.816 138.048 231.839 131.133 231.509 127.476C231.428 126.572 231.391 125.487 230.311 125.293C225.308 125.451 220.25 125.081 215.256 125.293V115.481C219.129 115.747 225.475 115.815 229.312 115.494C231.197 115.336 231.351 115.182 231.509 113.297C231.816 109.627 231.839 102.712 231.509 99.0557C231.428 98.1517 231.391 97.067 230.311 96.8726C225.308 97.0308 220.25 96.6602 215.256 96.8726V90.1065Z" fill="#0E5BCA"/>
<path d="M97.8594 90.1052C104.282 90.0691 110.723 90.1323 117.145 90.1052V155.402C110.723 155.375 104.282 155.439 97.8594 155.402V143.9C101.778 144.117 107.722 144.239 111.577 143.913C113.462 143.755 113.615 143.601 113.773 141.717C114.081 138.046 114.103 131.131 113.773 127.475C113.692 126.571 113.656 125.486 112.576 125.292C107.699 125.477 102.723 125.039 97.8594 125.292V115.479C101.778 115.696 107.722 115.818 111.577 115.493C113.462 115.335 113.615 115.181 113.773 113.296C114.081 109.626 114.103 102.711 113.773 99.0544C113.692 98.1504 113.656 97.0657 112.576 96.8713C107.699 97.0566 102.723 96.6182 97.8594 96.8713V90.1052Z" fill="#0E5BCA"/>
<path d="M89.4036 74.8845C98.5199 74.6586 107.686 75.0518 116.807 74.8845V86.7264C107.686 86.5365 98.5199 86.984 89.4036 86.7264C86.2488 82.9297 86.1855 78.6721 89.4036 74.8845Z" fill="#0E5BCA"/>
<path d="M215.256 86.7283V74.8865C223.735 74.8323 232.237 74.8594 240.72 74.9679C247.052 76.4097 246.98 85.1645 240.72 86.6469C232.237 86.7554 223.739 86.7825 215.256 86.7283Z" fill="#0E5BCA"/>
<path d="M176.688 128.34V154.898C176.688 154.934 176.217 155.404 176.181 155.404H164.846V128.34H176.688Z" fill="#0E5BCA"/>
<path d="M161.465 128.34V155.404H150.129C150.093 155.404 149.623 154.934 149.623 154.898V128.34H161.465Z" fill="#0E5BCA"/>
<path d="M97.8588 90.1055V96.8716C96.7605 96.9303 95.0927 96.5959 94.8983 98.1236C95.0791 102.878 94.374 108.279 94.7989 112.962C95.0294 115.493 95.6712 115.362 97.8588 115.484V125.296C96.7605 125.355 95.0927 125.021 94.8983 126.548C95.0791 131.303 94.374 136.704 94.7989 141.387C95.0294 143.918 95.6712 143.787 97.8588 143.909V155.412C95.7209 155.398 93.5695 155.421 91.4316 155.412V90.1145C93.5695 90.1055 95.7209 90.1281 97.8588 90.1145V90.1055Z" fill="#0E5BCA"/>
<path d="M215.255 90.1077V96.8738C213.777 96.9371 212.864 96.5167 212.571 98.4195C212.123 101.321 212.25 109.868 212.53 112.96C212.733 115.22 213.19 115.337 215.251 115.482V125.294C213.773 125.357 212.86 124.937 212.566 126.84C212.119 129.742 212.245 138.288 212.525 141.38C212.729 143.64 213.185 143.757 215.246 143.902V155.405C213.221 155.391 211.183 155.414 209.158 155.405V90.1077C211.183 90.0986 213.221 90.1212 215.246 90.1077H215.255Z" fill="#0E5BCA"/>
<path d="M215.256 74.885V86.7268C213.231 86.7133 211.193 86.7359 209.168 86.7268V74.885C211.193 74.876 213.231 74.8986 215.256 74.885Z" fill="#0E5BCA"/>
<path d="M115.789 3.83194C113.62 6.20482 112.878 8.67713 113.651 11.8907C114.049 13.5359 115.22 14.2455 115.789 15.6737C113.244 15.6014 111.414 16.0353 109.244 14.2681C105.479 11.2037 107.057 4.52798 111.929 3.86357C113.136 3.69634 114.542 3.86809 115.789 3.83194Z" fill="#0E5BCA"/>
<path d="M89.4028 74.8849C86.1847 78.6725 86.248 82.9301 89.4028 86.7267C87.0073 86.659 85.1135 87.0883 83.057 85.4567C80.1915 83.1878 80.1463 78.2928 82.9937 76.0872C85.0593 74.4872 87.0073 74.9437 89.4028 74.8849Z" fill="#0E5BCA"/>
<path d="M87.0345 158.785V168.259C86.3069 168.819 80.6074 168.842 80.6074 168.091V158.79C82.7453 158.781 84.8967 158.803 87.0345 158.79V158.785Z" fill="#0E5BCA"/>
<path d="M194.536 26.5806C194.912 26.9558 194.925 27.819 194.97 28.3479C195.829 38.8789 194.288 50.5445 194.97 61.1976C194.984 61.9479 194.514 62.4586 193.931 62.8654L130.306 62.4767C130.039 61.9659 130.026 61.4145 129.98 60.8541C129.14 50.3049 130.654 38.671 129.976 28.0043C129.94 27.3264 130.053 26.6936 130.672 26.332L194.536 26.5851V26.5806ZM139.472 29.5456C137.447 29.5592 135.409 29.5366 133.384 29.5456V59.6563C135.409 59.6654 137.447 59.6428 139.472 59.6563C156.832 59.7648 174.215 59.575 191.571 59.6563V29.5456C174.211 29.6269 156.828 29.4371 139.472 29.5456Z" fill="#0E5BCA"/>
<path d="M154.938 100.333C159.855 100.676 166.02 99.6323 170.784 100.242C171.923 100.387 172.502 100.979 172.646 102.105C173.053 105.264 172.94 113.4 172.646 116.685C172.579 117.436 172.565 118.159 171.959 118.701C169.695 118.733 154.992 119.339 154.183 118.539C153.835 118.195 153.731 117.499 153.677 117.015C153.338 113.942 153.275 105.101 153.663 102.105C153.776 101.223 154.129 100.717 154.938 100.333ZM169.243 103.641H157.062V115.483H169.243V103.641Z" fill="#0E5BCA"/>
<path d="M154.938 71.911C159.855 72.2545 166.02 71.2104 170.784 71.8206C171.923 71.9652 172.502 72.5573 172.646 73.6827C173.053 76.8421 172.94 84.9776 172.646 88.2635C172.579 89.0138 172.565 89.737 171.959 90.2793C169.695 90.311 154.992 90.9166 154.183 90.1166C153.835 89.7731 153.731 89.0771 153.677 88.5935C153.338 85.52 153.275 76.6793 153.663 73.6827C153.776 72.8014 154.129 72.2952 154.938 71.911ZM169.243 75.224H157.062V87.0658H169.243V75.224Z" fill="#0E5BCA"/>
<path d="M183.354 71.9023L199.539 71.8164C200.633 71.8526 200.931 72.3452 201.062 73.3396C201.478 76.4944 201.383 85.3215 201.062 88.5983C200.94 89.8593 200.909 90.2752 199.535 90.456C196.366 90.8718 187.562 90.7814 184.276 90.456C183.015 90.3339 182.599 90.3023 182.418 88.9283C182.048 86.0853 182.043 76.1689 182.418 73.3351C182.509 72.6435 182.608 72.1509 183.349 71.8978L183.354 71.9023ZM197.664 75.2198H185.822V87.0616H197.664V75.2198Z" fill="#0E5BCA"/>
<path d="M126.953 100.257C130.076 99.9046 139.31 99.8368 142.361 100.244C143.469 100.388 143.735 100.646 143.884 101.767C144.3 104.908 144.21 113.767 143.884 117.026C143.789 117.979 143.821 118.639 142.673 118.856C137.692 118.458 131.812 119.426 126.949 118.865C126.036 118.761 125.475 118.757 125.267 117.672C125.683 115.064 124.558 102.052 125.566 100.732C125.945 100.23 126.429 100.316 126.949 100.257H126.953ZM140.49 103.638H128.648V115.48H140.49V103.638Z" fill="#0E5BCA"/>
<path d="M183.354 100.328L199.539 100.242C200.633 100.278 200.931 100.771 201.062 101.765C201.478 104.92 201.383 113.747 201.062 117.024C200.94 118.285 200.909 118.701 199.535 118.882C196.366 119.298 187.562 119.207 184.276 118.882C183.015 118.76 182.599 118.728 182.418 117.354C182.048 114.511 182.043 104.595 182.418 101.761C182.509 101.069 182.608 100.577 183.349 100.324L183.354 100.328ZM197.664 103.641H185.822V115.483H197.664V103.641Z" fill="#0E5BCA"/>
<path d="M126.953 71.839C130.045 71.482 139.333 71.4232 142.361 71.8255C143.469 71.9701 143.735 72.2277 143.884 73.3486C144.3 76.4899 144.21 85.3486 143.884 88.6074C143.789 89.5611 143.821 90.221 142.673 90.4379C137.683 90.0447 131.826 91.0029 126.949 90.447C126.429 90.3882 125.945 90.4741 125.566 89.9724C124.558 88.6526 125.683 75.6402 125.267 73.0323C125.475 71.9475 126.04 71.943 126.949 71.839H126.953ZM140.49 75.2244H128.648V87.0662H140.49V75.2244Z" fill="#0E5BCA"/>
<path d="M215.256 96.8723C220.25 96.6599 225.308 97.0305 230.311 96.8723C231.396 97.0666 231.427 98.1514 231.509 99.0553C231.834 102.712 231.816 109.623 231.509 113.297C231.351 115.182 231.197 115.336 229.312 115.494C225.475 115.815 219.134 115.747 215.256 115.48C213.195 115.34 212.738 115.218 212.535 112.958C212.255 109.867 212.128 101.32 212.575 98.418C212.869 96.5152 213.778 96.9356 215.26 96.8723H215.256ZM228.114 100.258H215.934V112.099H228.114V100.258Z" fill="#0E5BCA"/>
<path d="M215.256 125.29C220.25 125.078 225.308 125.448 230.311 125.29C231.396 125.485 231.427 126.569 231.509 127.473C231.834 131.13 231.816 138.041 231.509 141.715C231.351 143.6 231.197 143.754 229.312 143.912C225.475 144.233 219.134 144.165 215.256 143.898C213.195 143.758 212.738 143.636 212.535 141.376C212.255 138.285 212.128 129.738 212.575 126.836C212.869 124.933 213.778 125.354 215.26 125.29H215.256ZM228.114 128.671H215.934V140.513H228.114V128.671Z" fill="#0E5BCA"/>
<path d="M97.8586 96.8739C102.722 96.6208 107.698 97.0592 112.575 96.8739C113.66 97.0683 113.691 98.153 113.773 99.057C114.098 102.713 114.08 109.624 113.773 113.299C113.614 115.184 113.461 115.337 111.576 115.495C107.721 115.821 101.777 115.699 97.8586 115.482C95.671 115.36 95.0292 115.495 94.7987 112.96C94.3738 108.282 95.0789 102.876 94.8981 98.1214C95.097 96.5982 96.7603 96.9282 97.8586 96.8694V96.8739ZM110.378 100.259H98.1975V112.101H110.378V100.259Z" fill="#0E5BCA"/>
<path d="M97.8586 125.292C102.722 125.039 107.698 125.477 112.575 125.292C113.66 125.486 113.691 126.571 113.773 127.475C114.098 131.131 114.08 138.042 113.773 141.717C113.614 143.601 113.461 143.755 111.576 143.913C107.721 144.239 101.777 144.117 97.8586 143.9C95.671 143.778 95.0292 143.913 94.7987 141.378C94.3738 136.7 95.0789 131.294 94.8981 126.539C95.097 125.016 96.7603 125.346 97.8586 125.287V125.292ZM110.378 128.673H98.1975V140.514H110.378V128.673Z" fill="#0E5BCA"/>
<path d="M139.473 29.5462C156.833 29.4377 174.216 29.6275 191.572 29.5462V59.6569C174.212 59.5755 156.829 59.7654 139.473 59.6569V29.5462ZM172.033 53.1484C172.621 53.7315 179.703 53.7315 180.896 53.5462C183.278 53.1801 185.145 50.2874 185.145 47.9868C185.145 46.4275 183.717 44.6693 183.78 43.9507C183.83 43.3812 184.467 42.9473 184.639 42.4049C185.9 38.4004 183.843 34.7168 179.563 34.2919C178.049 34.1383 172.801 33.9665 171.983 35.1597C171.54 37.4151 171.201 52.3258 172.038 53.1529L172.033 53.1484ZM144.548 50.1834V35.4671C144.548 34.3642 141.163 34.3642 141.163 35.4671V52.7236C141.163 52.7823 141.683 53.3202 141.846 53.397C142.429 53.6682 152.612 53.7496 153.443 53.501C155.292 52.9586 153.909 50.188 153.172 50.188H144.544L144.548 50.1834ZM161.159 47.8512C161.308 47.7202 164.503 47.7337 164.86 47.9733C166.013 48.7462 165.516 54.4501 168.666 53.51C170.284 53.0264 169.353 50.6128 169.073 49.51C168.187 46.0388 166.221 38.9292 164.77 35.8829C163.934 34.1292 162.248 33.9891 161.394 35.7337C159.265 40.0727 158.623 46.9021 156.453 51.458C156.051 53.2162 157.913 54.319 159.301 53.2569C160.114 52.6332 160.91 48.0682 161.163 47.8467L161.159 47.8512Z" fill="#0E5BCA"/>
<path d="M139.473 29.5452V59.6559C137.448 59.6424 135.41 59.6649 133.385 59.6559V29.5452C135.41 29.5361 137.448 29.5587 139.473 29.5452Z" fill="#0E5BCA"/>
<path d="M169.245 103.641H157.064V115.482H169.245V103.641Z" fill="white"/>
<path d="M169.245 75.2227H157.064V87.0645H169.245V75.2227Z" fill="white"/>
<path d="M197.664 75.2227H185.822V87.0645H197.664V75.2227Z" fill="white"/>
<path d="M140.488 103.641H128.646V115.482H140.488V103.641Z" fill="white"/>
<path d="M197.664 103.641H185.822V115.482H197.664V103.641Z" fill="white"/>
<path d="M140.488 75.2227H128.646V87.0645H140.488V75.2227Z" fill="white"/>
<path d="M228.114 100.258H215.934V112.1H228.114V100.258Z" fill="white"/>
<path d="M228.114 128.676H215.934V140.518H228.114V128.676Z" fill="white"/>
<path d="M110.378 100.258H98.1973V112.1H110.378V100.258Z" fill="white"/>
<path d="M110.378 128.676H98.1973V140.518H110.378V128.676Z" fill="#0E5BCA"/>
<path d="M172.033 53.1455C171.196 52.3184 171.54 37.4077 171.978 35.1523C172.801 33.9591 178.044 34.1308 179.558 34.2845C183.843 34.7139 185.899 38.3975 184.634 42.3975C184.462 42.9444 183.825 43.3738 183.775 43.9433C183.712 44.6619 185.14 46.4201 185.14 47.9794C185.14 50.2845 183.273 53.1726 180.891 53.5387C179.694 53.724 172.616 53.724 172.028 53.141L172.033 53.1455ZM180.579 38.0043C179.309 37.6336 176.48 38.2755 174.998 38.0043V42.402H180.24C181.691 42.402 182.166 38.4653 180.579 38.0043ZM180.24 45.7828C178.704 45.5297 176.611 45.9681 174.998 45.7828V50.1805H180.579C181.732 50.1805 182.148 46.0992 180.24 45.7828Z" fill="#0E5BCA"/>
<path d="M161.158 47.8525C160.905 48.074 160.109 52.6344 159.296 53.2627C157.913 54.3248 156.046 53.222 156.448 51.4638C158.622 46.9079 159.259 40.074 161.388 35.7395C162.243 33.9949 163.928 34.135 164.765 35.8887C166.22 38.935 168.186 46.0446 169.067 49.5158C169.348 50.6186 170.279 53.0322 168.661 53.5158C165.51 54.4514 166.007 48.7474 164.855 47.9791C164.498 47.7395 161.302 47.7305 161.153 47.857L161.158 47.8525ZM163.829 44.4311C164.001 44.2683 163.49 42.0988 162.821 42.0627C162.69 43.622 161.628 44.7881 163.829 44.4311Z" fill="#0E5BCA"/>
<path d="M144.549 50.1808H153.177C153.914 50.1808 155.297 52.9515 153.448 53.4938C152.617 53.7379 142.434 53.6611 141.85 53.3899C141.692 53.313 141.168 52.7752 141.168 52.7164V35.4599C141.168 34.3571 144.553 34.3571 144.553 35.4599V50.1763L144.549 50.1808Z" fill="#0E5BCA"/>
<path d="M180.241 45.7841C182.148 46.1005 181.733 50.1818 180.58 50.1818H174.998V45.7841C176.612 45.9694 178.704 45.531 180.241 45.7841Z" fill="#0E5BCA"/>
<path d="M180.58 38.0053C182.171 38.4663 181.696 42.403 180.241 42.403H174.998V38.0053C176.481 38.2764 179.31 37.6346 180.58 38.0053Z" fill="#0E5BCA"/>
<path d="M163.829 44.4309C161.624 44.7924 162.686 43.6263 162.821 42.0625C163.49 42.0941 164.006 44.2682 163.829 44.4309Z" fill="#0E5BCA"/>
</svg>
