<svg width="50" height="50" viewBox="0 0 381 381" fill="none" xmlns="http://www.w3.org/2000/svg">
<path d="M200.724 59.7097L321.833 59.5386C335.607 60.3348 337.556 78.7597 324.087 81.8702H200.523C187.753 79.2583 188.557 62.5895 200.716 59.7097H200.724Z" fill="#FBFBFB"/>
<path d="M339.328 0C356.674 3.02865 371.564 13.588 377.845 30.3163C379.155 33.8063 379.675 37.4675 381 40.9277V197.941C376.282 219.053 360.186 235.23 338.242 237.411L207.288 237.425C189.979 248.037 174.933 262.868 157.341 273.047C150.577 274.32 144.081 270.056 143.582 263.091L143.709 41.3891C146.172 23.18 158.562 7.98463 175.967 2.2101L183.803 0L339.328 0ZM200.725 59.7098C188.565 62.5896 187.762 79.2584 200.531 81.8703H324.096C337.557 78.7598 335.607 60.3349 321.841 59.5387L200.732 59.7098H200.725ZM202.987 107.365C187.531 108.481 187.196 128.647 202.786 130.217H321.826C338.115 128.096 336.642 107.677 320.338 107.171L202.987 107.372V107.365ZM199.973 155.696C187.858 159.157 188.781 174.776 200.725 177.671C216.709 176.428 237.106 179.978 252.569 177.783C264.549 176.086 265.383 159.172 253.953 155.696H199.973Z" fill="#76859C"/>
<path d="M0 346.77C1.89756 342.387 2.20266 337.512 3.69838 332.981C9.94916 313.998 25.6952 297.56 44.1424 290.081L63.9961 284.634C28.3443 279.484 7.4042 240.655 23.9167 208.092C40.4291 175.528 86.5138 169.337 110.899 197.547C138.477 229.456 118.728 279.41 77.398 284.626L94.1635 288.697C123.371 299.331 140.494 324.483 142.123 355.335C142.629 364.919 144.103 377.272 133.201 381H8.18554C4.56902 378.864 2.14312 376.438 0 372.814V346.77ZM67.7093 285.013L64.7477 284.262V285.743H67.7168V285.013H67.7093ZM76.639 284.269H73.6699V285.75H76.639V284.269Z" fill="#175CC8"/>
<path d="M202.987 107.364L320.338 107.164C336.642 107.67 338.115 128.089 321.826 130.21H202.786C187.203 128.647 187.531 108.481 202.987 107.364Z" fill="#FAFAFA"/>
<path d="M199.974 155.696H253.953C265.383 159.179 264.55 176.086 252.569 177.782C237.106 179.978 216.702 176.428 200.725 177.671C188.789 174.776 187.859 159.157 199.974 155.696Z" fill="#FCFCFC"/>
<path d="M76.6459 284.269H73.6768V285.75H76.6459V284.269Z" fill="#010101"/>
<path d="M67.7087 285.013L67.7162 285.743H64.7471V284.262L67.7087 285.013Z" fill="#010101"/>
</svg>
