<svg width="50" height="50" viewBox="0 0 313 342" fill="none" xmlns="http://www.w3.org/2000/svg">
<path d="M6.04 325.915C1.91 319.075 0.66 317.215 0 308.455V67.3746C2.47 32.0146 31.27 32.5845 59.46 33.8645C61.39 46.4645 66.93 56.9545 80 60.4646C91.79 63.6346 141.88 63.2645 155.53 61.9145C169.69 60.5145 181.68 48.5145 181.04 33.9145C203.04 33.8145 230.69 29.6145 239.04 55.9245L238.05 56.4345C237.84 58.7745 237.67 59.2545 240.04 58.9245C240.1 59.9045 240.07 60.9345 240.04 61.9245C240.04 62.0545 239.03 62.1645 239 64.3545C238.86 74.5345 239.19 84.7545 239.04 94.9245C208.73 90.6445 180.84 124.245 183.17 153.295C185.01 176.195 195.66 184.025 211.77 196.635C212.58 197.275 213.61 196.605 213.03 198.915C183.1 198.375 156.34 222.525 154 252.385C153.62 257.205 153.29 270.055 154.08 274.375C154.92 278.945 158.44 279.785 161.03 281.925C161.16 282.035 160.39 284.425 162.46 284.005L238.03 283.925C238.09 292.615 237.74 301.355 238.46 309.995C238.59 311.505 237.26 313.135 240.03 313.935C239.98 314.265 240.09 314.615 240.03 314.935C234.98 315.225 237.91 322.685 235.07 324.475C233.37 325.555 229.65 324.185 228.45 325.865C227.11 327.735 229.17 330.115 228.93 331.365C228.56 333.285 224.13 332.895 222.25 333.625C221.22 334.025 218.93 337.665 216.99 338.385C214.49 339.315 211.21 338.015 210.03 340.935C206.11 341.065 203.29 340.865 199.57 340.885C144.05 341.155 85.17 343.245 30.03 340.935C29.19 338.575 24.37 339.235 24.06 338.905C23.59 338.395 24.42 335.355 24.02 334.945C23.62 334.535 13.69 333.915 12.03 333.935C11.67 333.635 11.37 333.265 11.03 332.935C10.1 329.695 10.3 327.185 11.03 323.945L6.03001 325.935L6.04 325.915ZM39.75 109.605C40.97 108.585 49.24 98.2046 49.63 96.9646C51.11 92.2845 47.35 89.4345 43.05 91.4245C41.01 92.3745 38.15 98.7445 36.55 98.7445C36.06 98.7445 30.1 92.9845 28.2 98.5845C26.44 103.775 35.11 113.485 39.75 109.605ZM66.75 96.1246C61.73 98.2946 62.01 104.395 67.48 104.975H188.58C195.59 104.225 193.72 96.5145 187.59 95.8645L66.75 96.1246ZM37.92 141.785C36 142.915 33.82 139.205 30.76 140.045C23.9 141.925 31.87 155.635 38.32 153.745C39.32 153.455 48.92 142.205 49.52 140.875C51.38 136.755 47.75 133.895 43.75 135.095C40.91 135.945 38.37 141.525 37.91 141.795L37.92 141.785ZM65.7 140.075C61.45 142.975 62.83 147.475 67.56 148.885C84.95 147.455 105.57 150.895 122.55 148.925C130.08 148.055 129.65 140.905 124.5 139.935L65.69 140.075H65.7ZM39.75 196.605C42.19 194.565 50.73 183.645 49.9 180.635C47.33 171.375 37.43 185.735 36.55 185.735C35.92 185.735 34.11 183.305 32.39 183.125C22 182.005 32.94 202.295 39.75 196.605ZM67.04 191.915C67.16 192.015 66.75 193.295 67.21 193.695C69.32 195.495 115.78 192.735 122.64 193.965C123.85 194.245 124.38 193.285 125.03 192.905C129.53 190.295 128.19 182.905 125.53 182.905H66.53C65.73 182.905 63.11 186.735 63.24 188.245C63.52 191.495 66.08 191.125 67.03 191.905L67.04 191.915ZM37.92 228.785C35.99 229.925 33.81 226.185 30.76 227.045C23.91 228.965 31.62 242.715 38.32 240.735C39.66 240.335 48.84 229.395 49.52 227.865C51.38 223.745 47.75 220.885 43.75 222.085C40.91 222.935 38.37 228.515 37.91 228.785H37.92ZM66.54 235.915H125.54C128.71 235.915 128.71 226.915 125.54 226.915H66.54C62.41 226.915 62.21 234.715 66.54 235.915ZM33.33 283.605C35.88 285.735 38.26 284.845 40.46 282.825C41.41 281.955 49.66 271.915 49.87 271.195C51.24 266.585 47.7 263.515 43.28 265.645C41.21 266.645 38.09 272.725 36.55 272.735C35.85 272.735 31.26 267.395 28.53 271.905C26.35 275.515 30.65 281.375 33.33 283.605ZM125.54 268.915V269.915C126.19 269.585 126.19 269.245 125.54 268.915ZM65.54 278.915H125.54C127.89 278.915 128.8 272.225 126.9 271.055C126.37 270.735 116.43 269.955 114.59 269.865C103.86 269.335 78.36 268.365 68.78 270.155C62.63 271.305 61.73 277.725 65.54 278.915Z" fill="#76859C"/>
<path d="M308.04 274.914C308.6 271.884 306.51 272.994 304.59 272.914C261.36 271.204 211.81 271.464 168.5 272.914C166.57 272.974 164.49 271.894 165.05 274.914C161.87 274.914 162.32 273.234 162.05 270.914C163.55 270.774 163.55 268.054 162.05 267.914C161.1 241.534 168.91 216.524 197.25 208.614C212.33 204.404 215.17 207.854 228.03 211.434C244.32 215.964 251.19 205.504 267.58 206.874C288.95 208.664 309.9 229.064 312.03 250.424C312.37 253.794 312.53 273.344 311.07 274.484C310.32 275.064 308.99 274.924 308.04 274.914Z" fill="#175CC8"/>
<path d="M229.8 103.175C292.68 94.6346 301.05 188.175 244.43 194.805C179.87 202.375 172.9 110.895 229.8 103.175Z" fill="#175CC8"/>
<path d="M101.94 15.8147C102.18 15.6047 102.44 12.5447 102.98 11.3747C109.05 -1.6453 127.43 -4.19529 136.02 7.42471C137.5 9.41471 139.33 15.0147 139.99 15.4547C141.82 16.6947 151.98 15.6147 155.42 16.0247C178.41 18.7547 179.53 50.8947 154.42 53.8047C138.94 55.6047 104.31 55.3147 88.4901 53.9447C61.2901 51.5947 62.1201 18.3747 86.5401 15.9247C89.1601 15.6647 101.26 16.4047 101.93 15.8147H101.94Z" fill="#76859C"/>
<path d="M165.04 274.915C164.48 271.895 166.57 272.975 168.49 272.915C211.8 271.465 261.35 271.205 304.58 272.915C306.51 272.995 308.59 271.885 308.03 274.915H165.03H165.04Z" fill="#175CC8"/>
<path d="M161.04 281.915H241.05C240.43 291.515 241.85 302.015 241.09 311.505C240.98 312.855 240.08 313.665 240.04 313.915C237.28 313.115 238.6 311.485 238.47 309.975C237.75 301.335 238.1 292.595 238.04 283.905L162.47 283.985C160.4 284.405 161.16 282.015 161.04 281.905V281.915Z" fill="#76859C"/>
<path d="M210.04 340.915C211.22 337.995 214.49 339.295 217 338.365C218.94 337.645 221.24 333.995 222.26 333.605C224.14 332.885 228.57 333.265 228.94 331.345C229.18 330.105 227.12 327.725 228.46 325.845C229.66 324.165 233.38 325.525 235.08 324.455C237.92 322.665 234.99 315.205 240.04 314.915C237.99 326.305 230.25 336.645 218.84 340.215C214.74 341.495 213.07 340.815 210.04 340.915Z" fill="#76859C"/>
<path d="M240.04 61.9146L241.03 95.9146C239.77 96.3646 239.15 94.9346 239.04 94.9146C239.19 84.7446 238.86 74.5245 239 64.3445C239.03 62.1645 240.04 62.0446 240.04 61.9146Z" fill="#76859C"/>
<path d="M12.04 333.915C13.71 333.895 23.62 334.485 24.03 334.925C24.44 335.365 23.6 338.375 24.07 338.885C24.38 339.225 29.2 338.555 30.04 340.915C21.71 340.565 18.65 339.365 12.04 333.915Z" fill="#76859C"/>
<path d="M6.04004 325.914L11.04 323.924C10.32 327.164 10.12 329.674 11.04 332.914C6.96004 328.964 8.32004 329.684 6.04004 325.914Z" fill="#76859C"/>
<path d="M240.04 58.9146C237.67 59.2346 237.84 58.7646 238.05 56.4246L239.04 55.9146C239.34 56.8746 239.92 56.9946 240.04 58.9146Z" fill="#76859C"/>
<path d="M162.04 270.915C161.93 269.945 162.08 268.905 162.04 267.915C163.54 268.055 163.54 270.775 162.04 270.915Z" fill="#175CC8"/>
<path d="M66.7504 96.1248L187.59 95.8647C193.73 96.5147 195.59 104.225 188.58 104.965H67.4804C62.0004 104.405 61.7304 98.2948 66.7504 96.1248Z" fill="#F3F3F2"/>
<path d="M125.04 192.915L67.0398 191.915C66.0898 191.125 63.5298 191.495 63.2498 188.255C63.1198 186.755 65.7398 182.915 66.5398 182.915H125.54C128.2 182.915 129.54 190.305 125.04 192.915Z" fill="#EFEFEF"/>
<path d="M65.7005 140.075L124.511 139.935C129.661 140.905 130.091 148.055 122.561 148.925C105.581 150.885 84.9605 147.445 67.5705 148.885C62.8405 147.475 61.4605 142.975 65.7105 140.075H65.7005Z" fill="#EFEFEF"/>
<path d="M66.5401 235.915C62.2101 234.715 62.4101 226.915 66.5401 226.915H125.54C128.71 226.915 128.71 235.915 125.54 235.915H66.5401Z" fill="#EFEFEF"/>
<path d="M65.5396 278.915C61.7296 277.725 62.6296 271.305 68.7796 270.155C78.3596 268.365 103.85 269.335 114.59 269.865C116.43 269.955 126.37 270.725 126.9 271.055C128.81 272.225 127.89 278.915 125.54 278.915H65.5396Z" fill="#FAFAFA"/>
<path d="M39.7501 109.605C35.1101 113.485 26.4401 103.775 28.2001 98.5846C30.1001 92.9846 36.0601 98.7446 36.5501 98.7446C38.1501 98.7446 41.0101 92.3746 43.0501 91.4246C47.3401 89.4346 51.1101 92.2746 49.6301 96.9646C49.2401 98.2046 40.9701 108.585 39.7501 109.605Z" fill="#F3F3F2"/>
<path d="M33.33 283.605C30.65 281.375 26.35 275.515 28.53 271.905C31.26 267.395 35.85 272.745 36.55 272.735C38.09 272.735 41.2 266.635 43.28 265.645C47.7 263.525 51.24 266.585 49.87 271.195C49.66 271.915 41.41 281.945 40.46 282.825C38.26 284.845 35.89 285.735 33.33 283.605Z" fill="#F3F3F3"/>
<path d="M39.7504 196.605C32.9404 202.295 22.0004 182.005 32.3904 183.125C34.1104 183.315 35.9204 185.745 36.5504 185.735C37.4204 185.735 47.3304 171.365 49.9004 180.635C50.7304 183.645 42.1904 194.565 39.7504 196.605Z" fill="#F4F4F4"/>
<path d="M37.9204 228.784C38.3804 228.514 40.9204 222.934 43.7604 222.084C47.7604 220.884 51.3904 223.744 49.5304 227.864C48.8404 229.384 39.6604 240.334 38.3304 240.734C31.6304 242.714 23.9204 228.964 30.7704 227.044C33.8104 226.184 36.0004 229.924 37.9304 228.784H37.9204Z" fill="#F3F3F2"/>
<path d="M37.9197 141.785C38.3797 141.515 40.9197 135.935 43.7597 135.085C47.7597 133.885 51.3997 136.755 49.5297 140.865C48.9297 142.195 39.3197 153.435 38.3297 153.735C31.8697 155.635 23.9097 141.915 30.7697 140.035C33.8297 139.195 36.0097 142.915 37.9297 141.775L37.9197 141.785Z" fill="#F3F3F3"/>
<path d="M125.04 192.914C124.39 193.294 123.85 194.254 122.65 193.974C115.79 192.744 69.3299 195.504 67.2199 193.704C66.7499 193.304 67.1699 192.024 67.0499 191.924L125.05 192.924L125.04 192.914Z" fill="#76859C"/>
<path d="M125.54 268.915C126.19 269.245 126.19 269.585 125.54 269.915V268.915Z" fill="#11110F"/>
</svg>
