<svg width="50" height="50" viewBox="0 0 459 460" fill="none" xmlns="http://www.w3.org/2000/svg">
<path d="M325.156 409.158V446.737H362.735V460H95.2618V446.737H132.841V409.158H54.3671C53.3724 409.158 42.8282 401.841 41.4134 399.763C37.8324 394.48 36.1966 385.594 35.6219 379.272C29.344 311.165 40.264 234.018 35.5334 164.939C-24.9244 111.245 -5.75917 20.1497 74.2397 2.39919C173.559 8.03602 281.034 -5.05028 379.403 2.31076C436.523 6.59918 474.411 71.3234 452.217 123.956C445.387 140.159 432.102 150.88 422.464 164.939C418.374 233.156 427.791 307.363 422.397 374.873C422.044 379.316 420.43 392.667 419.082 395.873C418.131 398.15 405.531 409.18 403.652 409.18H325.178L325.156 409.158ZM83.7671 16.3476C-9.38444 23.2886 -10.4897 157.755 85.2039 163.9C181.384 170.068 284.35 159.302 381.237 163.524C470.808 144.646 463.933 22.2276 368.35 15.596C276.37 9.22971 176.521 19.995 83.7671 16.3476ZM406.946 172.632L370.561 179.352C279.774 175.085 184.28 184.723 94.046 179.352C79.4787 178.49 65.3313 174.953 51.0513 172.61V358.294H406.946V172.61V172.632ZM406.946 371.579H51.0513C52.1345 378.829 47.1608 392.026 56.5776 393.684L404.89 392.712C408.957 389.882 406.261 376.818 406.968 371.579H406.946ZM311.893 409.158H146.104V443.421C146.104 445.853 151.498 446.582 153.73 446.847C200.041 452.285 256.807 442.471 304.267 446.847C306.522 447.334 311.893 445.256 311.893 443.421V409.158Z" fill="#76859C"/>
<path d="M83.7675 16.3473C176.521 19.9947 276.371 9.22942 368.35 15.5957C463.956 22.2273 470.83 144.624 381.238 163.524C284.351 159.302 181.384 170.067 85.2044 163.9C-10.4893 157.755 -9.38401 23.2884 83.7675 16.3473ZM66.5254 75.3683C63.497 78.1094 68.8244 146.68 66.5254 157.158H170.42V75.3683C156.847 78.3747 163.059 67.4326 160.075 55.8715C149.84 16.3031 94.7759 13.6505 77.8212 50.1905C74.5938 57.1536 73.7317 74.2631 72.8917 75.2136C71.9854 76.2525 67.078 74.882 66.5254 75.3683ZM303.052 57.6841C285.014 55.1862 286.959 62.7462 287.556 77.5789C273.961 74.5283 267.727 68.0294 265.451 86.3768L280.858 90.9525C284.726 96.4125 265.075 110.051 280.902 114.296C288.882 116.44 291.822 101.939 295.315 101.939C298.078 101.939 304.046 114.384 306.588 115.003C309.131 115.622 317.906 109.764 318.083 107.465C318.68 100.126 294.342 92.102 325.068 86.3325C324.052 67.1452 315.851 75.8547 303.052 77.5789V57.6841ZM227.916 59.8726H214.631V77.5568L194.78 73.1578C186.115 93.6052 205.59 87.3052 207.999 90.8641C211.89 96.5894 188.149 109.72 209.502 114.915C215.559 116.396 216.686 96.4568 224.445 104.238C231.74 111.555 230.613 120.507 243.544 109.388L234.525 90.842C247.722 89.781 253.514 86.9736 247.722 73.1357L227.894 77.5568V59.8726H227.916ZM376.021 59.8726H362.736V77.5568L342.885 73.1578C334.22 93.6052 353.695 87.3052 356.104 90.8641C359.398 95.6831 347.395 103.685 347.704 107.443C347.859 109.455 355.507 114.738 357.607 114.915C363.443 115.423 366.273 102.558 367.201 101.895C371.755 98.7115 376.927 114.163 381.835 114.893C382.829 115.047 390.898 110.847 391.163 110.405C394.457 104.813 379.912 93.782 382.63 90.842L400.315 86.3768C398.237 84.0778 396.424 73.5557 395.872 73.1357C394.258 71.942 380.42 79.6789 376.021 77.5789V59.8726Z" fill="#175CC8"/>
<path d="M406.946 172.631V358.315H51.0518V172.631C65.3318 174.975 79.4791 178.511 94.0465 179.373C184.28 184.723 279.753 175.085 370.561 179.373L406.946 172.653V172.631ZM243.058 230.414C238.969 227.828 213.172 232.161 205.103 229.685C203.335 229.154 189.585 212.487 182.644 207.933C110.736 160.982 31.2676 247.833 82.0654 312.933C107.995 346.158 155.831 351.662 188.149 324.052C194.051 319.012 201.39 306.368 206.96 305.285L372.285 304.821L399.961 268.413C400.204 265.54 376.751 234.791 373.788 233.421C369.787 231.608 348.765 231.409 343.902 232.249C338.442 233.2 338.199 242.44 334.043 238.925C333.402 238.394 333.004 231.365 331.479 230.392C328.517 228.513 299.824 230.923 296.31 233.332C292.795 235.742 296.906 242.97 289.833 241.158C289.501 238.372 288.971 230.68 286.141 229.994C282.936 229.221 259.151 229.552 255.967 230.503C250.552 232.139 251.082 238.24 248.894 238.947C243.544 240.671 245.269 231.785 243.08 230.392L243.058 230.414Z" fill="#76859C"/>
<path d="M406.947 371.579C406.24 376.818 408.937 389.882 404.869 392.712L56.5567 393.684C47.162 392.004 52.1135 378.83 51.0304 371.579H406.925H406.947Z" fill="#76859C"/>
<path d="M311.894 409.158V443.421C311.894 445.256 306.544 447.333 304.268 446.847C256.785 442.47 200.041 452.285 153.731 446.847C151.498 446.582 146.104 445.83 146.104 443.421V409.158H311.894Z" fill="#175CC8"/>
<path d="M304.704 75.6313C307.045 75.1806 309.23 74.5336 311.292 73.9272C313.802 73.1892 316.313 72.4488 318.491 72.4536C319.625 72.4561 320.756 72.6557 321.806 73.2085C322.866 73.7668 323.734 74.6276 324.421 75.7769C325.749 77.9976 326.462 81.397 326.719 86.2446L326.795 87.689L325.374 87.9556C317.687 89.3989 313.833 90.9306 312.142 92.3149C311.361 92.9538 311.184 93.445 311.151 93.7788C311.114 94.1666 311.237 94.7044 311.689 95.4663C312.14 96.2237 312.82 97.0439 313.66 97.9556C314.075 98.4058 314.511 98.8602 314.962 99.3306C315.409 99.7963 315.87 100.278 316.314 100.762C317.193 101.721 318.072 102.762 318.712 103.848C319.351 104.932 319.839 106.206 319.73 107.594C319.674 108.317 319.321 108.952 319.005 109.412C318.662 109.91 318.215 110.409 317.728 110.885C316.749 111.841 315.471 112.835 314.145 113.713C312.818 114.593 311.385 115.395 310.081 115.942C309.43 116.215 308.776 116.44 308.158 116.573C307.571 116.699 306.865 116.774 306.188 116.605C305.419 116.413 304.781 115.878 304.332 115.443C303.834 114.96 303.324 114.349 302.823 113.696C301.824 112.391 300.717 110.722 299.658 109.155C298.575 107.551 297.539 106.05 296.617 104.952C296.155 104.401 295.769 104.01 295.465 103.77C295.395 103.715 295.338 103.676 295.293 103.647C295.252 103.677 295.199 103.719 295.135 103.778C294.853 104.035 294.509 104.462 294.087 105.091C293.672 105.71 293.237 106.438 292.75 107.257C292.272 108.063 291.749 108.947 291.188 109.817C290.08 111.533 288.722 113.36 287.012 114.605C285.231 115.901 283.042 116.579 280.476 115.891H280.475C276.28 114.766 273.796 112.837 273.151 109.99C272.561 107.381 273.712 104.616 274.937 102.306C275.574 101.103 276.307 99.8957 276.983 98.769C277.672 97.6217 278.301 96.5599 278.793 95.5708C279.291 94.5703 279.59 93.7542 279.688 93.103C279.738 92.7751 279.73 92.5253 279.688 92.3276L264.98 87.9604L263.64 87.562L263.812 86.1733C264.387 81.5345 265.232 78.2205 266.521 75.9956C267.182 74.856 267.983 73.9591 268.96 73.3286C269.941 72.6953 271.011 72.3885 272.119 72.2993C274.242 72.1287 276.654 72.7583 279.149 73.5005C281.176 74.1033 283.358 74.8131 285.806 75.4517C285.671 72.6586 285.525 70.0747 285.537 67.8433C285.553 65.0439 285.812 62.4641 286.835 60.3931C287.921 58.1935 289.779 56.7383 292.536 56.0474C295.191 55.3823 298.703 55.4147 303.278 56.0483L304.704 56.2456V75.6313Z" fill="#76859C" stroke="white" stroke-width="3.30341"/>
<path d="M377.674 58.2217V76.2861C377.794 76.2933 377.924 76.2981 378.065 76.2969C378.722 76.2914 379.514 76.1881 380.424 75.9961C382.248 75.6111 384.35 74.9125 386.446 74.1533C388.484 73.4154 390.588 72.5919 392.202 72.0576C393.015 71.7885 393.798 71.5597 394.461 71.4443C394.791 71.3869 395.157 71.3457 395.517 71.3633C395.846 71.3794 396.381 71.4527 396.863 71.8145L396.872 71.8213C397.135 72.0213 397.283 72.2527 397.338 72.3428C397.41 72.4612 397.464 72.5763 397.503 72.6641C397.581 72.8407 397.65 73.0379 397.71 73.2246C397.832 73.605 397.968 74.0989 398.109 74.6426C398.412 75.8056 398.725 77.1053 399.128 78.6299C399.517 80.1024 399.942 81.5933 400.388 82.8428C400.861 84.1684 401.273 84.9697 401.547 85.2764L403.366 87.3105L400.72 87.9785L384.038 92.1904C384.148 92.5081 384.355 92.9392 384.693 93.4971C385.566 94.9369 386.937 96.6539 388.432 98.6348C389.87 100.541 391.397 102.665 392.339 104.713C393.256 106.708 393.84 109.118 392.588 111.244L392.581 111.256H392.58C392.442 111.486 392.275 111.637 392.226 111.682C392.149 111.751 392.073 111.811 392.013 111.855C391.891 111.946 391.751 112.04 391.611 112.128C391.328 112.307 390.958 112.523 390.542 112.756C389.706 113.224 388.618 113.798 387.512 114.351C386.408 114.902 385.263 115.444 384.316 115.842C383.847 116.039 383.398 116.213 383.014 116.336C382.823 116.397 382.619 116.455 382.42 116.494C382.262 116.525 381.939 116.581 381.582 116.525V116.524C380.583 116.373 379.705 115.873 378.966 115.294C378.216 114.706 377.509 113.957 376.849 113.161C375.543 111.589 374.228 109.589 373.031 107.87C371.776 106.067 370.665 104.594 369.655 103.744C369.159 103.326 368.815 103.17 368.608 103.128C368.526 103.111 368.449 103.109 368.353 103.143C368.329 103.192 368.301 103.252 368.271 103.323C368.11 103.694 367.914 104.208 367.664 104.866C367.178 106.149 366.529 107.869 365.718 109.56C364.914 111.234 363.896 112.999 362.619 114.331C361.335 115.67 359.609 116.748 357.465 116.561V116.56C356.955 116.516 356.426 116.341 355.97 116.157C355.483 115.961 354.953 115.702 354.41 115.406C353.324 114.815 352.107 114.035 350.964 113.203C349.824 112.374 348.713 111.462 347.857 110.597C347.431 110.166 347.036 109.714 346.729 109.264C346.45 108.852 346.119 108.264 346.06 107.588V107.578C345.985 106.672 346.284 105.814 346.633 105.11C346.992 104.385 347.495 103.648 348.036 102.937C349.089 101.552 350.556 99.9298 351.754 98.4883C353.024 96.9593 354.073 95.5445 354.629 94.2881C355.174 93.0564 355.103 92.3326 354.747 91.8057C354.725 91.7893 354.567 91.6621 354.049 91.5186C353.444 91.351 352.64 91.2378 351.62 91.123C349.695 90.9064 347.064 90.7041 344.798 89.9121C342.445 89.0897 340.203 87.5347 339.365 84.4922C338.571 81.6065 339.152 77.7353 341.365 72.5137L341.902 71.248L343.244 71.5459L361.085 75.498V58.2217H377.674Z" fill="#76859C" stroke="white" stroke-width="3.30341"/>
<path d="M227.938 58.2217V59.873H229.567V75.4961L247.385 71.5244L248.734 71.2236L249.269 72.498C252.176 79.445 252.595 84.5352 249.479 87.9023C247.993 89.5076 245.874 90.5013 243.426 91.168C241.574 91.6721 239.439 92.0131 237.076 92.2656L245.052 108.666L245.609 109.812L244.643 110.643C241.374 113.448 238.813 115.154 236.663 115.871C235.557 116.24 234.502 116.367 233.489 116.206C232.469 116.044 231.607 115.607 230.867 115.026C229.484 113.941 228.378 112.205 227.32 110.604C226.201 108.91 224.987 107.104 223.298 105.404C222.441 104.545 221.825 104.224 221.435 104.123C221.109 104.039 220.848 104.081 220.542 104.26C220.181 104.47 219.755 104.879 219.266 105.556C218.784 106.221 218.312 107.045 217.82 107.981C216.89 109.753 215.835 112.071 214.676 113.726C213.546 115.337 211.739 117.157 209.132 116.52V116.519C203.712 115.194 200.461 113.23 199.302 110.385C198.14 107.534 199.405 104.585 200.815 102.231C201.553 101.001 202.425 99.7825 203.249 98.6455C204.09 97.4853 204.872 96.4228 205.51 95.4189C206.155 94.403 206.566 93.5783 206.733 92.9199C206.888 92.3126 206.8 92.0116 206.662 91.8057C206.638 91.7874 206.478 91.6608 205.965 91.5186C205.36 91.351 204.556 91.2378 203.536 91.123C201.611 90.9064 198.98 90.7041 196.714 89.9121C194.361 89.0897 192.119 87.5347 191.281 84.4922C190.487 81.6065 191.068 77.7353 193.281 72.5137L193.818 71.248L195.16 71.5459L213.001 75.498V58.2217H227.938Z" fill="#76859C" stroke="white" stroke-width="3.30341"/>
<path d="M154.947 90.8423V141.684H79.7891V90.8423H154.947ZM123.911 134.964C124.375 134.5 123.867 128.775 125.016 126.189C129.062 117.17 138.235 111.422 126.122 100.878C116.241 92.2791 101.872 103.929 104.061 116.175C104.901 120.839 109.123 122.165 110.294 125.592C111.245 128.399 110.294 134.566 110.736 135.053C111.179 135.539 123.447 135.429 123.911 134.964Z" fill="#76859C"/>
<path d="M148.314 75.3679H88.6299C83.2804 24.8132 150.856 26.2501 148.314 75.3679Z" fill="#76859C"/>
<path d="M234.303 245.8C235.673 246.972 234.767 258.909 240.338 260.743C242.681 261.517 254.772 261.716 256.32 260.743C260.785 257.87 254.573 244.695 268.765 245.424C284.791 246.264 278.558 260.213 286.383 261.208C310.146 264.258 301.348 249.337 305.482 245.8C306.101 245.27 319.519 245.004 321.508 245.469C325.642 246.441 323.719 260.323 330.593 261.185C353.472 264.103 344.785 250.685 351.638 246.618C354.224 245.093 362.712 244.739 365.608 245.535C367.155 245.955 380.64 265.209 380.485 268.569C380.242 273.741 368.858 288.751 363.818 289.723H198.05C192.038 290.895 187.727 304.291 182.665 309.751C155.807 338.642 103.396 331.038 86.7061 295.029C56.8861 230.636 137.946 175.881 187.064 232.25C190.269 235.941 192.745 244.076 196.193 245.225C203.112 247.502 231.805 243.656 234.303 245.8ZM125.457 252.962C103.44 230.945 71.343 268.569 99.7703 286.363C120.571 299.383 143.561 271.089 125.457 252.962Z" fill="#175CC8"/>
<path d="M123.911 134.964C123.447 135.429 111.179 135.539 110.736 135.053C110.294 134.566 111.245 128.399 110.294 125.592C109.145 122.165 104.901 120.817 104.061 116.175C101.872 103.951 116.219 92.2791 126.122 100.878C138.235 111.422 129.062 117.148 125.016 126.189C123.867 128.775 124.375 134.478 123.911 134.964Z" fill="#175CC8"/>
<path d="M125.458 252.962C143.584 271.088 120.573 299.383 99.7717 286.363C71.3222 268.546 103.441 230.945 125.458 252.962ZM104.414 261.362C100.722 263.705 101.253 274.205 107.862 276.172C124.22 281.013 118.031 252.719 104.414 261.362Z" fill="#76859C"/>
<path d="M104.415 261.362C118.009 252.697 124.221 281.014 107.863 276.173C101.254 274.205 100.745 263.705 104.415 261.362Z" fill="#175CC8"/>
</svg>
