<svg width="50" height="50" viewBox="0 0 474 440" fill="none" xmlns="http://www.w3.org/2000/svg">
<path d="M81.0978 173.275C80.8181 172.969 76.6475 173.313 73.3288 170.592C65.6106 164.234 68.7258 151.684 53.5056 152.282C46.8174 152.536 42.5323 157.609 35.2592 155.41C31.4319 154.252 18.0681 140.965 17.0381 137.252C14.8002 129.14 29.1431 119.718 17.2416 108.643C13.516 105.171 3.94138 103.34 1.93236 99.1952C-0.0766582 95.05 0.114071 75.1124 2.74614 71.4886C6.42086 66.4406 18.4622 66.4788 21.1833 57.4382C24.0951 47.7618 13.3253 41.9637 20.9036 30.6725C22.0734 28.9305 35.4245 16.177 36.6578 15.8719C43.8166 14.0663 53.7472 26.4383 64.4662 17.5757C69.2344 13.634 68.3444 2.68611 74.7783 0.753381C78.1351 -0.251127 97.3988 -0.251127 100.756 0.753381C107.177 2.68611 106.592 14.4605 111.017 17.6012C122.423 25.6881 132.124 14.1553 138.876 15.8719C140.021 16.1643 154.694 30.1257 155.571 31.6261C161.408 41.6076 151.63 48.3849 154.351 57.4382C157.072 66.4915 169.1 66.4279 172.801 71.4886C175.28 74.8836 174.11 80.1731 174.555 80.1731H231.774C229.663 75.9517 224.59 73.701 224.666 68.1445C224.921 51.1568 254.865 78.838 254.865 86.8232C254.865 92.9266 234.33 113.754 227.96 109.723C219.796 104.561 228.188 98.1017 231.787 93.4606H174.568C174.225 93.4606 174.81 97.5422 172.801 100.174C168.719 105.527 157.288 105.159 154.414 114.276C151.261 124.27 159.551 129.318 158.839 135.942C158.343 140.571 143.644 154.99 138.838 155.855C130.802 157.304 124.266 148.912 113.992 153.757C107.355 156.885 107.024 167.591 103.553 170.871C100.946 173.325 94.4743 172.779 94.4743 173.249V207.441H162.183C178.751 207.441 175.7 246.438 174.67 257.882C174.047 264.787 170.194 273.942 162.183 273.942H94.4743V291.044H165.998C167.079 291.044 174.009 298.775 174.543 301.534C175.967 308.947 175.471 344.499 171.682 349.903C170.677 351.34 165.146 355.637 164.091 355.637H94.4743V372.739H164.091C167.219 372.739 173.373 380.038 174.174 383.598C175.661 390.223 175.585 417.752 174.67 425.063C173.296 436.049 167.829 436.774 158.445 437.422C119.6 440.08 53.6709 440.665 15.2453 437.422C7.85769 436.799 2.51726 435.248 1.1313 426.792C-0.191096 418.782 -0.0766588 384.183 3.91595 378.487C4.92045 377.05 10.4516 372.752 11.507 372.752H81.1232V355.65H11.4815C10.4262 355.65 4.89502 351.34 3.89052 349.915C0.101356 344.511 -0.381825 308.959 1.02957 301.546C1.56362 298.787 8.49345 291.056 9.57425 291.056H81.0978V273.954H13.3888C-3.17919 273.954 -0.127519 234.956 0.90242 223.513C1.52547 216.608 5.3782 207.453 13.3888 207.453H81.0978C80.2459 202.571 82.2422 174.533 81.0978 173.262V173.275ZM160.975 78.4947C159.856 77.2232 150.116 77.7445 145.514 70.1535C144 67.6613 140.211 57.3619 140.084 54.5137C139.703 46.0453 148.68 38.5814 139.359 32.5543C132.29 27.9768 128.233 34.1692 121.952 34.4871C118.824 34.6524 104.583 29.6934 102.192 27.8243C96.4833 23.3612 97.7803 10.0228 85.9678 11.7267C78.008 12.8711 78.4403 24.2513 72.1081 28.4982C70.1499 29.8078 57.5109 34.3981 55.1713 34.4998C47.4277 34.8304 39.7477 25.5864 33.2501 35.4789C29.3974 41.3533 34.6234 45.1298 35.2337 50.9661C35.7423 55.9123 31.7497 68.8565 28.5709 72.544C22.9126 79.105 10.1083 75.5956 14.2535 92.2272C14.902 94.8339 27.1849 96.9319 29.5627 100.645C30.6817 102.399 35.2464 114.962 35.4245 117.264C36.1747 127.614 25.8244 133.501 38.1455 141.156C42.4814 143.851 49.0807 137.951 53.9252 137.532C56.7226 137.29 72.9855 143.432 74.8546 145.301C81.4538 151.9 75.9354 164.12 93.1773 160.051C95.6187 159.478 98.06 147.348 101.519 144.678C102.943 143.584 118.532 137.405 120.159 137.379C128.272 137.214 135.443 148.073 142.258 136.298C145.946 129.928 138.393 124.232 140.644 113.869C140.898 112.673 145.959 100.289 146.442 99.6911C148.196 97.5549 160.123 94.4143 160.886 93.1936C161.649 91.9729 161.56 79.1686 160.975 78.5074V78.4947ZM161.204 220.779H14.3425V260.679H161.204V220.779ZM161.204 304.369H14.3425V342.363H161.204V304.369ZM161.204 386.065H14.3425V423.117C14.3425 423.321 17 425.966 17.2034 425.966H158.343C158.547 425.966 161.204 423.321 161.204 423.117V386.065Z" fill="#175CC8"/>
<path d="M420.596 268.271C418.689 276.981 440.559 296.181 430.705 302.64C425.784 305.87 416.921 299.83 411.021 303.39C406.279 306.251 408.161 322.082 397.124 319.31C390.524 317.657 381.128 291.222 378.33 289.48C362.525 279.6 357.846 320.887 345.296 319.691C338.57 319.056 336.675 304.166 334.463 302.78C329.745 299.83 314.919 308.057 312.071 299.271C309.337 290.84 325.651 277.286 325.231 268.258H274.688C274.485 268.258 271.827 265.613 271.827 265.41V43.1336L314.741 0.384766H471.139C471.343 0.384766 474 3.02955 474 3.23299V265.41C474 265.613 471.343 268.258 471.139 268.258H420.596V268.271ZM460.649 13.685H329.046V52.6319C329.046 53.0643 323.095 57.3874 322.37 57.3874H285.178V254.97H323.324C309.223 220.995 335.34 182.786 371.973 182.671C410.03 182.544 435.155 219.838 422.503 254.97H460.649V13.685ZM315.708 44.1L315.682 19.3941L290.913 43.1463L315.708 44.1ZM364.776 196.531C318.365 204.224 325.409 277.222 373.372 275.366C429.293 273.192 422.008 187.045 364.776 196.531ZM353.714 283.618C353.167 282.855 339.307 277.413 336.701 275.874L330.966 289.162C339.74 288.081 342.957 289.162 347.165 296.74C350.115 294.833 355.786 286.543 353.714 283.631V283.618ZM414.874 289.149C413.399 286.326 409.305 276.459 406.317 276.243C405.478 276.18 391.974 283.771 391.847 284.597C391.249 288.31 395.712 292.837 395.839 296.766C401.612 298.241 399.26 291.158 404.753 289.531C407.906 288.59 411.606 289.315 414.887 289.162L414.874 289.149Z" fill="#175CC8"/>
<path d="M214.608 412.666C221.779 418.07 223.788 432.794 212.128 429.463C209.344 428.662 189.915 408.597 189.838 406.067C189.724 401.616 206.508 383.739 210.234 382.62C223.915 378.5 221.639 392.423 214.608 399.366H358.609C359.143 399.366 363.809 396.416 364.331 395.564C369.646 386.816 361.991 324.269 365.678 309.507C369.633 301.61 378.152 302.45 380.123 311.439C382.641 322.921 381.547 386.803 378.177 397.942C376.626 403.078 366.924 412.653 362.436 412.653H214.621L214.608 412.666Z" fill="#175CC8"/>
<path d="M160.975 78.4951C161.56 79.1563 161.674 91.9097 160.886 93.1813C160.097 94.4528 148.196 97.5426 146.441 99.6788C145.958 100.276 140.897 112.661 140.643 113.856C138.405 124.219 145.945 129.916 142.258 136.286C135.442 148.061 128.271 137.214 120.159 137.367C118.531 137.405 102.929 143.572 101.518 144.666C98.0593 147.348 95.618 159.466 93.1766 160.038C75.9347 164.107 81.4531 151.888 74.8539 145.289C72.9848 143.419 56.7219 137.278 53.9245 137.52C49.08 137.939 42.4807 143.839 38.1448 141.143C25.8364 133.489 36.174 127.589 35.4238 117.251C35.2585 114.95 30.6937 102.387 29.562 100.632C27.1842 96.9196 14.9013 94.8088 14.2528 92.2149C10.1076 75.5833 22.9119 79.0927 28.5702 72.5316C31.7363 68.8569 35.7416 55.9 35.233 50.9538C34.6227 45.1174 29.384 41.341 33.2494 35.4665C39.747 25.574 47.427 34.8181 55.1706 34.4875C57.5102 34.3857 70.1492 29.8082 72.1074 28.4858C78.4269 24.2516 78.0073 12.8714 85.9671 11.7144C97.7796 10.0105 96.4826 23.3489 102.192 27.8119C104.582 29.6811 118.823 34.64 121.951 34.4747C128.233 34.1569 132.289 27.9645 139.359 32.542C148.679 38.5691 139.702 46.033 140.083 54.5013C140.211 57.3496 144 67.649 145.513 70.1412C150.116 77.7322 159.856 77.2109 160.975 78.4824V78.4951ZM86.3612 46.4907C35.0041 48.3598 37.6362 125.923 87.7726 125.923C139.549 125.923 139.473 44.558 86.3612 46.4907Z" fill="#76859C"/>
<path d="M161.203 386.065V423.117C161.203 423.321 158.546 425.966 158.343 425.966H17.2027C16.9993 425.966 14.3418 423.321 14.3418 423.117V386.065H161.203ZM50.3134 410.516C57.4594 399.162 36.0214 395.792 32.3467 401.145C23.6112 413.861 47.5542 414.903 50.3134 410.516ZM143.771 410.516C145.856 407.172 144.457 400.319 139.27 399.365C133.395 398.272 74.7013 398.869 71.5734 400.332C63.4483 404.133 69.3736 411.712 78.198 412.665C92.2357 414.191 119.218 413.797 133.624 412.754C135.824 412.589 142.957 411.839 143.771 410.516Z" fill="#76859C"/>
<path d="M161.203 220.779V260.68H14.3418V220.779H161.203ZM34.6736 234.385C27.2097 236.979 28.0235 246.935 40.0267 247.532C58.7309 248.46 52.4241 228.23 34.6736 234.385ZM72.5143 234.079C67.8732 235.974 69.2083 247.38 72.5143 247.38H141.177C145.08 247.38 145.08 234.079 141.177 234.079H72.5143Z" fill="#76859C"/>
<path d="M161.203 304.369V342.362H14.3418V304.369H161.203ZM50.3134 317.911C48.0755 314.338 27.8709 314.185 29.9308 324.04C32.423 335.941 58.0188 330.207 50.3134 317.911ZM143.555 318.14C139.613 314.351 73.9765 314.402 70.1111 318.14C67.7842 320.39 67.6952 326.595 70.1365 328.617C73.9384 331.771 125.512 331.974 133.599 331.02C139.511 330.321 150.701 324.993 143.555 318.153V318.14Z" fill="#76859C"/>
<path d="M460.649 13.6851V254.971H422.503C435.142 219.838 410.017 182.544 371.972 182.671C335.34 182.799 309.235 221.008 323.324 254.971H285.178V57.3875H322.37C323.095 57.3875 329.046 53.0643 329.046 52.632V13.6851H460.649ZM360.516 49.7838C355.036 52.2633 355.544 63.084 360.516 63.084H432.993C438.537 63.084 438.537 49.7838 432.993 49.7838H360.516ZM310.926 78.2788C305.001 80.7583 309.591 91.579 312.834 91.579H432.993C438.537 91.579 438.537 78.2788 432.993 78.2788H310.926ZM315.16 105.312C304.2 107.677 306.196 119.591 316.559 120.176C351.564 116.552 395.368 124.69 429.267 120.176C441.449 118.548 441.411 106.469 427.309 104.854C392.813 100.912 350.496 107.511 315.173 105.312H315.16ZM310.926 146.674H434.9C438.41 146.674 440.419 135.192 431.035 133.425C395.012 136.032 353.828 129.788 318.441 133.26C306.794 134.404 304.721 144.78 310.926 146.674ZM312.834 175.182H432.993C438.537 175.182 438.537 161.882 432.993 161.882H312.834C305.459 161.882 307.353 173.644 312.834 175.182Z" fill="#76859C"/>
<path d="M364.776 196.531C422.007 187.033 429.293 273.192 373.371 275.366C325.409 277.223 318.365 204.237 364.776 196.531ZM352.518 243.031C355.799 247.037 366.111 254.717 371.642 252.822C373.308 252.25 394.517 228.205 395.051 226.527C396.322 222.547 394.758 218.211 390.664 217.168C383.238 215.286 372.011 237.767 364.712 235.771C361.457 234.881 359.702 228.269 353.128 230.418C348.106 232.058 349.975 239.916 352.531 243.018L352.518 243.031Z" fill="#76859C"/>
<path d="M315.708 44.1004L290.913 43.1467L315.67 19.3945L315.708 44.1004Z" fill="#76859C"/>
<path d="M353.714 283.618C355.787 286.53 350.116 294.82 347.166 296.728C342.957 289.149 339.728 288.068 330.967 289.149L336.701 275.862C339.295 277.4 353.168 282.855 353.714 283.605V283.618Z" fill="#76859C"/>
<path d="M414.874 289.149C411.594 289.302 407.907 288.577 404.74 289.518C399.247 291.158 401.6 298.241 395.827 296.753C395.7 292.811 391.237 288.297 391.834 284.584C391.961 283.758 405.478 276.167 406.304 276.23C409.292 276.447 413.387 286.314 414.862 289.136L414.874 289.149Z" fill="#76859C"/>
<path d="M86.3616 46.4904C139.473 44.5577 139.55 125.923 87.773 125.923C37.6366 125.923 35.0046 48.3596 86.3616 46.4904ZM107.151 67.5343C80.8051 41.5442 43.9434 82.6146 69.552 105.934C95.4658 129.534 130.229 90.2946 107.151 67.5343Z" fill="#175CC8"/>
<path d="M143.772 410.517C142.958 411.826 135.825 412.589 133.625 412.755C119.218 413.797 92.2365 414.191 78.1988 412.666C69.3744 411.712 63.4363 404.121 71.5741 400.332C74.7021 398.87 133.396 398.272 139.27 399.365C144.458 400.332 145.857 407.173 143.772 410.517Z" fill="#175CC8"/>
<path d="M50.3137 410.517C47.5545 414.904 23.6116 413.861 32.347 401.146C36.0217 395.793 57.4597 399.175 50.3137 410.517Z" fill="#175CC8"/>
<path d="M72.5155 234.08H141.178C145.082 234.08 145.082 247.38 141.178 247.38H72.5155C69.2096 247.38 67.8745 235.974 72.5155 234.08Z" fill="#175CC8"/>
<path d="M34.6744 234.385C52.425 228.23 58.7318 248.46 40.0276 247.532C28.0243 246.935 27.2106 236.978 34.6744 234.385Z" fill="#175CC8"/>
<path d="M143.555 318.14C150.688 324.981 139.499 330.321 133.599 331.008C125.525 331.962 73.9387 331.758 70.1368 328.605C67.6955 326.583 67.7845 320.378 70.1114 318.127C73.9641 314.402 139.613 314.351 143.555 318.127V318.14Z" fill="#175CC8"/>
<path d="M50.3148 317.912C58.033 330.207 32.4371 335.929 29.9322 324.041C27.8596 314.186 48.0642 314.339 50.3148 317.912Z" fill="#175CC8"/>
<path d="M315.161 105.312C350.484 107.512 392.813 100.913 427.297 104.854C441.398 106.469 441.436 118.549 429.255 120.176C395.356 124.69 351.552 116.552 316.547 120.176C306.184 119.591 304.2 107.677 315.148 105.312H315.161Z" fill="#175CC8"/>
<path d="M310.927 146.674C304.722 144.792 306.795 134.404 318.442 133.26C353.828 129.788 395.001 136.031 431.036 133.425C440.432 135.192 438.411 146.674 434.901 146.674H310.927Z" fill="#175CC8"/>
<path d="M310.926 78.2783H432.993C438.537 78.2783 438.537 91.5785 432.993 91.5785H312.834C309.591 91.5785 305.001 80.7578 310.926 78.2783Z" fill="#175CC8"/>
<path d="M312.834 175.182C307.354 173.643 305.459 161.882 312.834 161.882H432.993C438.537 161.882 438.537 175.182 432.993 175.182H312.834Z" fill="#175CC8"/>
<path d="M360.517 49.7842H432.994C438.538 49.7842 438.538 63.0844 432.994 63.0844H360.517C355.545 63.0844 355.036 52.2764 360.517 49.7842Z" fill="#175CC8"/>
<path d="M352.518 243.031C349.975 239.928 348.093 232.058 353.116 230.43C359.69 228.294 361.444 234.906 364.699 235.783C372.011 237.78 383.238 215.286 390.651 217.181C394.746 218.223 396.322 222.559 395.038 226.539C394.504 228.218 373.308 252.262 371.629 252.835C366.085 254.729 355.786 247.049 352.506 243.044L352.518 243.031Z" fill="white"/>
<path d="M107.151 67.5347C130.23 90.2951 95.4787 129.534 69.5522 105.935C43.9436 82.615 80.8052 41.5446 107.151 67.5347Z" fill="#76859C"/>
</svg>
